0
SECTION
2
HEADER
9
$LIMMIN
10
0
20
0
9
$LIMMAX
10
2000
20
2000
9
$EXTMIN
10
0
20
0
9
$EXTMAX
10
2000
20
2000
9
$SPLINESEGS
70
8
0
ENDSEC
0
SECTION
2
ENTITIES
0
POLYLINE
8
1
62
252
66
1
40
1
41
1
70
8
0
VERTEX
10
696.598
20
208.053
30
-119.723
8
0
0
VERTEX
10
696.285
20
209.131
30
-118.861
8
0
0
VERTEX
10
695.964
20
210.205
30
-118.001
8
0
0
VERTEX
10
695.647
20
211.283
30
-117.139
8
0
0
VERTEX
10
695.325
20
212.355
30
-116.278
8
0
0
VERTEX
10
694.214
20
214.028
30
-115.292
8
0
0
VERTEX
10
693.892
20
215.102
30
-114.433
8
0
0
VERTEX
10
693.578
20
216.181
30
-113.572
8
0
0
VERTEX
10
693.257
20
217.255
30
-112.71
8
0
0
VERTEX
10
693.413
20
218.813
30
-111.113
8
0
0
VERTEX
10
692.301
20
220.482
30
-110.128
8
0
0
VERTEX
10
692.137
20
223.113
30
-107.669
8
0
0
VERTEX
10
691.502
20
225.265
30
-105.946
8
0
0
VERTEX
10
690.711
20
225.861
30
-105.822
8
0
0
VERTEX
10
690.865
20
227.417
30
-104.224
8
0
0
VERTEX
10
690.547
20
228.493
30
-103.364
8
0
0
VERTEX
10
689.913
20
230.644
30
-101.639
8
0
0
VERTEX
10
690.069
20
232.203
30
-100.045
8
0
0
VERTEX
10
690.225
20
233.757
30
-98.4464
8
0
0
VERTEX
10
690.38
20
235.312
30
-96.8507
8
0
0
VERTEX
10
690.064
20
236.391
30
-95.9876
8
0
0
VERTEX
10
689.74
20
237.464
30
-95.1283
8
0
0
VERTEX
10
689.899
20
239.023
30
-93.5291
8
0
0
VERTEX
10
689.262
20
241.173
30
-91.808
8
0
0
VERTEX
10
690.217
20
242.135
30
-90.3305
8
0
0
VERTEX
10
689.739
20
245.846
30
-87.0116
8
0
0
VERTEX
10
689.103
20
247.997
30
-85.2905
8
0
0
VERTEX
10
689.254
20
249.554
30
-83.6944
8
0
0
VERTEX
10
689.411
20
251.108
30
-82.096
8
0
0
VERTEX
10
689.569
20
252.667
30
-80.4988
8
0
0
VERTEX
10
689.884
20
255.781
30
-77.304
8
0
0
VERTEX
10
689.564
20
256.856
30
-76.4415
8
0
0
VERTEX
10
689.719
20
258.41
30
-74.8487
8
0
0
VERTEX
10
689.557
20
261.04
30
-72.3867
8
0
0
VERTEX
10
689.717
20
262.601
30
-70.7875
8
0
0
VERTEX
10
690.191
20
263.08
30
-70.052
8
0
0
VERTEX
10
689.556
20
265.232
30
-68.3294
8
0
0
VERTEX
10
689.709
20
266.792
30
-66.7323
8
0
0
VERTEX
10
690.341
20
268.826
30
-64.3996
8
0
0
VERTEX
10
690.498
20
270.384
30
-62.8034
8
0
0
VERTEX
10
690.336
20
273.015
30
-60.3418
8
0
0
VERTEX
10
689.699
20
275.166
30
-58.6208
8
0
0
VERTEX
10
689.858
20
276.723
30
-57.0215
8
0
0
VERTEX
10
690.012
20
278.28
30
-55.4225
8
0
0
VERTEX
10
690.17
20
279.838
30
-53.8254
8
0
0
VERTEX
10
690.328
20
281.394
30
-52.2302
8
0
0
VERTEX
10
690.483
20
282.951
30
-50.6336
8
0
0
VERTEX
10
690.162
20
284.025
30
-49.7726
8
0
0
VERTEX
10
690.319
20
285.58
30
-48.1759
8
0
0
VERTEX
10
690.006
20
286.66
30
-47.3112
8
0
0
VERTEX
10
690.158
20
288.215
30
-45.7135
8
0
0
VERTEX
10
689.522
20
290.367
30
-43.9958
8
0
0
VERTEX
10
688.886
20
292.519
30
-42.2684
8
0
0
VERTEX
10
689.041
20
294.073
30
-40.6714
8
0
0
VERTEX
10
688.723
20
295.151
30
-39.8106
8
0
0
VERTEX
10
688.564
20
297.789
30
-37.3508
8
0
0
VERTEX
10
688.72
20
299.339
30
-35.7535
8
0
0
VERTEX
10
688.402
20
300.42
30
-34.8936
8
0
0
VERTEX
10
688.235
20
303.048
30
-32.4349
8
0
0
VERTEX
10
688.399
20
304.605
30
-30.8321
8
0
0
VERTEX
10
688.078
20
305.683
30
-29.974
8
0
0
VERTEX
10
688.236
20
307.237
30
-28.377
8
0
0
VERTEX
10
687.275
20
310.463
30
-25.7948
8
0
0
VERTEX
10
687.275
20
310.463
30
-25.7948
8
0
0
VERTEX
10
686.959
20
311.541
30
-24.9318
8
0
0
VERTEX
10
686.323
20
313.694
30
-23.2074
8
0
0
VERTEX
10
686.481
20
315.252
30
-21.6102
8
0
0
VERTEX
10
685.84
20
317.402
30
-19.8934
8
0
0
VERTEX
10
685.68
20
320.037
30
-17.4282
8
0
0
VERTEX
10
685.044
20
322.188
30
-15.7046
8
0
0
VERTEX
10
684.878
20
324.816
30
-13.2526
8
0
0
VERTEX
10
684.715
20
327.446
30
-10.7938
8
0
0
VERTEX
10
684.874
20
329.005
30
-9.19179
8
0
0
VERTEX
10
684.713
20
331.638
30
-6.73616
8
0
0
VERTEX
10
684.865
20
333.195
30
-5.13899
8
0
0
VERTEX
10
685.025
20
334.751
30
-3.53992
8
0
0
VERTEX
10
685.185
20
336.311
30
-1.94316
8
0
0
VERTEX
10
684.549
20
338.462
30
-0.221032
8
0
0
VERTEX
10
684.859
20
341.572
30
2.97444
8
0
0
VERTEX
10
685.493
20
343.613
30
5.31208
8
0
0
VERTEX
10
684.852
20
345.761
30
7.0293
8
0
0
VERTEX
10
685.488
20
347.805
30
9.36973
8
0
0
VERTEX
10
684.371
20
349.472
30
10.3532
8
0
0
VERTEX
10
685.33
20
350.437
30
11.8299
8
0
0
VERTEX
10
684.692
20
352.592
30
13.5493
8
0
0
VERTEX
10
684.524
20
355.219
30
16.0029
8
0
0
VERTEX
10
683.888
20
357.372
30
17.725
8
0
0
VERTEX
10
684.048
20
358.928
30
19.3241
8
0
0
VERTEX
10
683.728
20
360.007
30
20.1854
8
0
0
VERTEX
10
683.089
20
362.156
30
21.9101
8
0
0
VERTEX
10
682.454
20
364.313
30
23.6303
8
0
0
VERTEX
10
682.607
20
365.864
30
25.2288
8
0
0
VERTEX
10
682.289
20
366.941
30
26.0909
8
0
0
VERTEX
10
682.444
20
368.5
30
27.6863
8
0
0
VERTEX
10
681.805
20
370.645
30
29.4032
8
0
0
VERTEX
10
681.962
20
372.204
30
31.0062
8
0
0
VERTEX
10
681.802
20
374.834
30
33.465
8
0
0
VERTEX
10
681.637
20
377.467
30
35.9235
8
0
0
VERTEX
10
681.797
20
379.024
30
37.5219
8
0
0
VERTEX
10
681.953
20
380.581
30
39.1168
8
0
0
VERTEX
10
682.113
20
382.14
30
40.7202
8
0
0
VERTEX
10
682.27
20
383.698
30
42.3175
8
0
0
VERTEX
10
681.475
20
384.292
30
42.4408
8
0
0
VERTEX
10
681.638
20
385.849
30
44.0385
8
0
0
VERTEX
10
680.994
20
388.005
30
45.7597
8
0
0
VERTEX
10
681.154
20
389.556
30
47.3594
8
0
0
VERTEX
10
680.992
20
392.191
30
49.814
8
0
0
VERTEX
10
680.671
20
393.262
30
50.6779
8
0
0
VERTEX
10
680.35
20
394.339
30
51.5363
8
0
0
VERTEX
10
680.513
20
395.903
30
53.1362
8
0
0
VERTEX
10
679.399
20
397.568
30
54.1201
8
0
0
VERTEX
10
679.874
20
398.048
30
54.8594
8
0
0
VERTEX
10
678.914
20
401.275
30
57.4403
8
0
0
VERTEX
10
678.595
20
402.355
30
58.3032
8
0
0
VERTEX
10
679.073
20
402.831
30
59.0416
8
0
0
VERTEX
10
678.754
20
403.91
30
59.9002
8
0
0
VERTEX
10
678.116
20
406.058
30
61.6204
8
0
0
VERTEX
10
677.634
20
409.766
30
64.9408
8
0
0
VERTEX
10
677.315
20
410.843
30
65.8066
8
0
0
VERTEX
10
677.315
20
410.843
30
65.8066
8
0
0
VERTEX
10
677.315
20
410.843
30
65.8066
8
0
0
VERTEX
10
677.793
20
411.329
30
66.5422
8
0
0
VERTEX
10
677.793
20
411.329
30
66.5422
8
0
0
VERTEX
10
677.001
20
411.922
30
66.6628
8
0
0
VERTEX
10
677.001
20
411.922
30
66.6628
8
0
0
SEQEND
0
POLYLINE
8
1
62
252
66
1
40
1
41
1
70
8
0
VERTEX
10
695.493
20
205.538
30
-122.792
8
0
0
VERTEX
10
696.286
20
204.939
30
-122.919
8
0
0
VERTEX
10
697.399
20
203.269
30
-123.905
8
0
0
VERTEX
10
698.511
20
201.6
30
-124.889
8
0
0
VERTEX
10
698.831
20
200.524
30
-125.751
8
0
0
VERTEX
10
699.627
20
199.929
30
-125.876
8
0
0
VERTEX
10
699.945
20
198.854
30
-126.738
8
0
0
VERTEX
10
700.265
20
197.775
30
-127.597
8
0
0
VERTEX
10
701.377
20
196.107
30
-128.582
8
0
0
VERTEX
10
702.172
20
195.512
30
-128.707
8
0
0
VERTEX
10
702.493
20
194.437
30
-129.568
8
0
0
VERTEX
10
703.282
20
193.84
30
-129.693
8
0
0
VERTEX
10
702.811
20
193.36
30
-130.426
8
0
0
VERTEX
10
703.603
20
192.765
30
-130.553
8
0
0
VERTEX
10
704.718
20
191.098
30
-131.538
8
0
0
VERTEX
10
705.828
20
189.425
30
-132.526
8
0
0
VERTEX
10
706.622
20
188.829
30
-132.65
8
0
0
VERTEX
10
706.943
20
187.754
30
-133.511
8
0
0
VERTEX
10
708.05
20
186.081
30
-134.499
8
0
0
VERTEX
10
708.849
20
185.49
30
-134.621
8
0
0
VERTEX
10
709.963
20
183.82
30
-135.606
8
0
0
VERTEX
10
710.28
20
182.743
30
-136.47
8
0
0
VERTEX
10
712.187
20
180.477
30
-137.58
8
0
0
VERTEX
10
713.301
20
178.808
30
-138.562
8
0
0
VERTEX
10
715.211
20
176.541
30
-139.673
8
0
0
VERTEX
10
716.322
20
174.874
30
-140.661
8
0
0
VERTEX
10
717.117
20
174.274
30
-140.781
8
0
0
VERTEX
10
717.117
20
174.274
30
-140.781
8
0
0
VERTEX
10
718.227
20
172.604
30
-141.77
8
0
0
VERTEX
10
719.34
20
170.934
30
-142.756
8
0
0
VERTEX
10
720.774
20
168.187
30
-144.601
8
0
0
VERTEX
10
721.093
20
167.111
30
-145.463
8
0
0
VERTEX
10
721.886
20
166.517
30
-145.585
8
0
0
VERTEX
10
722.204
20
165.441
30
-146.445
8
0
0
VERTEX
10
723.32
20
163.77
30
-147.434
8
0
0
VERTEX
10
723.953
20
161.618
30
-149.154
8
0
0
VERTEX
10
725.07
20
159.949
30
-150.142
8
0
0
VERTEX
10
725.386
20
158.872
30
-151.002
8
0
0
VERTEX
10
724.913
20
158.392
30
-151.739
8
0
0
VERTEX
10
726.026
20
156.721
30
-152.723
8
0
0
VERTEX
10
727.932
20
154.457
30
-153.832
8
0
0
VERTEX
10
728.567
20
152.305
30
-155.555
8
0
0
VERTEX
10
728.885
20
151.229
30
-156.414
8
0
0
VERTEX
10
729.523
20
149.077
30
-158.139
8
0
0
VERTEX
10
730.638
20
147.41
30
-159.126
8
0
0
VERTEX
10
731.749
20
145.737
30
-160.11
8
0
0
VERTEX
10
733.182
20
142.991
30
-161.96
8
0
0
VERTEX
10
734.617
20
140.246
30
-163.806
8
0
0
VERTEX
10
735.247
20
138.092
30
-165.525
8
0
0
VERTEX
10
736.362
20
136.421
30
-166.509
8
0
0
VERTEX
10
737
20
134.271
30
-168.232
8
0
0
VERTEX
10
737.323
20
133.195
30
-169.093
8
0
0
VERTEX
10
738.912
20
132.003
30
-169.342
8
0
0
VERTEX
10
739.228
20
130.928
30
-170.203
8
0
0
VERTEX
10
740.66
20
128.182
30
-172.048
8
0
0
VERTEX
10
742.25
20
126.995
30
-172.299
8
0
0
VERTEX
10
743.683
20
124.247
30
-174.146
8
0
0
VERTEX
10
745.268
20
123.058
30
-174.397
8
0
0
VERTEX
10
745.595
20
121.986
30
-175.253
8
0
0
VERTEX
10
747.022
20
119.233
30
-177.103
8
0
0
VERTEX
10
748.131
20
117.565
30
-178.086
8
0
0
VERTEX
10
749.249
20
115.896
30
-179.075
8
0
0
VERTEX
10
749.884
20
113.743
30
-180.794
8
0
0
VERTEX
10
751.79
20
111.475
30
-181.905
8
0
0
VERTEX
10
752.109
20
110.4
30
-182.766
8
0
0
VERTEX
10
753.218
20
108.73
30
-183.75
8
0
0
VERTEX
10
753.861
20
106.581
30
-185.475
8
0
0
VERTEX
10
754.97
20
104.906
30
-186.46
8
0
0
VERTEX
10
756.088
20
103.236
30
-187.446
8
0
0
VERTEX
10
757.201
20
101.567
30
-188.427
8
0
0
VERTEX
10
758.63
20
98.8209
30
-190.276
8
0
0
VERTEX
10
760.06
20
96.0726
30
-192.125
8
0
0
VERTEX
10
761.175
20
94.404
30
-193.109
8
0
0
VERTEX
10
761.175
20
94.404
30
-193.109
8
0
0
VERTEX
10
762.288
20
92.7333
30
-194.096
8
0
0
VERTEX
10
762.926
20
90.5815
30
-195.817
8
0
0
VERTEX
10
764.036
20
88.9094
30
-196.801
8
0
0
VERTEX
10
765.146
20
87.2399
30
-197.788
8
0
0
VERTEX
10
765.943
20
86.6445
30
-197.914
8
0
0
VERTEX
10
766.737
20
86.0495
30
-198.037
8
0
0
VERTEX
10
767.851
20
84.3789
30
-199.025
8
0
0
VERTEX
10
768.488
20
82.2279
30
-200.742
8
0
0
VERTEX
10
769.601
20
80.5554
30
-201.73
8
0
0
VERTEX
10
770.397
20
79.9644
30
-201.858
8
0
0
VERTEX
10
771.19
20
79.3696
30
-201.978
8
0
0
VERTEX
10
771.19
20
79.3696
30
-201.978
8
0
0
VERTEX
10
771.19
20
79.3696
30
-201.978
8
0
0
VERTEX
10
770.716
20
78.885
30
-202.716
8
0
0
VERTEX
10
770.716
20
78.885
30
-202.716
8
0
0
VERTEX
10
772.303
20
77.6998
30
-202.964
8
0
0
VERTEX
10
772.621
20
76.6225
30
-203.825
8
0
0
VERTEX
10
772.621
20
76.6225
30
-203.825
8
0
0
VERTEX
10
773.415
20
76.0268
30
-203.95
8
0
0
VERTEX
10
773.736
20
74.9509
30
-204.813
8
0
0
VERTEX
10
773.736
20
74.9509
30
-204.813
8
0
0
VERTEX
10
773.736
20
74.9509
30
-204.813
8
0
0
VERTEX
10
773.736
20
74.9509
30
-204.813
8
0
0
SEQEND
0
POLYLINE
8
1
62
252
66
1
40
1
41
1
70
8
0
VERTEX
10
772.458
20
79.2536
30
-201.369
8
0
0
VERTEX
10
772.936
20
79.7354
30
-200.633
8
0
0
VERTEX
10
772.936
20
79.7354
30
-200.633
8
0
0
VERTEX
10
773.413
20
80.2169
30
-199.891
8
0
0
VERTEX
10
773.413
20
80.2169
30
-199.891
8
0
0
VERTEX
10
773.413
20
80.2169
30
-199.891
8
0
0
VERTEX
10
773.413
20
80.2169
30
-199.891
8
0
0
VERTEX
10
773.413
20
80.2169
30
-199.891
8
0
0
VERTEX
10
772.936
20
79.7354
30
-200.633
8
0
0
VERTEX
10
772.779
20
78.178
30
-202.227
8
0
0
VERTEX
10
773.415
20
76.0268
30
-203.95
8
0
0
VERTEX
10
773.26
20
74.4696
30
-205.548
8
0
0
VERTEX
10
773.578
20
73.3957
30
-206.408
8
0
0
VERTEX
10
772.946
20
71.3582
30
-208.744
8
0
0
VERTEX
10
773.264
20
70.2817
30
-209.604
8
0
0
VERTEX
10
773.582
20
69.2029
30
-210.466
8
0
0
VERTEX
10
773.108
20
68.7233
30
-211.202
8
0
0
VERTEX
10
773.746
20
66.5737
30
-212.925
8
0
0
VERTEX
10
773.587
20
65.0154
30
-214.522
8
0
0
VERTEX
10
773.904
20
63.9375
30
-215.384
8
0
0
VERTEX
10
774.066
20
61.3066
30
-217.841
8
0
0
VERTEX
10
773.91
20
59.7498
30
-219.438
8
0
0
VERTEX
10
774.551
20
57.598
30
-221.16
8
0
0
VERTEX
10
775.186
20
55.4514
30
-222.883
8
0
0
VERTEX
10
774.71
20
54.967
30
-223.619
8
0
0
VERTEX
10
775.35
20
52.8172
30
-225.343
8
0
0
VERTEX
10
775.033
20
49.702
30
-228.539
8
0
0
VERTEX
10
775.671
20
47.5497
30
-230.26
8
0
0
VERTEX
10
775.043
20
45.5148
30
-232.594
8
0
0
VERTEX
10
774.561
20
45.0313
30
-233.331
8
0
0
VERTEX
10
775.675
20
43.3601
30
-234.317
8
0
0
VERTEX
10
775.202
20
42.88
30
-235.055
8
0
0
VERTEX
10
775.518
20
41.8033
30
-235.912
8
0
0
VERTEX
10
776.157
20
39.6529
30
-237.638
8
0
0
VERTEX
10
775.68
20
39.1719
30
-238.372
8
0
0
VERTEX
10
776.001
20
38.093
30
-239.23
8
0
0
VERTEX
10
775.05
20
37.135
30
-240.707
8
0
0
VERTEX
10
774.893
20
35.5786
30
-242.302
8
0
0
VERTEX
10
775.687
20
34.9829
30
-242.432
8
0
0
VERTEX
10
775.209
20
34.5009
30
-243.169
8
0
0
VERTEX
10
774.735
20
34.0202
30
-243.904
8
0
0
VERTEX
10
774.735
20
34.0202
30
-243.904
8
0
0
VERTEX
10
774.735
20
34.0202
30
-243.904
8
0
0
VERTEX
10
774.735
20
34.0202
30
-243.904
8
0
0
VERTEX
10
774.735
20
34.0202
30
-243.904
8
0
0
SEQEND
0
POLYLINE
8
1
62
252
66
1
40
1
41
1
70
8
0
VERTEX
10
776.009
20
33.9074
30
-243.29
8
0
0
VERTEX
10
774.735
20
34.0202
30
-243.904
8
0
0
VERTEX
10
773.465
20
34.1337
30
-244.516
8
0
0
VERTEX
10
772.199
20
34.2488
30
-245.124
8
0
0
VERTEX
10
770.608
20
35.438
30
-244.877
8
0
0
VERTEX
10
768.863
20
35.0691
30
-246.227
8
0
0
VERTEX
10
766.323
20
35.2986
30
-247.446
8
0
0
VERTEX
10
764.256
20
36.0062
30
-247.939
8
0
0
VERTEX
10
762.193
20
36.714
30
-248.428
8
0
0
VERTEX
10
760.925
20
36.8283
30
-249.038
8
0
0
VERTEX
10
758.063
20
38.134
30
-249.403
8
0
0
VERTEX
10
756.792
20
38.2443
30
-250.013
8
0
0
VERTEX
10
755.207
20
39.4362
30
-249.763
8
0
0
VERTEX
10
752.347
20
40.7384
30
-250.127
8
0
0
VERTEX
10
750.286
20
41.4495
30
-250.617
8
0
0
VERTEX
10
746.952
20
42.2713
30
-251.714
8
0
0
VERTEX
10
744.093
20
43.5723
30
-252.077
8
0
0
VERTEX
10
742.823
20
43.6866
30
-252.694
8
0
0
VERTEX
10
740.756
20
44.3943
30
-253.179
8
0
0
VERTEX
10
738.693
20
45.1041
30
-253.666
8
0
0
VERTEX
10
736.632
20
45.8157
30
-254.152
8
0
0
VERTEX
10
734.567
20
46.5227
30
-254.64
8
0
0
VERTEX
10
732.975
20
47.7127
30
-254.391
8
0
0
VERTEX
10
730.914
20
48.4223
30
-254.879
8
0
0
VERTEX
10
728.851
20
49.1294
30
-255.369
8
0
0
VERTEX
10
726.311
20
49.3581
30
-256.591
8
0
0
VERTEX
10
723.448
20
50.6589
30
-256.955
8
0
0
VERTEX
10
720.114
20
51.4832
30
-258.058
8
0
0
VERTEX
10
718.055
20
52.193
30
-258.543
8
0
0
VERTEX
10
715.99
20
52.9022
30
-259.03
8
0
0
VERTEX
10
714.722
20
53.0145
30
-259.644
8
0
0
VERTEX
10
712.656
20
53.7231
30
-260.133
8
0
0
VERTEX
10
711.387
20
53.8373
30
-260.743
8
0
0
VERTEX
10
709.323
20
54.547
30
-261.231
8
0
0
VERTEX
10
708.05
20
54.6582
30
-261.842
8
0
0
VERTEX
10
708.05
20
54.6582
30
-261.842
8
0
0
VERTEX
10
708.05
20
54.6582
30
-261.842
8
0
0
VERTEX
10
707.893
20
53.1023
30
-263.442
8
0
0
SEQEND
0
POLYLINE
8
1
62
252
66
1
40
1
41
1
70
8
0
VERTEX
10
715.995
20
48.7131
30
-263.089
8
0
0
VERTEX
10
715.995
20
48.7131
30
-263.089
8
0
0
VERTEX
10
715.995
20
48.7131
30
-263.089
8
0
0
VERTEX
10
715.2
20
49.3069
30
-262.964
8
0
0
VERTEX
10
714.883
20
50.3828
30
-262.101
8
0
0
VERTEX
10
713.297
20
51.5714
30
-261.855
8
0
0
VERTEX
10
712.181
20
53.243
30
-260.867
8
0
0
VERTEX
10
711.865
20
54.321
30
-260.007
8
0
0
VERTEX
10
711.067
20
54.9114
30
-259.883
8
0
0
VERTEX
10
709.954
20
56.5837
30
-258.896
8
0
0
VERTEX
10
708.838
20
58.2517
30
-257.909
8
0
0
VERTEX
10
707.725
20
59.9233
30
-256.927
8
0
0
VERTEX
10
707.725
20
59.9233
30
-256.927
8
0
0
VERTEX
10
706.934
20
60.5203
30
-256.803
8
0
0
VERTEX
10
705.82
20
62.1873
30
-255.818
8
0
0
VERTEX
10
705.502
20
63.2661
30
-254.954
8
0
0
VERTEX
10
703.597
20
65.5308
30
-253.846
8
0
0
VERTEX
10
702.483
20
67.1997
30
-252.859
8
0
0
VERTEX
10
702.166
20
68.277
30
-251.994
8
0
0
VERTEX
10
701.37
20
68.8713
30
-251.872
8
0
0
VERTEX
10
700.254
20
70.5401
30
-250.889
8
0
0
VERTEX
10
699.145
20
72.211
30
-249.904
8
0
0
VERTEX
10
697.553
20
73.4021
30
-249.656
8
0
0
VERTEX
10
696.44
20
75.0705
30
-248.67
8
0
0
VERTEX
10
695.33
20
76.7458
30
-247.684
8
0
0
VERTEX
10
695.805
20
77.2266
30
-246.947
8
0
0
VERTEX
10
694.216
20
78.416
30
-246.698
8
0
0
VERTEX
10
693.099
20
80.0829
30
-245.713
8
0
0
VERTEX
10
691.671
20
82.8307
30
-243.868
8
0
0
VERTEX
10
691.352
20
83.9073
30
-243.004
8
0
0
VERTEX
10
690.241
20
85.5776
30
-242.02
8
0
0
VERTEX
10
688.803
20
88.3216
30
-240.172
8
0
0
VERTEX
10
687.218
20
89.5134
30
-239.925
8
0
0
VERTEX
10
686.898
20
90.5879
30
-239.059
8
0
0
VERTEX
10
685.784
20
92.2594
30
-238.077
8
0
0
VERTEX
10
685.147
20
94.4108
30
-236.354
8
0
0
VERTEX
10
684.033
20
96.0815
30
-235.37
8
0
0
VERTEX
10
682.923
20
97.7517
30
-234.386
8
0
0
VERTEX
10
682.443
20
101.46
30
-231.061
8
0
0
VERTEX
10
681.809
20
103.613
30
-229.344
8
0
0
VERTEX
10
680.693
20
105.284
30
-228.354
8
0
0
VERTEX
10
680.054
20
107.434
30
-226.634
8
0
0
VERTEX
10
679.738
20
108.51
30
-225.772
8
0
0
VERTEX
10
678.306
20
111.254
30
-223.924
8
0
0
VERTEX
10
677.986
20
112.333
30
-223.063
8
0
0
VERTEX
10
677.668
20
113.408
30
-222.202
8
0
0
VERTEX
10
676.555
20
115.077
30
-221.215
8
0
0
VERTEX
10
675.917
20
117.231
30
-219.496
8
0
0
VERTEX
10
675.282
20
119.381
30
-217.772
8
0
0
VERTEX
10
674.167
20
121.052
30
-216.788
8
0
0
VERTEX
10
673.531
20
123.204
30
-215.065
8
0
0
VERTEX
10
672.101
20
125.95
30
-213.22
8
0
0
VERTEX
10
671.778
20
127.024
30
-212.359
8
0
0
VERTEX
10
671.46
20
128.1
30
-211.498
8
0
0
VERTEX
10
669.712
20
131.926
30
-208.787
8
0
0
VERTEX
10
668.601
20
133.595
30
-207.802
8
0
0
VERTEX
10
667.964
20
135.748
30
-206.084
8
0
0
VERTEX
10
666.527
20
138.493
30
-204.237
8
0
0
VERTEX
10
664.621
20
140.759
30
-203.124
8
0
0
VERTEX
10
664.301
20
141.834
30
-202.267
8
0
0
VERTEX
10
663.664
20
143.987
30
-200.542
8
0
0
VERTEX
10
663.348
20
145.062
30
-199.686
8
0
0
VERTEX
10
661.913
20
147.809
30
-197.835
8
0
0
VERTEX
10
661.12
20
148.403
30
-197.712
8
0
0
VERTEX
10
660.006
20
150.072
30
-196.724
8
0
0
VERTEX
10
658.895
20
151.745
30
-195.74
8
0
0
VERTEX
10
657.464
20
154.49
30
-193.894
8
0
0
VERTEX
10
657.143
20
155.565
30
-193.033
8
0
0
VERTEX
10
656.346
20
156.158
30
-192.908
8
0
0
VERTEX
10
656.346
20
156.158
30
-192.908
8
0
0
VERTEX
10
656.346
20
156.158
30
-192.908
8
0
0
VERTEX
10
655.553
20
156.753
30
-192.781
8
0
0
VERTEX
10
656.031
20
157.236
30
-192.044
8
0
0
VERTEX
10
656.031
20
157.236
30
-192.044
8
0
0
VERTEX
10
656.031
20
157.236
30
-192.044
8
0
0
VERTEX
10
656.031
20
157.236
30
-192.044
8
0
0
VERTEX
10
656.031
20
157.236
30
-192.044
8
0
0
VERTEX
10
656.031
20
157.236
30
-192.044
8
0
0
SEQEND
0
POLYLINE
8
1
62
252
66
1
40
1
41
1
70
8
0
VERTEX
10
652.695
20
158.059
30
-193.147
8
0
0
VERTEX
10
653.169
20
158.538
30
-192.409
8
0
0
VERTEX
10
653.169
20
158.538
30
-192.409
8
0
0
VERTEX
10
653.169
20
158.538
30
-192.409
8
0
0
VERTEX
10
653.649
20
159.02
30
-191.672
8
0
0
VERTEX
10
653.649
20
159.02
30
-191.672
8
0
0
VERTEX
10
653.649
20
159.02
30
-191.672
8
0
0
VERTEX
10
653.649
20
159.02
30
-191.672
8
0
0
VERTEX
10
653.649
20
159.02
30
-191.672
8
0
0
VERTEX
10
653.649
20
159.02
30
-191.672
8
0
0
VERTEX
10
651.585
20
159.73
30
-192.161
8
0
0
VERTEX
10
649.994
20
160.918
30
-191.909
8
0
0
VERTEX
10
648.408
20
162.107
30
-191.664
8
0
0
VERTEX
10
646.819
20
163.299
30
-191.416
8
0
0
VERTEX
10
644.756
20
164.007
30
-191.899
8
0
0
VERTEX
10
642.691
20
164.712
30
-192.392
8
0
0
VERTEX
10
641.897
20
165.309
30
-192.263
8
0
0
VERTEX
10
640.628
20
165.425
30
-192.877
8
0
0
VERTEX
10
639.833
20
166.016
30
-192.755
8
0
0
VERTEX
10
638.566
20
166.135
30
-193.362
8
0
0
VERTEX
10
637.769
20
166.73
30
-193.239
8
0
0
VERTEX
10
637.293
20
166.247
30
-193.979
8
0
0
VERTEX
10
636.022
20
166.359
30
-194.589
8
0
0
VERTEX
10
634.75
20
166.473
30
-195.204
8
0
0
VERTEX
10
632.688
20
167.184
30
-195.688
8
0
0
VERTEX
10
630.623
20
167.893
30
-196.176
8
0
0
VERTEX
10
629.354
20
168.006
30
-196.79
8
0
0
VERTEX
10
628.559
20
168.599
30
-196.664
8
0
0
VERTEX
10
627.289
20
168.714
30
-197.276
8
0
0
VERTEX
10
626.021
20
168.827
30
-197.887
8
0
0
VERTEX
10
623.483
20
169.056
30
-199.113
8
0
0
VERTEX
10
621.894
20
170.243
30
-198.868
8
0
0
VERTEX
10
619.352
20
170.474
30
-200.088
8
0
0
VERTEX
10
618.084
20
170.589
30
-200.701
8
0
0
VERTEX
10
616.815
20
170.702
30
-201.314
8
0
0
VERTEX
10
615.542
20
170.818
30
-201.926
8
0
0
VERTEX
10
614.75
20
171.411
30
-201.801
8
0
0
VERTEX
10
612.213
20
171.642
30
-203.023
8
0
0
VERTEX
10
610.941
20
171.752
30
-203.636
8
0
0
VERTEX
10
608.875
20
172.458
30
-204.124
8
0
0
VERTEX
10
607.604
20
172.573
30
-204.738
8
0
0
VERTEX
10
606.337
20
172.687
30
-205.348
8
0
0
VERTEX
10
605.068
20
172.801
30
-205.962
8
0
0
VERTEX
10
603.003
20
173.509
30
-206.448
8
0
0
VERTEX
10
601.734
20
173.625
30
-207.061
8
0
0
VERTEX
10
600.465
20
173.738
30
-207.676
8
0
0
VERTEX
10
599.668
20
174.331
30
-207.55
8
0
0
VERTEX
10
597.132
20
174.56
30
-208.775
8
0
0
VERTEX
10
595.541
20
175.75
30
-208.526
8
0
0
VERTEX
10
593.002
20
175.976
30
-209.75
8
0
0
VERTEX
10
591.732
20
176.091
30
-210.362
8
0
0
VERTEX
10
590.141
20
177.279
30
-210.115
8
0
0
VERTEX
10
588.876
20
177.393
30
-210.723
8
0
0
VERTEX
10
587.605
20
177.509
30
-211.336
8
0
0
VERTEX
10
585.542
20
178.216
30
-211.823
8
0
0
VERTEX
10
584.747
20
178.81
30
-211.701
8
0
0
VERTEX
10
581.412
20
179.634
30
-212.801
8
0
0
VERTEX
10
579.349
20
180.343
30
-213.287
8
0
0
VERTEX
10
576.488
20
181.644
30
-213.65
8
0
0
VERTEX
10
575.219
20
181.759
30
-214.264
8
0
0
VERTEX
10
575.219
20
181.759
30
-214.264
8
0
0
VERTEX
10
573.154
20
182.468
30
-214.751
8
0
0
VERTEX
10
571.091
20
183.176
30
-215.241
8
0
0
VERTEX
10
569.823
20
183.291
30
-215.851
8
0
0
VERTEX
10
566.959
20
184.592
30
-216.214
8
0
0
VERTEX
10
564.9
20
185.303
30
-216.702
8
0
0
VERTEX
10
562.833
20
186.013
30
-217.188
8
0
0
VERTEX
10
560.771
20
186.721
30
-217.677
8
0
0
VERTEX
10
558.236
20
186.947
30
-218.901
8
0
0
VERTEX
10
555.372
20
188.251
30
-219.266
8
0
0
VERTEX
10
553.312
20
188.959
30
-219.751
8
0
0
VERTEX
10
550.452
20
190.264
30
-220.116
8
0
0
VERTEX
10
547.117
20
191.082
30
-221.216
8
0
0
VERTEX
10
545.054
20
191.793
30
-221.705
8
0
0
VERTEX
10
542.99
20
192.503
30
-222.191
8
0
0
VERTEX
10
540.923
20
193.213
30
-222.68
8
0
0
VERTEX
10
537.588
20
194.032
30
-223.78
8
0
0
VERTEX
10
535.528
20
194.743
30
-224.266
8
0
0
VERTEX
10
534.735
20
195.339
30
-224.142
8
0
0
VERTEX
10
533.458
20
195.452
30
-224.758
8
0
0
VERTEX
10
531.396
20
196.16
30
-225.243
8
0
0
VERTEX
10
528.061
20
196.981
30
-226.343
8
0
0
VERTEX
10
525.998
20
197.689
30
-226.831
8
0
0
VERTEX
10
524.73
20
197.803
30
-227.443
8
0
0
VERTEX
10
521.394
20
198.624
30
-228.545
8
0
0
VERTEX
10
519.808
20
199.816
30
-228.292
8
0
0
VERTEX
10
517.267
20
200.041
30
-229.516
8
0
0
VERTEX
10
515.204
20
200.748
30
-230.007
8
0
0
VERTEX
10
513.935
20
200.866
30
-230.621
8
0
0
VERTEX
10
511.075
20
202.167
30
-230.982
8
0
0
VERTEX
10
509.805
20
202.286
30
-231.594
8
0
0
VERTEX
10
507.267
20
202.51
30
-232.818
8
0
0
VERTEX
10
505.203
20
203.22
30
-233.304
8
0
0
VERTEX
10
503.934
20
203.334
30
-233.917
8
0
0
VERTEX
10
502.663
20
203.447
30
-234.526
8
0
0
VERTEX
10
501.393
20
203.562
30
-235.142
8
0
0
VERTEX
10
500.121
20
203.673
30
-235.753
8
0
0
VERTEX
10
498.853
20
203.788
30
-236.363
8
0
0
VERTEX
10
496.788
20
204.496
30
-236.852
8
0
0
VERTEX
10
494.726
20
205.205
30
-237.34
8
0
0
VERTEX
10
493.453
20
205.318
30
-237.953
8
0
0
VERTEX
10
491.392
20
206.027
30
-238.442
8
0
0
VERTEX
10
488.85
20
206.256
30
-239.667
8
0
0
VERTEX
10
486.312
20
206.483
30
-240.889
8
0
0
VERTEX
10
484.246
20
207.189
30
-241.377
8
0
0
VERTEX
10
482.974
20
207.305
30
-241.988
8
0
0
VERTEX
10
481.706
20
207.419
30
-242.604
8
0
0
VERTEX
10
480.436
20
207.531
30
-243.217
8
0
0
VERTEX
10
478.366
20
208.241
30
-243.706
8
0
0
VERTEX
10
477.103
20
208.352
30
-244.315
8
0
0
VERTEX
10
476.307
20
208.949
30
-244.189
8
0
0
VERTEX
10
476.307
20
208.949
30
-244.189
8
0
0
VERTEX
10
474.246
20
209.656
30
-244.68
8
0
0
VERTEX
10
472.972
20
209.772
30
-245.29
8
0
0
VERTEX
10
472.972
20
209.772
30
-245.29
8
0
0
VERTEX
10
471.705
20
209.884
30
-245.903
8
0
0
VERTEX
10
470.907
20
210.477
30
-245.78
8
0
0
VERTEX
10
470.907
20
210.477
30
-245.78
8
0
0
VERTEX
10
470.907
20
210.477
30
-245.78
8
0
0
VERTEX
10
470.907
20
210.477
30
-245.78
8
0
0
VERTEX
10
470.907
20
210.477
30
-245.78
8
0
0
SEQEND
0
POLYLINE
8
1
62
252
66
1
40
1
41
1
70
8
0
VERTEX
10
474.407
20
207.024
30
-247.137
8
0
0
VERTEX
10
473.77
20
209.174
30
-245.417
8
0
0
VERTEX
10
473.77
20
209.174
30
-245.417
8
0
0
VERTEX
10
472.653
20
210.849
30
-244.433
8
0
0
VERTEX
10
471.541
20
212.518
30
-243.445
8
0
0
VERTEX
10
471.22
20
213.596
30
-242.586
8
0
0
VERTEX
10
470.901
20
214.67
30
-241.724
8
0
0
VERTEX
10
469.791
20
216.341
30
-240.736
8
0
0
VERTEX
10
468.678
20
218.011
30
-239.751
8
0
0
VERTEX
10
466.451
20
221.355
30
-237.781
8
0
0
VERTEX
10
465.343
20
223.023
30
-236.792
8
0
0
VERTEX
10
464.547
20
223.615
30
-236.668
8
0
0
VERTEX
10
464.227
20
224.695
30
-235.81
8
0
0
VERTEX
10
462.792
20
227.441
30
-233.961
8
0
0
VERTEX
10
462.792
20
227.441
30
-233.961
8
0
0
VERTEX
10
462
20
228.033
30
-233.838
8
0
0
VERTEX
10
460.887
20
229.706
30
-232.851
8
0
0
VERTEX
10
459.774
20
231.376
30
-231.866
8
0
0
VERTEX
10
458.662
20
233.049
30
-230.878
8
0
0
VERTEX
10
457.547
20
234.718
30
-229.896
8
0
0
VERTEX
10
457.547
20
234.718
30
-229.896
8
0
0
VERTEX
10
456.436
20
236.388
30
-228.908
8
0
0
VERTEX
10
455.797
20
238.537
30
-227.188
8
0
0
VERTEX
10
453.893
20
240.806
30
-226.075
8
0
0
VERTEX
10
453.574
20
241.881
30
-225.217
8
0
0
VERTEX
10
452.46
20
243.549
30
-224.231
8
0
0
VERTEX
10
451.03
20
246.296
30
-222.384
8
0
0
VERTEX
10
450.074
20
249.526
30
-219.807
8
0
0
VERTEX
10
448.954
20
251.198
30
-218.819
8
0
0
VERTEX
10
448.954
20
251.198
30
-218.819
8
0
0
VERTEX
10
448.321
20
253.347
30
-217.096
8
0
0
VERTEX
10
446.414
20
255.613
30
-215.981
8
0
0
VERTEX
10
446.094
20
256.685
30
-215.126
8
0
0
VERTEX
10
444.983
20
258.358
30
-214.137
8
0
0
VERTEX
10
444.346
20
260.509
30
-212.417
8
0
0
VERTEX
10
443.232
20
262.182
30
-211.43
8
0
0
VERTEX
10
442.117
20
263.849
30
-210.446
8
0
0
VERTEX
10
441.801
20
264.928
30
-209.586
8
0
0
VERTEX
10
440.213
20
266.117
30
-209.337
8
0
0
VERTEX
10
438.781
20
268.865
30
-207.488
8
0
0
VERTEX
10
437.668
20
270.532
30
-206.504
8
0
0
VERTEX
10
436.557
20
272.204
30
-205.517
8
0
0
VERTEX
10
434.646
20
274.469
30
-204.407
8
0
0
VERTEX
10
433.535
20
276.141
30
-203.42
8
0
0
VERTEX
10
433.213
20
277.218
30
-202.559
8
0
0
VERTEX
10
431.783
20
279.964
30
-200.714
8
0
0
VERTEX
10
430.669
20
281.635
30
-199.731
8
0
0
VERTEX
10
429.56
20
283.303
30
-198.739
8
0
0
VERTEX
10
428.445
20
284.975
30
-197.758
8
0
0
VERTEX
10
427.331
20
286.641
30
-196.772
8
0
0
VERTEX
10
425.745
20
287.837
30
-196.522
8
0
0
VERTEX
10
424.785
20
291.062
30
-193.939
8
0
0
VERTEX
10
422.083
20
293.921
30
-192.706
8
0
0
VERTEX
10
421.765
20
294.999
30
-191.841
8
0
0
VERTEX
10
420.651
20
296.664
30
-190.856
8
0
0
VERTEX
10
419.222
20
299.411
30
-189.012
8
0
0
VERTEX
10
418.109
20
301.084
30
-188.026
8
0
0
VERTEX
10
418.265
20
302.641
30
-186.426
8
0
0
VERTEX
10
417.155
20
304.315
30
-185.442
8
0
0
VERTEX
10
415.247
20
306.577
30
-184.334
8
0
0
VERTEX
10
414.929
20
307.654
30
-183.472
8
0
0
VERTEX
10
414.289
20
309.802
30
-181.753
8
0
0
VERTEX
10
413.178
20
311.476
30
-180.764
8
0
0
VERTEX
10
413.178
20
311.476
30
-180.764
8
0
0
VERTEX
10
412.219
20
314.705
30
-178.181
8
0
0
VERTEX
10
411.105
20
316.375
30
-177.195
8
0
0
VERTEX
10
409.994
20
318.042
30
-176.209
8
0
0
VERTEX
10
409.994
20
318.042
30
-176.209
8
0
0
VERTEX
10
408.241
20
321.868
30
-173.504
8
0
0
VERTEX
10
407.606
20
324.02
30
-171.781
8
0
0
VERTEX
10
406.812
20
324.614
30
-171.655
8
0
0
VERTEX
10
405.697
20
326.286
30
-170.672
8
0
0
VERTEX
10
405.538
20
328.917
30
-168.21
8
0
0
VERTEX
10
404.423
20
330.588
30
-167.227
8
0
0
VERTEX
10
404.423
20
330.588
30
-167.227
8
0
0
VERTEX
10
403.786
20
332.739
30
-165.504
8
0
0
VERTEX
10
403.462
20
333.819
30
-164.644
8
0
0
VERTEX
10
402.833
20
335.971
30
-162.919
8
0
0
VERTEX
10
402.516
20
337.044
30
-162.059
8
0
0
VERTEX
10
401.078
20
339.788
30
-160.216
8
0
0
VERTEX
10
400.438
20
341.94
30
-158.492
8
0
0
VERTEX
10
400.438
20
341.94
30
-158.492
8
0
0
VERTEX
10
400.125
20
343.017
30
-157.63
8
0
0
VERTEX
10
399.329
20
343.609
30
-157.506
8
0
0
VERTEX
10
399.329
20
343.609
30
-157.506
8
0
0
VERTEX
10
399.329
20
343.609
30
-157.506
8
0
0
VERTEX
10
399.011
20
344.686
30
-156.642
8
0
0
VERTEX
10
399.011
20
344.686
30
-156.642
8
0
0
VERTEX
10
398.216
20
345.28
30
-156.519
8
0
0
VERTEX
10
397.9
20
346.36
30
-155.657
8
0
0
VERTEX
10
397.582
20
347.434
30
-154.796
8
0
0
VERTEX
10
396.786
20
348.028
30
-154.673
8
0
0
VERTEX
10
395.674
20
349.696
30
-153.688
8
0
0
VERTEX
10
396.148
20
350.178
30
-152.952
8
0
0
VERTEX
10
396.148
20
350.178
30
-152.952
8
0
0
VERTEX
10
395.355
20
350.776
30
-152.826
8
0
0
VERTEX
10
395.355
20
350.776
30
-152.826
8
0
0
VERTEX
10
395.355
20
350.776
30
-152.826
8
0
0
VERTEX
10
395.355
20
350.776
30
-152.826
8
0
0
VERTEX
10
395.355
20
350.776
30
-152.826
8
0
0
SEQEND
0
POLYLINE
8
1
62
252
66
1
40
1
41
1
70
8
0
VERTEX
10
392.972
20
352.558
30
-152.456
8
0
0
VERTEX
10
392.18
20
353.153
30
-152.329
8
0
0
VERTEX
10
390.913
20
353.265
30
-152.937
8
0
0
VERTEX
10
390.113
20
353.86
30
-152.817
8
0
0
VERTEX
10
388.845
20
353.974
30
-153.428
8
0
0
VERTEX
10
387.572
20
354.089
30
-154.042
8
0
0
VERTEX
10
386.302
20
354.203
30
-154.651
8
0
0
VERTEX
10
385.507
20
354.797
30
-154.53
8
0
0
VERTEX
10
384.238
20
354.914
30
-155.142
8
0
0
VERTEX
10
382.971
20
355.022
30
-155.753
8
0
0
VERTEX
10
381.702
20
355.14
30
-156.362
8
0
0
VERTEX
10
380.431
20
355.256
30
-156.977
8
0
0
VERTEX
10
379.162
20
355.365
30
-157.591
8
0
0
VERTEX
10
377.888
20
355.482
30
-158.203
8
0
0
VERTEX
10
376.621
20
355.597
30
-158.81
8
0
0
VERTEX
10
374.556
20
356.299
30
-159.303
8
0
0
VERTEX
10
372.496
20
357.01
30
-159.791
8
0
0
VERTEX
10
370.428
20
357.719
30
-160.276
8
0
0
VERTEX
10
369.163
20
357.835
30
-160.89
8
0
0
VERTEX
10
367.89
20
357.953
30
-161.504
8
0
0
VERTEX
10
365.827
20
358.661
30
-161.986
8
0
0
VERTEX
10
364.556
20
358.771
30
-162.602
8
0
0
VERTEX
10
363.765
20
359.368
30
-162.475
8
0
0
VERTEX
10
361.223
20
359.592
30
-163.706
8
0
0
VERTEX
10
359.633
20
360.784
30
-163.448
8
0
0
VERTEX
10
357.092
20
361.015
30
-164.674
8
0
0
VERTEX
10
355.823
20
361.124
30
-165.286
8
0
0
VERTEX
10
354.235
20
362.317
30
-165.039
8
0
0
VERTEX
10
352.961
20
362.429
30
-165.654
8
0
0
VERTEX
10
350.106
20
363.731
30
-166.015
8
0
0
VERTEX
10
348.838
20
363.845
30
-166.628
8
0
0
VERTEX
10
345.977
20
365.15
30
-166.989
8
0
0
VERTEX
10
344.711
20
365.261
30
-167.602
8
0
0
VERTEX
10
341.849
20
366.565
30
-167.967
8
0
0
VERTEX
10
339.784
20
367.277
30
-168.455
8
0
0
VERTEX
10
336.928
20
368.579
30
-168.819
8
0
0
VERTEX
10
334.864
20
369.283
30
-169.304
8
0
0
VERTEX
10
332.799
20
369.995
30
-169.792
8
0
0
VERTEX
10
330.733
20
370.702
30
-170.281
8
0
0
VERTEX
10
328.67
20
371.411
30
-170.767
8
0
0
VERTEX
10
326.608
20
372.118
30
-171.257
8
0
0
VERTEX
10
325.814
20
372.717
30
-171.132
8
0
0
VERTEX
10
323.747
20
373.424
30
-171.616
8
0
0
VERTEX
10
321.686
20
374.131
30
-172.109
8
0
0
VERTEX
10
319.62
20
374.837
30
-172.595
8
0
0
VERTEX
10
317.556
20
375.555
30
-173.081
8
0
0
VERTEX
10
315.491
20
376.254
30
-173.57
8
0
0
VERTEX
10
312.157
20
377.08
30
-174.67
8
0
0
VERTEX
10
311.364
20
377.675
30
-174.546
8
0
0
VERTEX
10
309.299
20
378.385
30
-175.034
8
0
0
VERTEX
10
308.028
20
378.503
30
-175.646
8
0
0
VERTEX
10
305.963
20
379.206
30
-176.132
8
0
0
VERTEX
10
303.901
20
379.913
30
-176.618
8
0
0
VERTEX
10
302.635
20
380.03
30
-177.235
8
0
0
VERTEX
10
301.36
20
380.145
30
-177.846
8
0
0
VERTEX
10
299.298
20
380.849
30
-178.33
8
0
0
VERTEX
10
297.23
20
381.563
30
-178.821
8
0
0
VERTEX
10
295.966
20
381.671
30
-179.434
8
0
0
VERTEX
10
293.423
20
381.899
30
-180.656
8
0
0
VERTEX
10
291.361
20
382.605
30
-181.147
8
0
0
VERTEX
10
290.088
20
382.724
30
-181.76
8
0
0
VERTEX
10
288.028
20
383.43
30
-182.244
8
0
0
VERTEX
10
285.964
20
384.143
30
-182.731
8
0
0
VERTEX
10
283.104
20
385.443
30
-183.098
8
0
0
VERTEX
10
282.311
20
386.04
30
-182.974
8
0
0
VERTEX
10
281.042
20
386.151
30
-183.578
8
0
0
VERTEX
10
281.042
20
386.151
30
-183.578
8
0
0
VERTEX
10
278.978
20
386.858
30
-184.072
8
0
0
VERTEX
10
278.183
20
387.453
30
-183.949
8
0
0
VERTEX
10
276.912
20
387.567
30
-184.561
8
0
0
VERTEX
10
274.848
20
388.278
30
-185.048
8
0
0
VERTEX
10
272.784
20
388.987
30
-185.538
8
0
0
VERTEX
10
271.515
20
389.099
30
-186.148
8
0
0
VERTEX
10
269.446
20
389.81
30
-186.637
8
0
0
VERTEX
10
268.176
20
389.923
30
-187.248
8
0
0
VERTEX
10
266.908
20
390.037
30
-187.86
8
0
0
VERTEX
10
266.908
20
390.037
30
-187.86
8
0
0
VERTEX
10
266.112
20
390.634
30
-187.737
8
0
0
VERTEX
10
265.638
20
390.15
30
-188.472
8
0
0
VERTEX
10
264.048
20
391.344
30
-188.222
8
0
0
VERTEX
10
264.048
20
391.344
30
-188.222
8
0
0
VERTEX
10
264.048
20
391.344
30
-188.222
8
0
0
VERTEX
10
264.048
20
391.344
30
-188.222
8
0
0
VERTEX
10
263.571
20
390.859
30
-188.959
8
0
0
VERTEX
10
263.571
20
390.859
30
-188.959
8
0
0
VERTEX
10
263.571
20
390.859
30
-188.959
8
0
0
VERTEX
10
263.097
20
390.377
30
-189.697
8
0
0
SEQEND
0
POLYLINE
8
1
62
252
66
1
40
1
41
1
70
8
0
VERTEX
10
265.638
20
390.15
30
-188.472
8
0
0
VERTEX
10
265.638
20
390.15
30
-188.472
8
0
0
VERTEX
10
264.842
20
390.748
30
-188.346
8
0
0
VERTEX
10
264.842
20
390.748
30
-188.346
8
0
0
VERTEX
10
264.522
20
391.822
30
-187.486
8
0
0
VERTEX
10
263.73
20
392.415
30
-187.364
8
0
0
VERTEX
10
262.94
20
393.009
30
-187.237
8
0
0
VERTEX
10
262.617
20
394.091
30
-186.374
8
0
0
VERTEX
10
262.299
20
395.166
30
-185.515
8
0
0
VERTEX
10
261.512
20
395.758
30
-185.389
8
0
0
VERTEX
10
261.191
20
396.834
30
-184.528
8
0
0
VERTEX
10
261.191
20
396.834
30
-184.528
8
0
0
VERTEX
10
260.871
20
397.911
30
-183.669
8
0
0
VERTEX
10
260.076
20
398.504
30
-183.546
8
0
0
VERTEX
10
258.488
20
399.689
30
-183.297
8
0
0
VERTEX
10
258.172
20
400.768
30
-182.43
8
0
0
VERTEX
10
257.376
20
401.365
30
-182.305
8
0
0
VERTEX
10
257.057
20
402.44
30
-181.449
8
0
0
VERTEX
10
256.261
20
403.033
30
-181.327
8
0
0
VERTEX
10
255.147
20
404.702
30
-180.337
8
0
0
VERTEX
10
254.353
20
405.299
30
-180.214
8
0
0
VERTEX
10
253.237
20
406.97
30
-179.23
8
0
0
VERTEX
10
252.446
20
407.566
30
-179.107
8
0
0
VERTEX
10
252.446
20
407.566
30
-179.107
8
0
0
VERTEX
10
251.649
20
408.16
30
-178.982
8
0
0
VERTEX
10
251.649
20
408.16
30
-178.982
8
0
0
VERTEX
10
251.649
20
408.16
30
-178.982
8
0
0
VERTEX
10
251.334
20
409.234
30
-178.12
8
0
0
VERTEX
10
251.012
20
410.311
30
-177.258
8
0
0
VERTEX
10
249.421
20
411.501
30
-177.012
8
0
0
VERTEX
10
249.107
20
412.578
30
-176.151
8
0
0
VERTEX
10
247.994
20
414.246
30
-175.164
8
0
0
VERTEX
10
247.677
20
415.325
30
-174.303
8
0
0
VERTEX
10
247.677
20
415.325
30
-174.303
8
0
0
VERTEX
10
246.881
20
415.915
30
-174.181
8
0
0
VERTEX
10
246.881
20
415.915
30
-174.181
8
0
0
VERTEX
10
245.768
20
417.587
30
-173.193
8
0
0
VERTEX
10
243.385
20
419.374
30
-172.82
8
0
0
VERTEX
10
242.276
20
421.04
30
-171.832
8
0
0
VERTEX
10
242.276
20
421.04
30
-171.832
8
0
0
VERTEX
10
241.953
20
422.117
30
-170.969
8
0
0
VERTEX
10
240.843
20
423.793
30
-169.985
8
0
0
VERTEX
10
239.729
20
425.458
30
-169.002
8
0
0
VERTEX
10
239.408
20
426.538
30
-168.139
8
0
0
VERTEX
10
238.297
20
428.207
30
-167.153
8
0
0
VERTEX
10
236.867
20
430.952
30
-165.306
8
0
0
VERTEX
10
236.069
20
431.545
30
-165.183
8
0
0
VERTEX
10
236.069
20
431.545
30
-165.183
8
0
0
VERTEX
10
234.957
20
433.217
30
-164.197
8
0
0
VERTEX
10
234.957
20
433.217
30
-164.197
8
0
0
VERTEX
10
234.637
20
434.294
30
-163.336
8
0
0
VERTEX
10
234.32
20
435.369
30
-162.471
8
0
0
VERTEX
10
233.525
20
435.963
30
-162.351
8
0
0
VERTEX
10
233.525
20
435.963
30
-162.351
8
0
0
VERTEX
10
233.206
20
437.041
30
-161.488
8
0
0
VERTEX
10
233.206
20
437.041
30
-161.488
8
0
0
VERTEX
10
233.206
20
437.041
30
-161.488
8
0
0
VERTEX
10
232.415
20
437.636
30
-161.365
8
0
0
VERTEX
10
232.415
20
437.636
30
-161.365
8
0
0
VERTEX
10
232.098
20
438.708
30
-160.502
8
0
0
VERTEX
10
232.098
20
438.708
30
-160.502
8
0
0
VERTEX
10
231.777
20
439.788
30
-159.64
8
0
0
VERTEX
10
230.98
20
440.383
30
-159.518
8
0
0
VERTEX
10
230.98
20
440.383
30
-159.518
8
0
0
VERTEX
10
230.98
20
440.383
30
-159.518
8
0
0
VERTEX
10
230.98
20
440.383
30
-159.518
8
0
0
VERTEX
10
230.98
20
440.383
30
-159.518
8
0
0
VERTEX
10
230.98
20
440.383
30
-159.518
8
0
0
VERTEX
10
230.98
20
440.383
30
-159.518
8
0
0
SEQEND
0
POLYLINE
8
1
62
252
66
1
40
1
41
1
70
8
0
VERTEX
10
231.618
20
438.231
30
-161.239
8
0
0
VERTEX
10
232.098
20
438.708
30
-160.502
8
0
0
VERTEX
10
232.098
20
438.708
30
-160.502
8
0
0
VERTEX
10
232.572
20
439.191
30
-159.765
8
0
0
VERTEX
10
233.837
20
439.077
30
-159.154
8
0
0
VERTEX
10
234.791
20
440.04
30
-157.68
8
0
0
VERTEX
10
234.791
20
440.04
30
-157.68
8
0
0
VERTEX
10
236.063
20
439.926
30
-157.067
8
0
0
VERTEX
10
236.536
20
440.405
30
-156.332
8
0
0
VERTEX
10
237.489
20
441.365
30
-154.859
8
0
0
VERTEX
10
238.281
20
440.773
30
-154.984
8
0
0
VERTEX
10
238.757
20
441.254
30
-154.251
8
0
0
VERTEX
10
240.029
20
441.14
30
-153.634
8
0
0
VERTEX
10
241.773
20
441.507
30
-152.288
8
0
0
VERTEX
10
243.039
20
441.396
30
-151.673
8
0
0
VERTEX
10
244.791
20
441.76
30
-150.323
8
0
0
VERTEX
10
244.791
20
441.76
30
-150.323
8
0
0
VERTEX
10
245.262
20
442.244
30
-149.587
8
0
0
VERTEX
10
246.537
20
442.13
30
-148.976
8
0
0
VERTEX
10
247.805
20
442.014
30
-148.362
8
0
0
VERTEX
10
248.284
20
442.494
30
-147.626
8
0
0
VERTEX
10
249.55
20
442.382
30
-147.015
8
0
0
VERTEX
10
250.021
20
442.864
30
-146.278
8
0
0
VERTEX
10
251.772
20
443.227
30
-144.93
8
0
0
VERTEX
10
252.566
20
442.633
30
-145.055
8
0
0
VERTEX
10
254.309
20
443.002
30
-143.704
8
0
0
VERTEX
10
255.58
20
442.889
30
-143.094
8
0
0
VERTEX
10
257.326
20
443.256
30
-141.745
8
0
0
VERTEX
10
257.8
20
443.74
30
-141.01
8
0
0
VERTEX
10
259.072
20
443.625
30
-140.394
8
0
0
VERTEX
10
260.019
20
444.585
30
-138.923
8
0
0
VERTEX
10
261.289
20
444.472
30
-138.309
8
0
0
VERTEX
10
264.308
20
444.726
30
-136.347
8
0
0
VERTEX
10
266.054
20
445.092
30
-134.999
8
0
0
VERTEX
10
267.323
20
444.978
30
-134.387
8
0
0
VERTEX
10
269.069
20
445.343
30
-133.038
8
0
0
VERTEX
10
270.813
20
445.712
30
-131.69
8
0
0
VERTEX
10
272.085
20
445.6
30
-131.074
8
0
0
VERTEX
10
273.827
20
445.966
30
-129.729
8
0
0
VERTEX
10
275.099
20
445.851
30
-129.115
8
0
0
VERTEX
10
276.847
20
446.217
30
-127.768
8
0
0
VERTEX
10
278.116
20
446.106
30
-127.152
8
0
0
VERTEX
10
279.381
20
445.994
30
-126.543
8
0
0
VERTEX
10
280.651
20
445.878
30
-125.929
8
0
0
VERTEX
10
282.392
20
446.247
30
-124.581
8
0
0
VERTEX
10
283.665
20
446.13
30
-123.969
8
0
0
VERTEX
10
283.984
20
445.054
30
-124.834
8
0
0
SEQEND
0
POLYLINE
8
1
62
252
66
1
40
1
41
1
70
8
0
VERTEX
10
677.155
20
413.477
30
68.2622
8
0
0
VERTEX
10
677.155
20
413.477
30
68.2622
8
0
0
VERTEX
10
675.89
20
413.591
30
67.6534
8
0
0
VERTEX
10
674.616
20
413.701
30
67.0384
8
0
0
VERTEX
10
674.141
20
413.223
30
66.3012
8
0
0
VERTEX
10
672.867
20
413.335
30
65.6874
8
0
0
VERTEX
10
671.6
20
413.45
30
65.0731
8
0
0
VERTEX
10
670.806
20
414.046
30
65.1997
8
0
0
VERTEX
10
669.064
20
413.679
30
63.8521
8
0
0
VERTEX
10
667.787
20
413.792
30
63.2394
8
0
0
VERTEX
10
666.521
20
413.904
30
62.6287
8
0
0
VERTEX
10
666.521
20
413.904
30
62.6287
8
0
0
VERTEX
10
666.521
20
413.904
30
62.6287
8
0
0
VERTEX
10
665.252
20
414.018
30
62.0138
8
0
0
VERTEX
10
663.981
20
414.132
30
61.4004
8
0
0
VERTEX
10
662.711
20
414.25
30
60.7894
8
0
0
VERTEX
10
662.232
20
413.767
30
60.0556
8
0
0
VERTEX
10
660.965
20
413.879
30
59.4405
8
0
0
VERTEX
10
660.487
20
413.4
30
58.7034
8
0
0
VERTEX
10
659.216
20
413.512
30
58.0897
8
0
0
VERTEX
10
657.472
20
413.147
30
56.7463
8
0
0
VERTEX
10
656.208
20
413.264
30
56.1331
8
0
0
VERTEX
10
655.73
20
412.777
30
55.3944
8
0
0
VERTEX
10
655.255
20
412.301
30
54.6583
8
0
0
VERTEX
10
653.98
20
412.411
30
54.0472
8
0
0
VERTEX
10
652.234
20
412.045
30
52.6999
8
0
0
VERTEX
10
650.97
20
412.159
30
52.0882
8
0
0
VERTEX
10
650.499
20
411.684
30
51.3519
8
0
0
VERTEX
10
649.225
20
411.793
30
50.7387
8
0
0
VERTEX
10
647.953
20
411.913
30
50.1274
8
0
0
VERTEX
10
646.207
20
411.537
30
48.7779
8
0
0
VERTEX
10
644.459
20
411.173
30
47.428
8
0
0
VERTEX
10
642.715
20
410.805
30
46.0783
8
0
0
VERTEX
10
640.973
20
410.438
30
44.7283
8
0
0
VERTEX
10
639.225
20
410.07
30
43.3774
8
0
0
VERTEX
10
637.958
20
410.179
30
42.7646
8
0
0
VERTEX
10
636.211
20
409.814
30
41.4179
8
0
0
VERTEX
10
634.941
20
409.933
30
40.8057
8
0
0
VERTEX
10
633.197
20
409.562
30
39.4585
8
0
0
VERTEX
10
631.928
20
409.678
30
38.847
8
0
0
VERTEX
10
630.186
20
409.315
30
37.4998
8
0
0
VERTEX
10
627.967
20
408.465
30
35.4161
8
0
0
VERTEX
10
624.948
20
408.209
30
33.4532
8
0
0
VERTEX
10
622.405
20
408.439
30
32.2319
8
0
0
VERTEX
10
620.664
20
408.067
30
30.8781
8
0
0
VERTEX
10
619.393
20
408.184
30
30.2674
8
0
0
VERTEX
10
617.643
20
407.818
30
28.9182
8
0
0
VERTEX
10
616.378
20
407.933
30
28.3073
8
0
0
VERTEX
10
614.63
20
407.557
30
26.9533
8
0
0
VERTEX
10
612.888
20
407.195
30
25.6086
8
0
0
VERTEX
10
611.615
20
407.312
30
24.9967
8
0
0
VERTEX
10
609.079
20
407.542
30
23.7727
8
0
0
VERTEX
10
607.339
20
407.172
30
22.4253
8
0
0
VERTEX
10
604.793
20
407.402
30
21.1984
8
0
0
VERTEX
10
603.042
20
407.033
30
19.8494
8
0
0
VERTEX
10
600.504
20
407.25
30
18.6244
8
0
0
VERTEX
10
598.759
20
406.888
30
17.2753
8
0
0
VERTEX
10
595.745
20
406.638
30
15.3148
8
0
0
VERTEX
10
593.202
20
406.864
30
14.0924
8
0
0
VERTEX
10
590.667
20
407.098
30
12.8687
8
0
0
VERTEX
10
588.92
20
406.73
30
11.5178
8
0
0
VERTEX
10
587.656
20
406.839
30
10.9096
8
0
0
VERTEX
10
585.905
20
406.471
30
9.5562
8
0
0
VERTEX
10
585.905
20
406.471
30
9.5562
8
0
0
VERTEX
10
582.892
20
406.218
30
7.59323
8
0
0
VERTEX
10
581.143
20
405.854
30
6.24644
8
0
0
VERTEX
10
579.398
20
405.489
30
4.89878
8
0
0
VERTEX
10
577.648
20
405.116
30
3.54914
8
0
0
VERTEX
10
575.907
20
404.753
30
2.20117
8
0
0
VERTEX
10
571.624
20
404.613
30
-0.368691
8
0
0
VERTEX
10
569.874
20
404.243
30
-1.72212
8
0
0
VERTEX
10
566.862
20
403.991
30
-3.68636
8
0
0
VERTEX
10
565.12
20
403.627
30
-5.03153
8
0
0
VERTEX
10
563.847
20
403.734
30
-5.64475
8
0
0
VERTEX
10
561.307
20
403.965
30
-6.87215
8
0
0
VERTEX
10
559.562
20
403.6
30
-8.21497
8
0
0
VERTEX
10
557.024
20
403.827
30
-9.43622
8
0
0
VERTEX
10
555.747
20
403.941
30
-10.0522
8
0
0
VERTEX
10
554.482
20
404.053
30
-10.6657
8
0
0
VERTEX
10
552.415
20
404.76
30
-11.1537
8
0
0
VERTEX
10
550.664
20
404.396
30
-12.503
8
0
0
VERTEX
10
548.131
20
404.625
30
-13.7265
8
0
0
VERTEX
10
546.859
20
404.735
30
-14.3372
8
0
0
VERTEX
10
544.32
20
404.966
30
-15.5619
8
0
0
VERTEX
10
543.051
20
405.075
30
-16.1748
8
0
0
VERTEX
10
541.78
20
405.196
30
-16.7841
8
0
0
VERTEX
10
540.032
20
404.822
30
-18.1359
8
0
0
VERTEX
10
538.763
20
404.938
30
-18.7471
8
0
0
VERTEX
10
537.022
20
404.57
30
-20.0971
8
0
0
VERTEX
10
535.749
20
404.684
30
-20.7096
8
0
0
VERTEX
10
533.208
20
404.914
30
-21.9344
8
0
0
VERTEX
10
531.464
20
404.546
30
-23.2837
8
0
0
VERTEX
10
528.448
20
404.293
30
-25.2432
8
0
0
VERTEX
10
526.7
20
403.924
30
-26.5917
8
0
0
VERTEX
10
524.168
20
404.153
30
-27.815
8
0
0
VERTEX
10
521.147
20
403.902
30
-29.7782
8
0
0
VERTEX
10
519.403
20
403.536
30
-31.1252
8
0
0
VERTEX
10
516.389
20
403.279
30
-33.0883
8
0
0
VERTEX
10
513.371
20
403.022
30
-35.0495
8
0
0
VERTEX
10
510.839
20
403.249
30
-36.2722
8
0
0
VERTEX
10
509.09
20
402.881
30
-37.623
8
0
0
VERTEX
10
506.55
20
403.115
30
-38.8465
8
0
0
VERTEX
10
504.803
20
402.748
30
-40.1943
8
0
0
VERTEX
10
503.056
20
402.372
30
-41.544
8
0
0
VERTEX
10
502.586
20
401.9
30
-42.2769
8
0
0
VERTEX
10
501.791
20
402.495
30
-42.155
8
0
0
VERTEX
10
500.043
20
402.126
30
-43.5056
8
0
0
VERTEX
10
498.778
20
402.241
30
-44.1128
8
0
0
VERTEX
10
496.078
20
400.913
30
-46.9377
8
0
0
VERTEX
10
493.062
20
400.658
30
-48.8996
8
0
0
VERTEX
10
491.319
20
400.29
30
-50.247
8
0
0
VERTEX
10
489.572
20
399.926
30
-51.5963
8
0
0
VERTEX
10
487.827
20
399.557
30
-52.9473
8
0
0
VERTEX
10
485.764
20
400.265
30
-53.4313
8
0
0
VERTEX
10
483.541
20
399.421
30
-55.5143
8
0
0
VERTEX
10
481.796
20
399.052
30
-56.8645
8
0
0
VERTEX
10
478.783
20
398.797
30
-58.8262
8
0
0
VERTEX
10
476.243
20
399.025
30
-60.0518
8
0
0
VERTEX
10
474.972
20
399.137
30
-60.6634
8
0
0
VERTEX
10
473.231
20
398.771
30
-62.012
8
0
0
VERTEX
10
470.687
20
398.999
30
-63.2365
8
0
0
VERTEX
10
468.943
20
398.632
30
-64.5873
8
0
0
VERTEX
10
467.673
20
398.748
30
-65.1979
8
0
0
VERTEX
10
464.658
20
398.492
30
-67.1581
8
0
0
VERTEX
10
462.914
20
398.125
30
-68.5055
8
0
0
VERTEX
10
459.894
20
397.874
30
-70.4691
8
0
0
VERTEX
10
458.149
20
397.507
30
-71.8174
8
0
0
VERTEX
10
456.882
20
397.619
30
-72.4285
8
0
0
VERTEX
10
453.87
20
397.366
30
-74.3899
8
0
0
VERTEX
10
450.852
20
397.111
30
-76.3513
8
0
0
VERTEX
10
449.107
20
396.745
30
-77.7015
8
0
0
VERTEX
10
447.838
20
396.857
30
-78.3139
8
0
0
VERTEX
10
446.567
20
396.971
30
-78.9252
8
0
0
VERTEX
10
445.298
20
397.086
30
-79.5381
8
0
0
VERTEX
10
443.233
20
397.798
30
-80.0264
8
0
0
VERTEX
10
443.233
20
397.798
30
-80.0264
8
0
0
VERTEX
10
442.762
20
397.314
30
-80.7608
8
0
0
VERTEX
10
441.962
20
397.913
30
-80.6362
8
0
0
VERTEX
10
441.489
20
397.429
30
-81.3729
8
0
0
VERTEX
10
438.948
20
397.656
30
-82.5975
8
0
0
VERTEX
10
437.201
20
397.286
30
-83.9473
8
0
0
VERTEX
10
437.201
20
397.286
30
-83.9473
8
0
0
VERTEX
10
437.201
20
397.286
30
-83.9473
8
0
0
VERTEX
10
437.201
20
397.286
30
-83.9473
8
0
0
SEQEND
0
POLYLINE
8
1
62
252
66
1
40
1
41
1
70
8
0
VERTEX
10
277.797
20
447.181
30
-126.296
8
0
0
VERTEX
10
278.588
20
446.584
30
-126.417
8
0
0
VERTEX
10
279.857
20
446.472
30
-125.81
8
0
0
VERTEX
10
280.651
20
445.878
30
-125.929
8
0
0
VERTEX
10
281.447
20
445.283
30
-126.055
8
0
0
VERTEX
10
282.715
20
445.17
30
-125.443
8
0
0
VERTEX
10
282.715
20
445.17
30
-125.443
8
0
0
VERTEX
10
283.984
20
445.054
30
-124.834
8
0
0
VERTEX
10
284.777
20
444.46
30
-124.958
8
0
0
VERTEX
10
284.777
20
444.46
30
-124.958
8
0
0
VERTEX
10
286.05
20
444.348
30
-124.346
8
0
0
VERTEX
10
286.843
20
443.748
30
-124.469
8
0
0
VERTEX
10
288.114
20
443.638
30
-123.857
8
0
0
VERTEX
10
289.386
20
443.526
30
-123.242
8
0
0
VERTEX
10
291.447
20
442.818
30
-122.756
8
0
0
VERTEX
10
291.447
20
442.818
30
-122.756
8
0
0
VERTEX
10
292.719
20
442.702
30
-122.142
8
0
0
VERTEX
10
293.989
20
442.591
30
-121.531
8
0
0
VERTEX
10
296.052
20
441.881
30
-121.046
8
0
0
VERTEX
10
298.118
20
441.175
30
-120.557
8
0
0
VERTEX
10
299.387
20
441.056
30
-119.944
8
0
0
VERTEX
10
300.18
20
440.464
30
-120.067
8
0
0
VERTEX
10
301.452
20
440.348
30
-119.455
8
0
0
VERTEX
10
302.717
20
440.237
30
-118.847
8
0
0
VERTEX
10
304.782
20
439.526
30
-118.359
8
0
0
VERTEX
10
306.052
20
439.415
30
-117.744
8
0
0
VERTEX
10
307.319
20
439.303
30
-117.134
8
0
0
VERTEX
10
308.115
20
438.704
30
-117.26
8
0
0
VERTEX
10
310.182
20
437.995
30
-116.768
8
0
0
VERTEX
10
311.45
20
437.882
30
-116.157
8
0
0
VERTEX
10
313.518
20
437.175
30
-115.667
8
0
0
VERTEX
10
314.785
20
437.061
30
-115.06
8
0
0
VERTEX
10
316.052
20
436.948
30
-114.447
8
0
0
VERTEX
10
318.119
20
436.238
30
-113.957
8
0
0
VERTEX
10
320.182
20
435.531
30
-113.468
8
0
0
VERTEX
10
322.246
20
434.819
30
-112.98
8
0
0
VERTEX
10
324.312
20
434.111
30
-112.493
8
0
0
VERTEX
10
326.379
20
433.401
30
-112.006
8
0
0
VERTEX
10
327.646
20
433.295
30
-111.39
8
0
0
VERTEX
10
329.712
20
432.581
30
-110.906
8
0
0
VERTEX
10
331.296
20
431.391
30
-111.155
8
0
0
VERTEX
10
332.565
20
431.275
30
-110.541
8
0
0
VERTEX
10
333.361
20
430.686
30
-110.667
8
0
0
VERTEX
10
334.633
20
430.569
30
-110.054
8
0
0
VERTEX
10
336.694
20
429.857
30
-109.568
8
0
0
VERTEX
10
339.556
20
428.554
30
-109.204
8
0
0
VERTEX
10
341.616
20
427.849
30
-108.716
8
0
0
VERTEX
10
344.95
20
427.025
30
-107.615
8
0
0
VERTEX
10
347.019
20
426.315
30
-107.128
8
0
0
VERTEX
10
348.285
20
426.208
30
-106.517
8
0
0
VERTEX
10
351.14
20
424.902
30
-106.157
8
0
0
VERTEX
10
353.211
20
424.191
30
-105.666
8
0
0
VERTEX
10
353.999
20
423.601
30
-105.791
8
0
0
VERTEX
10
355.274
20
423.482
30
-105.179
8
0
0
VERTEX
10
356.862
20
422.294
30
-105.43
8
0
0
VERTEX
10
358.131
20
422.181
30
-104.815
8
0
0
VERTEX
10
359.721
20
420.99
30
-105.067
8
0
0
VERTEX
10
361.786
20
420.278
30
-104.576
8
0
0
VERTEX
10
363.055
20
420.169
30
-103.966
8
0
0
VERTEX
10
365.914
20
418.859
30
-103.601
8
0
0
VERTEX
10
367.181
20
418.749
30
-102.987
8
0
0
VERTEX
10
370.042
20
417.446
30
-102.626
8
0
0
VERTEX
10
372.582
20
417.217
30
-101.402
8
0
0
VERTEX
10
374.644
20
416.511
30
-100.915
8
0
0
VERTEX
10
375.437
20
415.913
30
-101.039
8
0
0
VERTEX
10
375.918
20
416.396
30
-100.301
8
0
0
VERTEX
10
377.504
20
415.208
30
-100.551
8
0
0
VERTEX
10
377.504
20
415.208
30
-100.551
8
0
0
VERTEX
10
379.566
20
414.499
30
-100.063
8
0
0
VERTEX
10
380.836
20
414.384
30
-99.4488
8
0
0
VERTEX
10
381.632
20
413.788
30
-99.5744
8
0
0
VERTEX
10
383.696
20
413.08
30
-99.0866
8
0
0
VERTEX
10
385.76
20
412.373
30
-98.5952
8
0
0
VERTEX
10
387.031
20
412.259
30
-97.9847
8
0
0
VERTEX
10
389.886
20
410.958
30
-97.6217
8
0
0
VERTEX
10
391.16
20
410.845
30
-97.0108
8
0
0
VERTEX
10
393.223
20
410.134
30
-96.5219
8
0
0
VERTEX
10
394.493
20
410.021
30
-95.9108
8
0
0
VERTEX
10
395.292
20
409.422
30
-96.0335
8
0
0
VERTEX
10
396.559
20
409.31
30
-95.4234
8
0
0
VERTEX
10
397.352
20
408.714
30
-95.5492
8
0
0
VERTEX
10
398.625
20
408.6
30
-94.9339
8
0
0
VERTEX
10
400.69
20
407.896
30
-94.4493
8
0
0
VERTEX
10
403.228
20
407.666
30
-93.2228
8
0
0
VERTEX
10
406.081
20
406.364
30
-92.8583
8
0
0
VERTEX
10
408.625
20
406.136
30
-91.6339
8
0
0
VERTEX
10
409.417
20
405.54
30
-91.757
8
0
0
VERTEX
10
411.963
20
405.31
30
-90.5357
8
0
0
VERTEX
10
413.228
20
405.199
30
-89.9214
8
0
0
VERTEX
10
415.294
20
404.485
30
-89.4391
8
0
0
VERTEX
10
417.832
20
404.261
30
-88.2102
8
0
0
VERTEX
10
419.899
20
403.551
30
-87.722
8
0
0
VERTEX
10
421.165
20
403.437
30
-87.1105
8
0
0
VERTEX
10
423.232
20
402.727
30
-86.6259
8
0
0
VERTEX
10
425.295
20
402.02
30
-86.1358
8
0
0
VERTEX
10
426.565
20
401.905
30
-85.5253
8
0
0
VERTEX
10
428.631
20
401.196
30
-85.0393
8
0
0
VERTEX
10
429.896
20
401.084
30
-84.4268
8
0
0
VERTEX
10
431.965
20
400.375
30
-83.9373
8
0
0
VERTEX
10
433.231
20
400.263
30
-83.3247
8
0
0
VERTEX
10
435.298
20
399.554
30
-82.8369
8
0
0
VERTEX
10
436.091
20
398.958
30
-82.9614
8
0
0
VERTEX
10
437.359
20
398.846
30
-82.3474
8
0
0
VERTEX
10
439.424
20
398.135
30
-81.8619
8
0
0
VERTEX
10
440.695
20
398.023
30
-81.25
8
0
0
VERTEX
10
441.489
20
397.429
30
-81.3729
8
0
0
VERTEX
10
441.489
20
397.429
30
-81.3729
8
0
0
VERTEX
10
441.014
20
396.945
30
-82.1125
8
0
0
SEQEND
0
POLYLINE
8
1
62
252
66
1
40
1
41
1
70
8
0
VERTEX
10
666.344
20
406.608
30
24.0595
8
0
0
VERTEX
10
667.138
20
406.011
30
23.937
8
0
0
VERTEX
10
666.665
20
405.532
30
23.2031
8
0
0
VERTEX
10
666.983
20
404.456
30
22.3384
8
0
0
VERTEX
10
667.297
20
403.379
30
21.4756
8
0
0
VERTEX
10
667.297
20
403.379
30
21.4756
8
0
0
VERTEX
10
666.83
20
402.898
30
20.7409
8
0
0
VERTEX
10
667.145
20
401.824
30
19.8832
8
0
0
VERTEX
10
667.94
20
401.228
30
19.7555
8
0
0
VERTEX
10
667.466
20
400.747
30
19.0223
8
0
0
VERTEX
10
667.78
20
399.671
30
18.1571
8
0
0
VERTEX
10
668.103
20
398.594
30
17.2942
8
0
0
VERTEX
10
668.896
20
398.001
30
17.1745
8
0
0
VERTEX
10
668.735
20
396.44
30
15.5757
8
0
0
VERTEX
10
669.054
20
395.365
30
14.7165
8
0
0
VERTEX
10
668.578
20
394.884
30
13.9753
8
0
0
VERTEX
10
668.898
20
393.809
30
13.1162
8
0
0
VERTEX
10
668.743
20
392.251
30
11.5175
8
0
0
VERTEX
10
669.062
20
391.18
30
10.6576
8
0
0
VERTEX
10
669.376
20
390.101
30
9.79459
8
0
0
VERTEX
10
669.703
20
389.025
30
8.93376
8
0
0
VERTEX
10
670.018
20
387.955
30
8.0727
8
0
0
VERTEX
10
670.339
20
386.877
30
7.21728
8
0
0
VERTEX
10
670.501
20
384.242
30
4.75681
8
0
0
VERTEX
10
670.66
20
381.613
30
2.30046
8
0
0
VERTEX
10
671.296
20
379.46
30
0.575274
8
0
0
VERTEX
10
670.664
20
377.42
30
-1.76023
8
0
0
VERTEX
10
670.824
20
374.788
30
-4.21971
8
0
0
VERTEX
10
671.141
20
373.712
30
-5.08167
8
0
0
VERTEX
10
671.463
20
372.64
30
-5.9403
8
0
0
VERTEX
10
671.463
20
372.64
30
-5.9403
8
0
0
VERTEX
10
671.625
20
370.004
30
-8.40279
8
0
0
VERTEX
10
671.465
20
368.448
30
-10.0007
8
0
0
VERTEX
10
671.309
20
366.889
30
-11.599
8
0
0
VERTEX
10
671.152
20
365.333
30
-13.1936
8
0
0
VERTEX
10
670.839
20
362.222
30
-16.3894
8
0
0
VERTEX
10
671.479
20
360.069
30
-18.1115
8
0
0
VERTEX
10
671.319
20
358.512
30
-19.7069
8
0
0
VERTEX
10
671.161
20
356.957
30
-21.3073
8
0
0
VERTEX
10
671.008
20
355.397
30
-22.9043
8
0
0
VERTEX
10
671.643
20
353.245
30
-24.6208
8
0
0
VERTEX
10
672.282
20
351.093
30
-26.3466
8
0
0
VERTEX
10
671.653
20
349.055
30
-28.6809
8
0
0
VERTEX
10
671.973
20
347.98
30
-29.5412
8
0
0
VERTEX
10
672.61
20
345.827
30
-31.2667
8
0
0
VERTEX
10
673.244
20
343.677
30
-32.9904
8
0
0
VERTEX
10
673.404
20
341.045
30
-35.4475
8
0
0
VERTEX
10
673.729
20
339.967
30
-36.309
8
0
0
VERTEX
10
674.683
20
336.739
30
-38.8907
8
0
0
VERTEX
10
674.844
20
334.111
30
-41.3483
8
0
0
VERTEX
10
675.484
20
331.959
30
-43.0712
8
0
0
VERTEX
10
675.642
20
329.329
30
-45.5337
8
0
0
VERTEX
10
675.489
20
327.769
30
-47.1283
8
0
0
VERTEX
10
676.124
20
325.617
30
-48.8522
8
0
0
VERTEX
10
676.283
20
322.984
30
-51.3097
8
0
0
VERTEX
10
676.924
20
320.832
30
-53.0313
8
0
0
VERTEX
10
677.558
20
318.68
30
-54.7544
8
0
0
VERTEX
10
677.402
20
317.125
30
-56.3549
8
0
0
VERTEX
10
677.244
20
315.565
30
-57.9527
8
0
0
VERTEX
10
677.402
20
312.933
30
-60.4105
8
0
0
VERTEX
10
678.049
20
310.784
30
-62.1298
8
0
0
VERTEX
10
678.367
20
309.71
30
-62.9926
8
0
0
VERTEX
10
677.89
20
309.23
30
-63.7258
8
0
0
VERTEX
10
677.413
20
308.746
30
-64.4671
8
0
0
VERTEX
10
677.732
20
307.671
30
-65.3244
8
0
0
VERTEX
10
677.892
20
305.037
30
-67.7846
8
0
0
VERTEX
10
677.737
20
303.483
30
-69.3811
8
0
0
VERTEX
10
677.576
20
301.923
30
-70.9827
8
0
0
VERTEX
10
677.423
20
300.366
30
-72.5771
8
0
0
VERTEX
10
676.473
20
299.407
30
-74.0505
8
0
0
VERTEX
10
677.108
20
297.255
30
-75.7732
8
0
0
VERTEX
10
676.157
20
296.288
30
-77.2472
8
0
0
VERTEX
10
676.002
20
294.737
30
-78.846
8
0
0
VERTEX
10
675.846
20
293.179
30
-80.441
8
0
0
VERTEX
10
675.684
20
291.616
30
-82.0435
8
0
0
VERTEX
10
675.85
20
288.992
30
-84.4976
8
0
0
VERTEX
10
675.218
20
286.951
30
-86.8307
8
0
0
VERTEX
10
675.38
20
284.319
30
-89.2902
8
0
0
VERTEX
10
674.746
20
282.278
30
-91.625
8
0
0
VERTEX
10
673.639
20
279.762
30
-94.6982
8
0
0
VERTEX
10
674.273
20
277.608
30
-96.4199
8
0
0
VERTEX
10
672.848
20
276.168
30
-98.6297
8
0
0
VERTEX
10
673.645
20
275.575
30
-98.7536
8
0
0
VERTEX
10
673.485
20
274.019
30
-100.347
8
0
0
VERTEX
10
673.485
20
274.019
30
-100.347
8
0
0
VERTEX
10
673.485
20
274.019
30
-100.347
8
0
0
VERTEX
10
673.806
20
272.944
30
-101.213
8
0
0
VERTEX
10
674.126
20
271.869
30
-102.072
8
0
0
VERTEX
10
675.08
20
268.64
30
-104.655
8
0
0
VERTEX
10
675.716
20
266.487
30
-106.381
8
0
0
VERTEX
10
675.245
20
266.009
30
-107.112
8
0
0
VERTEX
10
675.245
20
266.009
30
-107.112
8
0
0
VERTEX
10
675.566
20
264.933
30
-107.974
8
0
0
VERTEX
10
675.403
20
263.374
30
-109.574
8
0
0
VERTEX
10
676.041
20
261.222
30
-111.295
8
0
0
VERTEX
10
675.561
20
260.739
30
-112.032
8
0
0
VERTEX
10
675.561
20
260.739
30
-112.032
8
0
0
VERTEX
10
675.561
20
260.739
30
-112.032
8
0
0
VERTEX
10
675.086
20
260.258
30
-112.769
8
0
0
VERTEX
10
675.882
20
259.665
30
-112.891
8
0
0
VERTEX
10
675.724
20
258.109
30
-114.491
8
0
0
VERTEX
10
675.724
20
258.109
30
-114.491
8
0
0
VERTEX
10
675.569
20
256.554
30
-116.088
8
0
0
VERTEX
10
675.886
20
255.475
30
-116.949
8
0
0
VERTEX
10
675.886
20
255.475
30
-116.949
8
0
0
VERTEX
10
675.886
20
255.475
30
-116.949
8
0
0
VERTEX
10
675.886
20
255.475
30
-116.949
8
0
0
VERTEX
10
675.886
20
255.475
30
-116.949
8
0
0
VERTEX
10
675.886
20
255.475
30
-116.949
8
0
0
VERTEX
10
675.407
20
254.993
30
-117.687
8
0
0
VERTEX
10
675.407
20
254.993
30
-117.687
8
0
0
VERTEX
10
674.461
20
254.034
30
-119.157
8
0
0
VERTEX
10
674.461
20
254.034
30
-119.157
8
0
0
VERTEX
10
674.778
20
252.957
30
-120.023
8
0
0
VERTEX
10
673.354
20
251.516
30
-122.231
8
0
0
VERTEX
10
672.878
20
251.035
30
-122.968
8
0
0
VERTEX
10
670.971
20
249.106
30
-125.913
8
0
0
VERTEX
10
670.023
20
248.147
30
-127.388
8
0
0
VERTEX
10
669.073
20
247.187
30
-128.859
8
0
0
VERTEX
10
668.12
20
246.222
30
-130.332
8
0
0
VERTEX
10
667.173
20
245.265
30
-131.807
8
0
0
VERTEX
10
665.743
20
243.816
30
-134.015
8
0
0
VERTEX
10
664.79
20
242.857
30
-135.488
8
0
0
VERTEX
10
664.318
20
242.377
30
-136.225
8
0
0
VERTEX
10
663.839
20
241.893
30
-136.967
8
0
0
VERTEX
10
662.412
20
240.45
30
-139.171
8
0
0
VERTEX
10
661.938
20
239.97
30
-139.908
8
0
0
VERTEX
10
661.462
20
239.491
30
-140.646
8
0
0
VERTEX
10
661.462
20
239.491
30
-140.646
8
0
0
VERTEX
10
660.988
20
239.009
30
-141.383
8
0
0
VERTEX
10
660.513
20
238.528
30
-142.12
8
0
0
VERTEX
10
660.513
20
238.528
30
-142.12
8
0
0
VERTEX
10
660.513
20
238.528
30
-142.12
8
0
0
VERTEX
10
660.513
20
238.528
30
-142.12
8
0
0
VERTEX
10
660.513
20
238.528
30
-142.12
8
0
0
VERTEX
10
660.513
20
238.528
30
-142.12
8
0
0
VERTEX
10
660.513
20
238.528
30
-142.12
8
0
0
VERTEX
10
660.513
20
238.528
30
-142.12
8
0
0
VERTEX
10
660.513
20
238.528
30
-142.12
8
0
0
VERTEX
10
660.513
20
238.528
30
-142.12
8
0
0
VERTEX
10
660.037
20
238.049
30
-142.854
8
0
0
VERTEX
10
660.037
20
238.049
30
-142.854
8
0
0
VERTEX
10
659.564
20
237.567
30
-143.592
8
0
0
VERTEX
10
659.086
20
237.086
30
-144.332
8
0
0
VERTEX
10
658.606
20
236.604
30
-145.064
8
0
0
VERTEX
10
657.66
20
235.642
30
-146.536
8
0
0
VERTEX
10
657.66
20
235.642
30
-146.536
8
0
0
VERTEX
10
657.66
20
235.642
30
-146.536
8
0
0
VERTEX
10
657.181
20
235.161
30
-147.275
8
0
0
VERTEX
10
657.181
20
235.161
30
-147.275
8
0
0
VERTEX
10
655.756
20
233.718
30
-149.486
8
0
0
VERTEX
10
654.803
20
232.755
30
-150.959
8
0
0
VERTEX
10
654.647
20
231.2
30
-152.556
8
0
0
VERTEX
10
653.697
20
230.237
30
-154.032
8
0
0
VERTEX
10
653.543
20
228.682
30
-155.627
8
0
0
VERTEX
10
652.59
20
227.719
30
-157.1
8
0
0
VERTEX
10
651.636
20
226.756
30
-158.577
8
0
0
VERTEX
10
651.16
20
226.275
30
-159.312
8
0
0
VERTEX
10
651.481
20
225.199
30
-160.173
8
0
0
VERTEX
10
650.532
20
224.24
30
-161.645
8
0
0
VERTEX
10
649.1
20
222.795
30
-163.854
8
0
0
VERTEX
10
648.146
20
221.832
30
-165.329
8
0
0
VERTEX
10
648.146
20
221.832
30
-165.329
8
0
0
VERTEX
10
647.677
20
221.351
30
-166.063
8
0
0
VERTEX
10
647.677
20
221.351
30
-166.063
8
0
0
VERTEX
10
647.2
20
220.874
30
-166.803
8
0
0
VERTEX
10
646.723
20
220.391
30
-167.536
8
0
0
VERTEX
10
646.723
20
220.391
30
-167.536
8
0
0
VERTEX
10
646.723
20
220.391
30
-167.536
8
0
0
VERTEX
10
646.723
20
220.391
30
-167.536
8
0
0
VERTEX
10
644.977
20
220.023
30
-168.885
8
0
0
VERTEX
10
641.646
20
220.848
30
-169.985
8
0
0
VERTEX
10
639.582
20
221.553
30
-170.472
8
0
0
VERTEX
10
637.517
20
222.264
30
-170.96
8
0
0
VERTEX
10
634.659
20
223.565
30
-171.322
8
0
0
VERTEX
10
632.597
20
224.277
30
-171.81
8
0
0
VERTEX
10
630.532
20
224.985
30
-172.3
8
0
0
VERTEX
10
629.262
20
225.097
30
-172.911
8
0
0
VERTEX
10
627.201
20
225.809
30
-173.4
8
0
0
VERTEX
10
624.34
20
227.112
30
-173.762
8
0
0
VERTEX
10
623.068
20
227.225
30
-174.374
8
0
0
VERTEX
10
622.594
20
226.744
30
-175.107
8
0
0
VERTEX
10
621.797
20
227.336
30
-174.99
8
0
0
VERTEX
10
619.734
20
228.049
30
-175.476
8
0
0
VERTEX
10
618.467
20
228.159
30
-176.087
8
0
0
VERTEX
10
617.989
20
227.68
30
-176.825
8
0
0
VERTEX
10
616.403
20
228.872
30
-176.575
8
0
0
VERTEX
10
615.606
20
229.464
30
-176.449
8
0
0
VERTEX
10
613.066
20
229.691
30
-177.674
8
0
0
VERTEX
10
611.799
20
229.806
30
-178.286
8
0
0
VERTEX
10
609.735
20
230.517
30
-178.774
8
0
0
VERTEX
10
608.461
20
230.625
30
-179.387
8
0
0
VERTEX
10
607.667
20
231.223
30
-179.262
8
0
0
VERTEX
10
606.399
20
231.337
30
-179.877
8
0
0
VERTEX
10
605.131
20
231.452
30
-180.488
8
0
0
VERTEX
10
603.86
20
231.564
30
-181.098
8
0
0
VERTEX
10
601.797
20
232.275
30
-181.585
8
0
0
VERTEX
10
601.001
20
232.865
30
-181.461
8
0
0
VERTEX
10
599.734
20
232.98
30
-182.075
8
0
0
VERTEX
10
597.199
20
233.214
30
-183.297
8
0
0
VERTEX
10
595.131
20
233.917
30
-183.789
8
0
0
VERTEX
10
593.387
20
233.551
30
-185.134
8
0
0
VERTEX
10
591.318
20
234.258
30
-185.624
8
0
0
VERTEX
10
588.778
20
234.488
30
-186.847
8
0
0
VERTEX
10
585.921
20
235.792
30
-187.212
8
0
0
VERTEX
10
584.651
20
235.904
30
-187.822
8
0
0
VERTEX
10
583.378
20
236.018
30
-188.437
8
0
0
VERTEX
10
581.636
20
235.653
30
-189.783
8
0
0
VERTEX
10
579.569
20
236.361
30
-190.272
8
0
0
VERTEX
10
577.508
20
237.073
30
-190.755
8
0
0
VERTEX
10
574.967
20
237.297
30
-191.984
8
0
0
VERTEX
10
572.903
20
238.005
30
-192.471
8
0
0
VERTEX
10
572.109
20
238.601
30
-192.345
8
0
0
VERTEX
10
570.838
20
238.716
30
-192.96
8
0
0
VERTEX
10
567.506
20
239.537
30
-194.059
8
0
0
VERTEX
10
566.235
20
239.649
30
-194.671
8
0
0
VERTEX
10
566.235
20
239.649
30
-194.671
8
0
0
VERTEX
10
566.235
20
239.649
30
-194.671
8
0
0
VERTEX
10
566.235
20
239.649
30
-194.671
8
0
0
VERTEX
10
566.235
20
239.649
30
-194.671
8
0
0
VERTEX
10
566.235
20
239.649
30
-194.671
8
0
0
VERTEX
10
564.172
20
240.359
30
-195.159
8
0
0
VERTEX
10
562.904
20
240.473
30
-195.77
8
0
0
VERTEX
10
560.365
20
240.702
30
-196.995
8
0
0
VERTEX
10
557.824
20
240.928
30
-198.221
8
0
0
VERTEX
10
554.015
20
241.27
30
-200.054
8
0
0
VERTEX
10
552.745
20
241.38
30
-200.668
8
0
0
VERTEX
10
550.681
20
242.093
30
-201.155
8
0
0
VERTEX
10
548.145
20
242.32
30
-202.377
8
0
0
VERTEX
10
546.078
20
243.03
30
-202.866
8
0
0
VERTEX
10
544.332
20
242.662
30
-204.218
8
0
0
VERTEX
10
542.266
20
243.37
30
-204.705
8
0
0
VERTEX
10
539.726
20
243.599
30
-205.929
8
0
0
VERTEX
10
537.662
20
244.307
30
-206.413
8
0
0
VERTEX
10
533.378
20
244.167
30
-208.994
8
0
0
VERTEX
10
531.316
20
244.878
30
-209.476
8
0
0
VERTEX
10
529.252
20
245.586
30
-209.967
8
0
0
VERTEX
10
526.711
20
245.813
30
-211.189
8
0
0
VERTEX
10
524.17
20
246.04
30
-212.414
8
0
0
VERTEX
10
522.901
20
246.152
30
-213.023
8
0
0
VERTEX
10
519.091
20
246.496
30
-214.862
8
0
0
VERTEX
10
517.026
20
247.203
30
-215.351
8
0
0
VERTEX
10
515.757
20
247.318
30
-215.965
8
0
0
VERTEX
10
513.696
20
248.028
30
-216.445
8
0
0
VERTEX
10
511.154
20
248.255
30
-217.674
8
0
0
VERTEX
10
509.412
20
247.89
30
-219.022
8
0
0
VERTEX
10
507.348
20
248.596
30
-219.51
8
0
0
VERTEX
10
506.077
20
248.71
30
-220.118
8
0
0
VERTEX
10
505.28
20
249.303
30
-219.998
8
0
0
VERTEX
10
504.013
20
249.417
30
-220.608
8
0
0
VERTEX
10
502.737
20
249.533
30
-221.224
8
0
0
VERTEX
10
502.737
20
249.533
30
-221.224
8
0
0
VERTEX
10
502.737
20
249.533
30
-221.224
8
0
0
VERTEX
10
501.47
20
249.645
30
-221.833
8
0
0
SEQEND
0
POLYLINE
8
1
62
252
66
1
40
1
41
1
70
8
0
VERTEX
10
503.207
20
258.392
30
-212.375
8
0
0
VERTEX
10
503.526
20
257.317
30
-213.234
8
0
0
VERTEX
10
503.371
20
255.758
30
-214.833
8
0
0
VERTEX
10
502.894
20
255.279
30
-215.567
8
0
0
VERTEX
10
503.055
20
252.645
30
-218.026
8
0
0
SEQEND
0
POLYLINE
8
1
62
252
66
1
40
1
41
1
70
8
0
VERTEX
10
500.994
20
249.164
30
-222.571
8
0
0
VERTEX
10
500.994
20
249.164
30
-222.571
8
0
0
VERTEX
10
500.994
20
249.164
30
-222.571
8
0
0
VERTEX
10
500.994
20
249.164
30
-222.571
8
0
0
VERTEX
10
500.676
20
250.242
30
-221.709
8
0
0
VERTEX
10
500.676
20
250.242
30
-221.709
8
0
0
VERTEX
10
500.356
20
251.315
30
-220.853
8
0
0
VERTEX
10
499.561
20
251.911
30
-220.727
8
0
0
VERTEX
10
500.042
20
252.392
30
-219.989
8
0
0
VERTEX
10
498.923
20
254.065
30
-219.005
8
0
0
VERTEX
10
498.607
20
255.14
30
-218.14
8
0
0
VERTEX
10
498.607
20
255.14
30
-218.14
8
0
0
VERTEX
10
497.815
20
255.736
30
-218.015
8
0
0
VERTEX
10
498.29
20
256.216
30
-217.28
8
0
0
VERTEX
10
496.7
20
257.402
30
-217.03
8
0
0
VERTEX
10
496.857
20
258.962
30
-215.434
8
0
0
VERTEX
10
495.745
20
260.635
30
-214.446
8
0
0
VERTEX
10
495.745
20
260.635
30
-214.446
8
0
0
VERTEX
10
495.426
20
261.709
30
-213.588
8
0
0
VERTEX
10
494.789
20
263.859
30
-211.863
8
0
0
VERTEX
10
493.994
20
264.451
30
-211.742
8
0
0
VERTEX
10
493.674
20
265.532
30
-210.879
8
0
0
VERTEX
10
493.358
20
266.604
30
-210.018
8
0
0
VERTEX
10
492.399
20
269.83
30
-207.436
8
0
0
VERTEX
10
491.764
20
271.983
30
-205.713
8
0
0
VERTEX
10
491.443
20
273.062
30
-204.849
8
0
0
VERTEX
10
491.125
20
274.135
30
-203.991
8
0
0
VERTEX
10
490.805
20
275.209
30
-203.131
8
0
0
VERTEX
10
490.009
20
275.807
30
-203.011
8
0
0
VERTEX
10
490.171
20
277.359
30
-201.408
8
0
0
VERTEX
10
489.055
20
279.031
30
-200.423
8
0
0
VERTEX
10
489.53
20
279.511
30
-199.688
8
0
0
VERTEX
10
488.422
20
281.184
30
-198.702
8
0
0
VERTEX
10
488.258
20
283.819
30
-196.239
8
0
0
VERTEX
10
487.151
20
285.487
30
-195.254
8
0
0
VERTEX
10
487.624
20
285.97
30
-194.518
8
0
0
VERTEX
10
486.829
20
286.563
30
-194.394
8
0
0
VERTEX
10
486.984
20
288.12
30
-192.796
8
0
0
VERTEX
10
485.869
20
289.793
30
-191.812
8
0
0
VERTEX
10
485.551
20
290.865
30
-190.95
8
0
0
VERTEX
10
485.551
20
290.865
30
-190.95
8
0
0
VERTEX
10
485.23
20
291.94
30
-190.091
8
0
0
VERTEX
10
484.913
20
293.017
30
-189.228
8
0
0
VERTEX
10
483.481
20
295.765
30
-187.384
8
0
0
VERTEX
10
482.845
20
297.918
30
-185.66
8
0
0
VERTEX
10
482.05
20
298.512
30
-185.539
8
0
0
VERTEX
10
482.05
20
298.512
30
-185.539
8
0
0
VERTEX
10
482.05
20
298.512
30
-185.539
8
0
0
VERTEX
10
481.733
20
299.587
30
-184.674
8
0
0
VERTEX
10
480.937
20
300.18
30
-184.555
8
0
0
VERTEX
10
480.621
20
301.257
30
-183.689
8
0
0
VERTEX
10
479.982
20
303.408
30
-181.967
8
0
0
VERTEX
10
477.756
20
306.748
30
-179.996
8
0
0
VERTEX
10
477.119
20
308.9
30
-178.275
8
0
0
VERTEX
10
476.324
20
309.496
30
-178.149
8
0
0
VERTEX
10
476.001
20
310.573
30
-177.289
8
0
0
VERTEX
10
475.367
20
312.721
30
-175.565
8
0
0
VERTEX
10
474.253
20
314.395
30
-174.581
8
0
0
VERTEX
10
473.142
20
316.064
30
-173.597
8
0
0
VERTEX
10
472.504
20
318.221
30
-171.873
8
0
0
VERTEX
10
471.867
20
320.37
30
-170.149
8
0
0
VERTEX
10
471.549
20
321.44
30
-169.292
8
0
0
VERTEX
10
471.549
20
321.44
30
-169.292
8
0
0
VERTEX
10
470.755
20
322.039
30
-169.163
8
0
0
VERTEX
10
470.438
20
323.114
30
-168.304
8
0
0
VERTEX
10
469.003
20
325.863
30
-166.457
8
0
0
VERTEX
10
467.891
20
327.527
30
-165.468
8
0
0
VERTEX
10
466.775
20
329.203
30
-164.486
8
0
0
VERTEX
10
465.665
20
330.872
30
-163.498
8
0
0
VERTEX
10
464.551
20
332.549
30
-162.518
8
0
0
VERTEX
10
463.913
20
334.697
30
-160.794
8
0
0
VERTEX
10
462.481
20
337.443
30
-158.947
8
0
0
VERTEX
10
461.372
20
339.111
30
-157.963
8
0
0
VERTEX
10
460.731
20
341.264
30
-156.24
8
0
0
VERTEX
10
460.41
20
342.343
30
-155.381
8
0
0
VERTEX
10
459.3
20
344.012
30
-154.392
8
0
0
VERTEX
10
457.55
20
347.832
30
-151.688
8
0
0
VERTEX
10
456.434
20
349.502
30
-150.701
8
0
0
VERTEX
10
455.322
20
351.172
30
-149.713
8
0
0
VERTEX
10
454.209
20
352.845
30
-148.73
8
0
0
VERTEX
10
453.572
20
354.997
30
-147.007
8
0
0
VERTEX
10
453.254
20
356.072
30
-146.147
8
0
0
VERTEX
10
452.142
20
357.74
30
-145.161
8
0
0
VERTEX
10
451.827
20
358.818
30
-144.298
8
0
0
VERTEX
10
450.711
20
360.487
30
-143.313
8
0
0
VERTEX
10
450.074
20
362.641
30
-141.592
8
0
0
VERTEX
10
450.074
20
362.641
30
-141.592
8
0
0
VERTEX
10
449.757
20
363.713
30
-140.73
8
0
0
VERTEX
10
449.438
20
364.79
30
-139.868
8
0
0
VERTEX
10
448.321
20
366.463
30
-138.883
8
0
0
VERTEX
10
446.571
20
370.284
30
-136.175
8
0
0
VERTEX
10
445.932
20
372.438
30
-134.451
8
0
0
VERTEX
10
445.141
20
373.034
30
-134.326
8
0
0
VERTEX
10
445.616
20
373.516
30
-133.593
8
0
0
VERTEX
10
444.823
20
374.109
30
-133.465
8
0
0
VERTEX
10
444.823
20
374.109
30
-133.465
8
0
0
VERTEX
10
444.823
20
374.109
30
-133.465
8
0
0
VERTEX
10
444.504
20
375.186
30
-132.603
8
0
0
VERTEX
10
444.504
20
375.186
30
-132.603
8
0
0
VERTEX
10
444.504
20
375.186
30
-132.603
8
0
0
VERTEX
10
444.504
20
375.186
30
-132.603
8
0
0
VERTEX
10
444.504
20
375.186
30
-132.603
8
0
0
VERTEX
10
444.504
20
375.186
30
-132.603
8
0
0
SEQEND
0
POLYLINE
8
1
62
252
66
1
40
1
41
1
70
8
0
VERTEX
10
443.703
20
379.965
30
-128.426
8
0
0
VERTEX
10
443.703
20
379.965
30
-128.426
8
0
0
VERTEX
10
444.179
20
380.451
30
-127.685
8
0
0
VERTEX
10
445.927
20
380.816
30
-126.338
8
0
0
VERTEX
10
446.874
20
381.773
30
-124.866
8
0
0
VERTEX
10
448.62
20
382.143
30
-123.519
8
0
0
VERTEX
10
451.314
20
383.473
30
-120.694
8
0
0
VERTEX
10
453.065
20
383.838
30
-119.347
8
0
0
VERTEX
10
454.811
20
384.207
30
-117.999
8
0
0
VERTEX
10
457.028
20
385.057
30
-115.912
8
0
0
VERTEX
10
457.504
20
385.538
30
-115.176
8
0
0
VERTEX
10
459.25
20
385.906
30
-113.827
8
0
0
VERTEX
10
460.994
20
386.275
30
-112.482
8
0
0
VERTEX
10
461.943
20
387.235
30
-111.006
8
0
0
VERTEX
10
463.217
20
387.119
30
-110.395
8
0
0
VERTEX
10
464.167
20
388.077
30
-108.921
8
0
0
VERTEX
10
465.437
20
387.966
30
-108.307
8
0
0
VERTEX
10
466.387
20
388.929
30
-106.834
8
0
0
VERTEX
10
468.135
20
389.296
30
-105.484
8
0
0
VERTEX
10
469.879
20
389.66
30
-104.139
8
0
0
VERTEX
10
471.623
20
390.032
30
-102.787
8
0
0
VERTEX
10
472.1
20
390.513
30
-102.049
8
0
0
VERTEX
10
475.116
20
390.76
30
-100.092
8
0
0
VERTEX
10
476.067
20
391.723
30
-98.6153
8
0
0
VERTEX
10
477.814
20
392.091
30
-97.2668
8
0
0
VERTEX
10
479.083
20
391.977
30
-96.6558
8
0
0
VERTEX
10
481.779
20
393.307
30
-93.8324
8
0
0
VERTEX
10
482.253
20
393.787
30
-93.0981
8
0
0
VERTEX
10
483.523
20
393.672
30
-92.4857
8
0
0
VERTEX
10
485.746
20
394.524
30
-90.3973
8
0
0
VERTEX
10
487.489
20
394.889
30
-89.0537
8
0
0
VERTEX
10
490.507
20
395.143
30
-87.0892
8
0
0
VERTEX
10
492.727
20
395.987
30
-85.0057
8
0
0
VERTEX
10
493.675
20
396.954
30
-83.5329
8
0
0
VERTEX
10
494.946
20
396.838
30
-82.9223
8
0
0
VERTEX
10
496.219
20
396.725
30
-82.3086
8
0
0
VERTEX
10
499.232
20
396.976
30
-80.348
8
0
0
VERTEX
10
500.503
20
396.862
30
-79.7361
8
0
0
VERTEX
10
502.247
20
397.228
30
-78.3869
8
0
0
VERTEX
10
504.466
20
398.078
30
-76.3016
8
0
0
VERTEX
10
505.738
20
397.965
30
-75.6893
8
0
0
VERTEX
10
507.485
20
398.33
30
-74.3377
8
0
0
VERTEX
10
510.496
20
398.584
30
-72.3792
8
0
0
VERTEX
10
513.034
20
398.356
30
-71.1549
8
0
0
VERTEX
10
514.777
20
398.724
30
-69.8069
8
0
0
VERTEX
10
516.523
20
399.091
30
-68.4555
8
0
0
VERTEX
10
518.272
20
399.456
30
-67.1086
8
0
0
VERTEX
10
520.015
20
399.826
30
-65.7594
8
0
0
VERTEX
10
522.552
20
399.595
30
-64.5364
8
0
0
VERTEX
10
523.504
20
400.557
30
-63.0659
8
0
0
VERTEX
10
526.519
20
400.812
30
-61.1027
8
0
0
VERTEX
10
529.06
20
400.584
30
-59.8794
8
0
0
VERTEX
10
532.551
20
401.321
30
-57.1814
8
0
0
VERTEX
10
535.09
20
401.09
30
-55.9599
8
0
0
VERTEX
10
538.104
20
401.346
30
-53.9966
8
0
0
VERTEX
10
541.594
20
402.074
30
-51.2984
8
0
0
VERTEX
10
543.343
20
402.445
30
-49.9491
8
0
0
VERTEX
10
547.628
20
402.587
30
-47.3747
8
0
0
VERTEX
10
549.373
20
402.954
30
-46.0284
8
0
0
VERTEX
10
550.645
20
402.842
30
-45.4119
8
0
0
VERTEX
10
553.662
20
403.092
30
-43.4542
8
0
0
VERTEX
10
556.673
20
403.344
30
-41.4959
8
0
0
VERTEX
10
559.689
20
403.599
30
-39.5334
8
0
0
VERTEX
10
562.703
20
403.856
30
-37.5716
8
0
0
VERTEX
10
564.769
20
403.143
30
-37.0791
8
0
0
VERTEX
10
566.042
20
403.031
30
-36.4704
8
0
0
VERTEX
10
567.309
20
402.916
30
-35.8576
8
0
0
VERTEX
10
569.057
20
403.285
30
-34.51
8
0
0
VERTEX
10
570.005
20
404.244
30
-33.0393
8
0
0
VERTEX
10
573.819
20
403.902
30
-31.2021
8
0
0
VERTEX
10
575.086
20
403.787
30
-30.5899
8
0
0
VERTEX
10
577.626
20
403.563
30
-29.3615
8
0
0
VERTEX
10
579.372
20
403.928
30
-28.0161
8
0
0
VERTEX
10
581.121
20
404.296
30
-26.6638
8
0
0
VERTEX
10
582.861
20
404.663
30
-25.3163
8
0
0
VERTEX
10
584.132
20
404.555
30
-24.7057
8
0
0
VERTEX
10
587.946
20
404.211
30
-22.8662
8
0
0
VERTEX
10
590.96
20
404.464
30
-20.9061
8
0
0
VERTEX
10
592.705
20
404.831
30
-19.5589
8
0
0
VERTEX
10
595.722
20
405.086
30
-17.5951
8
0
0
VERTEX
10
597.942
20
405.93
30
-15.5093
8
0
0
VERTEX
10
599.211
20
405.817
30
-14.8972
8
0
0
VERTEX
10
600.955
20
406.184
30
-13.549
8
0
0
VERTEX
10
601.905
20
407.145
30
-12.078
8
0
0
VERTEX
10
603.179
20
407.03
30
-11.4658
8
0
0
VERTEX
10
605.4
20
407.882
30
-9.37954
8
0
0
VERTEX
10
608.417
20
408.134
30
-7.4166
8
0
0
VERTEX
10
610.161
20
408.498
30
-6.06919
8
0
0
VERTEX
10
613.179
20
408.756
30
-4.10793
8
0
0
VERTEX
10
614.918
20
409.12
30
-2.75795
8
0
0
VERTEX
10
617.142
20
409.971
30
-0.670016
8
0
0
VERTEX
10
618.883
20
410.338
30
0.673679
8
0
0
VERTEX
10
620.156
20
410.222
30
1.28917
8
0
0
VERTEX
10
623.171
20
410.477
30
3.2463
8
0
0
VERTEX
10
626.189
20
410.732
30
5.21111
8
0
0
VERTEX
10
629.203
20
410.986
30
7.17209
8
0
0
VERTEX
10
632.217
20
411.236
30
9.12967
8
0
0
VERTEX
10
634.758
20
411.009
30
10.3559
8
0
0
VERTEX
10
636.03
20
410.898
30
10.97
8
0
0
VERTEX
10
637.775
20
411.266
30
12.3183
8
0
0
VERTEX
10
639.038
20
411.149
30
12.9261
8
0
0
VERTEX
10
640.788
20
411.518
30
14.2759
8
0
0
VERTEX
10
642.057
20
411.403
30
14.8888
8
0
0
VERTEX
10
643.322
20
411.289
30
15.5033
8
0
0
VERTEX
10
644.594
20
411.177
30
16.1147
8
0
0
VERTEX
10
646.338
20
411.539
30
17.4614
8
0
0
VERTEX
10
648.88
20
411.314
30
18.6874
8
0
0
VERTEX
10
650.145
20
411.199
30
19.2961
8
0
0
VERTEX
10
653.164
20
411.451
30
21.2562
8
0
0
VERTEX
10
654.438
20
411.343
30
21.8732
8
0
0
VERTEX
10
655.704
20
411.226
30
22.4819
8
0
0
VERTEX
10
657.769
20
410.521
30
22.972
8
0
0
VERTEX
10
659.513
20
410.887
30
24.3213
8
0
0
VERTEX
10
662.85
20
410.062
30
25.4205
8
0
0
VERTEX
10
664.118
20
409.947
30
26.03
8
0
0
VERTEX
10
665.387
20
409.83
30
26.6458
8
0
0
VERTEX
10
665.864
20
410.312
30
27.3838
8
0
0
VERTEX
10
666.659
20
409.718
30
27.257
8
0
0
VERTEX
10
667.926
20
409.607
30
27.871
8
0
0
VERTEX
10
669.197
20
409.491
30
28.4826
8
0
0
VERTEX
10
669.671
20
409.971
30
29.214
8
0
0
VERTEX
10
670.461
20
409.378
30
29.0899
8
0
0
VERTEX
10
670.461
20
409.378
30
29.0899
8
0
0
VERTEX
10
671.734
20
409.264
30
29.704
8
0
0
VERTEX
10
672.528
20
408.669
30
29.5795
8
0
0
VERTEX
10
671.099
20
407.227
30
27.3706
8
0
0
SEQEND
0
POLYLINE
8
1
62
252
66
1
40
1
41
1
70
8
0
VERTEX
10
591.807
20
310.254
30
8.82593
8
0
0
VERTEX
10
591.333
20
309.772
30
8.08864
8
0
0
VERTEX
10
590.38
20
308.814
30
6.61645
8
0
0
VERTEX
10
589.429
20
307.849
30
5.14108
8
0
0
VERTEX
10
588.476
20
306.88
30
3.66843
8
0
0
VERTEX
10
587.046
20
305.442
30
1.46272
8
0
0
VERTEX
10
586.098
20
304.482
30
-0.010912
8
0
0
VERTEX
10
585.152
20
303.525
30
-1.48298
8
0
0
VERTEX
10
584.202
20
302.561
30
-2.95911
8
0
0
VERTEX
10
582.776
20
301.115
30
-5.17021
8
0
0
VERTEX
10
581.346
20
299.673
30
-7.38048
8
0
0
VERTEX
10
579.915
20
298.23
30
-9.59254
8
0
0
VERTEX
10
578.964
20
297.266
30
-11.0637
8
0
0
VERTEX
10
578.014
20
296.306
30
-12.5384
8
0
0
VERTEX
10
577.063
20
295.342
30
-14.0117
8
0
0
VERTEX
10
576.113
20
294.381
30
-15.4808
8
0
0
VERTEX
10
574.686
20
292.938
30
-17.6907
8
0
0
VERTEX
10
573.258
20
291.498
30
-19.9019
8
0
0
VERTEX
10
572.306
20
290.533
30
-21.3773
8
0
0
VERTEX
10
570.879
20
289.089
30
-23.5847
8
0
0
VERTEX
10
569.931
20
288.13
30
-25.0587
8
0
0
VERTEX
10
568.979
20
287.167
30
-26.5327
8
0
0
VERTEX
10
568.027
20
286.203
30
-28.0032
8
0
0
VERTEX
10
566.6
20
284.759
30
-30.2138
8
0
0
VERTEX
10
564.697
20
282.84
30
-33.1575
8
0
0
VERTEX
10
562.324
20
280.435
30
-36.8392
8
0
0
VERTEX
10
561.373
20
279.477
30
-38.3101
8
0
0
VERTEX
10
559.947
20
278.032
30
-40.5238
8
0
0
VERTEX
10
557.57
20
275.627
30
-44.207
8
0
0
VERTEX
10
555.669
20
273.702
30
-47.1549
8
0
0
VERTEX
10
554.238
20
272.26
30
-49.3651
8
0
0
VERTEX
10
551.865
20
269.856
30
-53.0485
8
0
0
VERTEX
10
550.434
20
268.411
30
-55.2575
8
0
0
VERTEX
10
548.216
20
267.565
30
-57.3433
8
0
0
VERTEX
10
546.79
20
266.126
30
-59.5528
8
0
0
VERTEX
10
544.886
20
264.199
30
-62.498
8
0
0
VERTEX
10
543.46
20
262.755
30
-64.7098
8
0
0
VERTEX
10
542.51
20
261.792
30
-66.1848
8
0
0
VERTEX
10
541.083
20
260.352
30
-68.3932
8
0
0
VERTEX
10
540.13
20
259.391
30
-69.8669
8
0
0
VERTEX
10
539.181
20
258.428
30
-71.3372
8
0
0
VERTEX
10
538.23
20
257.463
30
-72.8125
8
0
0
VERTEX
10
537.277
20
256.502
30
-74.2867
8
0
0
VERTEX
10
535.85
20
255.057
30
-76.4956
8
0
0
VERTEX
10
534.426
20
253.613
30
-78.7033
8
0
0
VERTEX
10
532.683
20
253.25
30
-80.0544
8
0
0
VERTEX
10
531.251
20
251.808
30
-82.2627
8
0
0
VERTEX
10
529.351
20
249.884
30
-85.2093
8
0
0
VERTEX
10
527.923
20
248.442
30
-87.42
8
0
0
VERTEX
10
524.752
20
246.631
30
-90.979
8
0
0
VERTEX
10
523.326
20
245.187
30
-93.1871
8
0
0
VERTEX
10
521.897
20
243.744
30
-95.401
8
0
0
VERTEX
10
521.423
20
243.265
30
-96.1372
8
0
0
VERTEX
10
520.945
20
242.783
30
-96.873
8
0
0
VERTEX
10
519.995
20
241.819
30
-98.3478
8
0
0
VERTEX
10
519.045
20
240.858
30
-99.8186
8
0
0
VERTEX
10
517.772
20
240.973
30
-100.43
8
0
0
VERTEX
10
516.822
20
240.012
30
-101.901
8
0
0
VERTEX
10
515.396
20
238.57
30
-104.112
8
0
0
VERTEX
10
513.969
20
237.126
30
-106.325
8
0
0
VERTEX
10
512.542
20
235.681
30
-108.533
8
0
0
VERTEX
10
511.593
20
234.719
30
-110.006
8
0
0
VERTEX
10
510.164
20
233.279
30
-112.215
8
0
0
VERTEX
10
509.69
20
232.798
30
-112.953
8
0
0
VERTEX
10
508.421
20
232.91
30
-113.565
8
0
0
VERTEX
10
507.47
20
231.946
30
-115.038
8
0
0
VERTEX
10
505.569
20
230.025
30
-117.984
8
0
0
VERTEX
10
504.139
20
228.581
30
-120.195
8
0
0
VERTEX
10
502.237
20
226.657
30
-123.142
8
0
0
VERTEX
10
500.335
20
224.734
30
-126.086
8
0
0
VERTEX
10
498.908
20
223.29
30
-128.296
8
0
0
VERTEX
10
497.481
20
221.849
30
-130.508
8
0
0
VERTEX
10
496.533
20
220.884
30
-131.98
8
0
0
VERTEX
10
496.053
20
220.403
30
-132.718
8
0
0
VERTEX
10
495.102
20
219.442
30
-134.192
8
0
0
VERTEX
10
493.677
20
217.999
30
-136.402
8
0
0
VERTEX
10
493.201
20
217.518
30
-137.138
8
0
0
VERTEX
10
492.25
20
216.557
30
-138.61
8
0
0
VERTEX
10
490.823
20
215.111
30
-140.821
8
0
0
VERTEX
10
489.875
20
214.15
30
-142.291
8
0
0
VERTEX
10
488.446
20
212.708
30
-144.504
8
0
0
VERTEX
10
487.339
20
210.191
30
-147.572
8
0
0
VERTEX
10
486.386
20
209.229
30
-149.047
8
0
0
VERTEX
10
485.282
20
206.712
30
-152.117
8
0
0
VERTEX
10
483.852
20
205.266
30
-154.329
8
0
0
VERTEX
10
482.426
20
203.821
30
-156.539
8
0
0
VERTEX
10
481.474
20
202.861
30
-158.009
8
0
0
VERTEX
10
480.523
20
201.9
30
-159.485
8
0
0
VERTEX
10
480.046
20
201.416
30
-160.222
8
0
0
VERTEX
10
480.364
20
200.341
30
-161.082
8
0
0
VERTEX
10
479.892
20
199.861
30
-161.819
8
0
0
VERTEX
10
479.416
20
199.379
30
-162.556
8
0
0
VERTEX
10
478.939
20
198.903
30
-163.29
8
0
0
VERTEX
10
478.939
20
198.903
30
-163.29
8
0
0
VERTEX
10
478.462
20
198.42
30
-164.032
8
0
0
VERTEX
10
477.985
20
197.936
30
-164.769
8
0
0
VERTEX
10
477.512
20
197.453
30
-165.502
8
0
0
VERTEX
10
477.036
20
196.976
30
-166.24
8
0
0
VERTEX
10
477.036
20
196.976
30
-166.24
8
0
0
VERTEX
10
476.563
20
196.493
30
-166.977
8
0
0
VERTEX
10
476.087
20
196.014
30
-167.713
8
0
0
VERTEX
10
475.61
20
195.534
30
-168.452
8
0
0
VERTEX
10
474.186
20
194.089
30
-170.656
8
0
0
VERTEX
10
474.186
20
194.089
30
-170.656
8
0
0
SEQEND
0
POLYLINE
8
1
62
252
66
1
40
1
41
1
70
8
0
VERTEX
10
651.697
20
312.788
30
9.24486
8
0
0
VERTEX
10
651.222
20
312.305
30
8.50661
8
0
0
VERTEX
10
650.741
20
311.828
30
7.77325
8
0
0
VERTEX
10
650.27
20
311.345
30
7.0388
8
0
0
VERTEX
10
649.317
20
310.384
30
5.56204
8
0
0
VERTEX
10
648.844
20
309.904
30
4.8262
8
0
0
VERTEX
10
648.365
20
309.419
30
4.08747
8
0
0
VERTEX
10
647.411
20
308.458
30
2.6147
8
0
0
VERTEX
10
646.458
20
307.492
30
1.13468
8
0
0
VERTEX
10
645.51
20
306.533
30
-0.329678
8
0
0
VERTEX
10
645.033
20
306.055
30
-1.06787
8
0
0
VERTEX
10
644.081
20
305.086
30
-2.54324
8
0
0
VERTEX
10
643.128
20
304.128
30
-4.01229
8
0
0
VERTEX
10
642.175
20
303.162
30
-5.48848
8
0
0
VERTEX
10
641.227
20
302.203
30
-6.96112
8
0
0
VERTEX
10
640.278
20
301.242
30
-8.43542
8
0
0
VERTEX
10
639.326
20
300.283
30
-9.90616
8
0
0
VERTEX
10
638.374
20
299.315
30
-11.3819
8
0
0
VERTEX
10
636.948
20
297.875
30
-13.5927
8
0
0
VERTEX
10
635.997
20
296.915
30
-15.0666
8
0
0
VERTEX
10
634.573
20
295.472
30
-17.2748
8
0
0
VERTEX
10
632.666
20
293.548
30
-20.2212
8
0
0
VERTEX
10
631.716
20
292.584
30
-21.6931
8
0
0
VERTEX
10
630.762
20
291.624
30
-23.1662
8
0
0
VERTEX
10
629.339
20
290.18
30
-25.38
8
0
0
VERTEX
10
626.961
20
287.778
30
-29.0609
8
0
0
VERTEX
10
625.528
20
286.331
30
-31.2704
8
0
0
VERTEX
10
624.11
20
284.889
30
-33.4814
8
0
0
VERTEX
10
623.475
20
282.852
30
-35.8152
8
0
0
VERTEX
10
622.049
20
281.41
30
-38.0231
8
0
0
VERTEX
10
620.622
20
279.966
30
-40.2315
8
0
0
VERTEX
10
618.718
20
278.044
30
-43.1802
8
0
0
VERTEX
10
617.769
20
277.082
30
-44.6496
8
0
0
VERTEX
10
616.818
20
276.118
30
-46.1273
8
0
0
VERTEX
10
615.71
20
273.6
30
-49.1956
8
0
0
VERTEX
10
614.283
20
272.155
30
-51.4079
8
0
0
VERTEX
10
612.85
20
270.713
30
-53.6178
8
0
0
VERTEX
10
611.9
20
269.751
30
-55.0919
8
0
0
VERTEX
10
610.475
20
268.313
30
-57.2999
8
0
0
VERTEX
10
608.575
20
266.385
30
-60.2472
8
0
0
VERTEX
10
607.152
20
264.944
30
-62.4557
8
0
0
VERTEX
10
605.724
20
263.499
30
-64.668
8
0
0
VERTEX
10
604.769
20
262.534
30
-66.1403
8
0
0
VERTEX
10
601.916
20
259.651
30
-70.5587
8
0
0
VERTEX
10
600.964
20
258.689
30
-72.0328
8
0
0
VERTEX
10
599.535
20
257.246
30
-74.2403
8
0
0
VERTEX
10
598.11
20
255.801
30
-76.4529
8
0
0
VERTEX
10
597.159
20
254.84
30
-77.9238
8
0
0
VERTEX
10
596.206
20
253.878
30
-79.4003
8
0
0
VERTEX
10
594.782
20
252.437
30
-81.6106
8
0
0
VERTEX
10
593.832
20
251.475
30
-83.081
8
0
0
VERTEX
10
592.404
20
250.031
30
-85.2914
8
0
0
VERTEX
10
590.028
20
247.628
30
-88.9739
8
0
0
VERTEX
10
588.602
20
246.184
30
-91.1831
8
0
0
VERTEX
10
586.698
20
244.266
30
-94.1278
8
0
0
VERTEX
10
584.799
20
242.34
30
-97.0787
8
0
0
VERTEX
10
582.897
20
240.414
30
-100.023
8
0
0
VERTEX
10
581.468
20
238.973
30
-102.233
8
0
0
VERTEX
10
580.2
20
239.084
30
-102.845
8
0
0
VERTEX
10
579.252
20
238.124
30
-104.319
8
0
0
VERTEX
10
577.346
20
236.201
30
-107.264
8
0
0
VERTEX
10
576.075
20
236.313
30
-107.876
8
0
0
VERTEX
10
575.6
20
235.833
30
-108.613
8
0
0
VERTEX
10
574.647
20
234.872
30
-110.09
8
0
0
VERTEX
10
571.954
20
233.543
30
-112.907
8
0
0
VERTEX
10
571.002
20
232.581
30
-114.382
8
0
0
VERTEX
10
569.576
20
231.141
30
-116.59
8
0
0
VERTEX
10
568.306
20
231.252
30
-117.206
8
0
0
VERTEX
10
566.56
20
230.887
30
-118.554
8
0
0
VERTEX
10
565.607
20
229.924
30
-120.027
8
0
0
VERTEX
10
563.865
20
229.556
30
-121.374
8
0
0
VERTEX
10
562.914
20
228.595
30
-122.848
8
0
0
VERTEX
10
561.644
20
228.71
30
-123.458
8
0
0
VERTEX
10
559.742
20
226.785
30
-126.406
8
0
0
VERTEX
10
557.994
20
226.416
30
-127.757
8
0
0
VERTEX
10
557.044
20
225.454
30
-129.227
8
0
0
VERTEX
10
555.621
20
224.012
30
-131.438
8
0
0
VERTEX
10
553.397
20
223.164
30
-133.522
8
0
0
VERTEX
10
551.495
20
221.237
30
-136.471
8
0
0
VERTEX
10
549.593
20
219.315
30
-139.416
8
0
0
VERTEX
10
547.373
20
218.468
30
-141.5
8
0
0
VERTEX
10
545.469
20
216.543
30
-144.452
8
0
0
VERTEX
10
543.566
20
214.617
30
-147.399
8
0
0
VERTEX
10
541.819
20
214.254
30
-148.747
8
0
0
VERTEX
10
540.393
20
212.806
30
-150.954
8
0
0
VERTEX
10
538.968
20
211.364
30
-153.164
8
0
0
VERTEX
10
536.748
20
210.518
30
-155.25
8
0
0
VERTEX
10
535.319
20
209.075
30
-157.462
8
0
0
VERTEX
10
533.418
20
207.148
30
-160.407
8
0
0
VERTEX
10
531.676
20
206.783
30
-161.754
8
0
0
VERTEX
10
530.724
20
205.822
30
-163.23
8
0
0
VERTEX
10
529.297
20
204.381
30
-165.438
8
0
0
VERTEX
10
527.549
20
204.01
30
-166.788
8
0
0
VERTEX
10
526.123
20
202.57
30
-168.997
8
0
0
VERTEX
10
524.379
20
202.201
30
-170.346
8
0
0
VERTEX
10
523.428
20
201.24
30
-171.818
8
0
0
VERTEX
10
523.428
20
201.24
30
-171.818
8
0
0
VERTEX
10
521.682
20
200.873
30
-173.168
8
0
0
VERTEX
10
520.412
20
200.988
30
-173.78
8
0
0
VERTEX
10
519.461
20
200.027
30
-175.254
8
0
0
VERTEX
10
517.714
20
199.656
30
-176.602
8
0
0
VERTEX
10
515.971
20
199.29
30
-177.949
8
0
0
VERTEX
10
514.223
20
198.925
30
-179.297
8
0
0
VERTEX
10
513.747
20
198.441
30
-180.037
8
0
0
VERTEX
10
512.002
20
198.074
30
-181.384
8
0
0
VERTEX
10
512.002
20
198.074
30
-181.384
8
0
0
VERTEX
10
510.734
20
198.188
30
-181.997
8
0
0
VERTEX
10
510.734
20
198.188
30
-181.997
8
0
0
VERTEX
10
510.734
20
198.188
30
-181.997
8
0
0
VERTEX
10
510.734
20
198.188
30
-181.997
8
0
0
VERTEX
10
510.734
20
198.188
30
-181.997
8
0
0
SEQEND
0
POLYLINE
8
1
62
252
66
1
40
1
41
1
70
8
0
VERTEX
10
465.777
20
231.017
30
-175.767
8
0
0
VERTEX
10
466.252
20
231.495
30
-175.031
8
0
0
VERTEX
10
467.203
20
232.461
30
-173.553
8
0
0
VERTEX
10
467.357
20
234.017
30
-171.955
8
0
0
VERTEX
10
467.993
20
236.051
30
-169.622
8
0
0
VERTEX
10
467.993
20
236.051
30
-169.622
8
0
0
VERTEX
10
467.2
20
236.65
30
-169.499
8
0
0
VERTEX
10
467.833
20
238.687
30
-167.165
8
0
0
VERTEX
10
467.512
20
239.761
30
-166.304
8
0
0
VERTEX
10
467.672
20
241.319
30
-164.706
8
0
0
VERTEX
10
467.826
20
242.876
30
-163.107
8
0
0
VERTEX
10
467.986
20
244.432
30
-161.508
8
0
0
VERTEX
10
468.14
20
245.988
30
-159.913
8
0
0
VERTEX
10
468.299
20
247.548
30
-158.313
8
0
0
VERTEX
10
469.726
20
248.989
30
-156.104
8
0
0
VERTEX
10
469.408
20
250.065
30
-155.242
8
0
0
VERTEX
10
469.558
20
251.622
30
-153.647
8
0
0
VERTEX
10
470.193
20
253.66
30
-151.312
8
0
0
VERTEX
10
471.146
20
254.624
30
-149.838
8
0
0
VERTEX
10
471.777
20
256.659
30
-147.506
8
0
0
VERTEX
10
472.254
20
257.136
30
-146.767
8
0
0
VERTEX
10
473.518
20
261.215
30
-142.1
8
0
0
VERTEX
10
474.467
20
262.175
30
-140.628
8
0
0
VERTEX
10
475.102
20
264.211
30
-138.292
8
0
0
VERTEX
10
476.532
20
265.655
30
-136.082
8
0
0
VERTEX
10
477.482
20
266.617
30
-134.606
8
0
0
VERTEX
10
478.114
20
268.658
30
-132.271
8
0
0
VERTEX
10
479.066
20
269.619
30
-130.802
8
0
0
VERTEX
10
480.016
20
270.583
30
-129.326
8
0
0
VERTEX
10
479.222
20
271.176
30
-129.206
8
0
0
VERTEX
10
480.178
20
272.138
30
-127.729
8
0
0
VERTEX
10
482.705
20
276.099
30
-122.451
8
0
0
VERTEX
10
484.138
20
277.542
30
-120.24
8
0
0
VERTEX
10
485.085
20
278.503
30
-118.767
8
0
0
VERTEX
10
486.197
20
281.025
30
-115.695
8
0
0
VERTEX
10
488.095
20
282.949
30
-112.75
8
0
0
VERTEX
10
490.001
20
284.874
30
-109.801
8
0
0
VERTEX
10
491.108
20
287.388
30
-106.73
8
0
0
VERTEX
10
492.531
20
288.834
30
-104.521
8
0
0
VERTEX
10
493.959
20
290.274
30
-102.312
8
0
0
VERTEX
10
494.912
20
291.235
30
-100.838
8
0
0
VERTEX
10
496.811
20
293.165
30
-97.8915
8
0
0
VERTEX
10
498.242
20
294.603
30
-95.6797
8
0
0
VERTEX
10
499.19
20
295.567
30
-94.2088
8
0
0
VERTEX
10
500.143
20
296.525
30
-92.7323
8
0
0
VERTEX
10
502.048
20
298.452
30
-89.7867
8
0
0
VERTEX
10
502.679
20
300.49
30
-87.4555
8
0
0
VERTEX
10
503.627
20
301.451
30
-85.9811
8
0
0
VERTEX
10
506.005
20
303.855
30
-82.2983
8
0
0
VERTEX
10
507.431
20
305.299
30
-80.0869
8
0
0
VERTEX
10
508.859
20
306.741
30
-77.8774
8
0
0
VERTEX
10
510.761
20
308.666
30
-74.9297
8
0
0
VERTEX
10
512.665
20
310.588
30
-71.9859
8
0
0
VERTEX
10
514.09
20
312.033
30
-69.7778
8
0
0
VERTEX
10
515.994
20
313.959
30
-66.8303
8
0
0
VERTEX
10
517.898
20
315.882
30
-63.883
8
0
0
VERTEX
10
519.797
20
317.802
30
-60.9366
8
0
0
VERTEX
10
521.224
20
319.244
30
-58.7252
8
0
0
VERTEX
10
523.124
20
321.168
30
-55.7832
8
0
0
VERTEX
10
525.345
20
322.017
30
-53.6935
8
0
0
VERTEX
10
527.247
20
323.943
30
-50.7481
8
0
0
VERTEX
10
529.15
20
325.869
30
-47.799
8
0
0
VERTEX
10
531.053
20
327.79
30
-44.8548
8
0
0
VERTEX
10
532.956
20
329.717
30
-41.9103
8
0
0
VERTEX
10
535.331
20
332.117
30
-38.2229
8
0
0
VERTEX
10
536.283
20
333.079
30
-36.7536
8
0
0
VERTEX
10
538.188
20
335.004
30
-33.8073
8
0
0
VERTEX
10
539.135
20
335.963
30
-32.3352
8
0
0
VERTEX
10
539.61
20
336.447
30
-31.598
8
0
0
VERTEX
10
541.033
20
337.886
30
-29.3906
8
0
0
VERTEX
10
542.46
20
339.329
30
-27.1792
8
0
0
VERTEX
10
543.412
20
340.29
30
-25.7051
8
0
0
VERTEX
10
545.63
20
341.136
30
-23.6246
8
0
0
VERTEX
10
547.063
20
342.586
30
-21.4086
8
0
0
VERTEX
10
548.006
20
343.544
30
-19.9362
8
0
0
VERTEX
10
549.436
20
344.987
30
-17.7319
8
0
0
VERTEX
10
550.389
20
345.953
30
-16.2537
8
0
0
VERTEX
10
551.657
20
345.837
30
-15.64
8
0
0
VERTEX
10
552.611
20
346.796
30
-14.1666
8
0
0
VERTEX
10
553.564
20
347.762
30
-12.6921
8
0
0
VERTEX
10
554.512
20
348.727
30
-11.2191
8
0
0
VERTEX
10
554.986
20
349.207
30
-10.4852
8
0
0
VERTEX
10
555.941
20
350.167
30
-9.01124
8
0
0
VERTEX
10
556.89
20
351.13
30
-7.53893
8
0
0
VERTEX
10
557.848
20
352.094
30
-6.06414
8
0
0
VERTEX
10
558.796
20
353.053
30
-4.59296
8
0
0
VERTEX
10
559.272
20
353.533
30
-3.85611
8
0
0
VERTEX
10
559.746
20
354.02
30
-3.1182
8
0
0
VERTEX
10
561.49
20
354.38
30
-1.77415
8
0
0
VERTEX
10
562.445
20
355.343
30
-0.294593
8
0
0
VERTEX
10
563.391
20
356.303
30
1.18017
8
0
0
VERTEX
10
563.864
20
356.787
30
1.91166
8
0
0
VERTEX
10
565.133
20
356.672
30
2.52687
8
0
0
VERTEX
10
566.089
20
357.632
30
3.99754
8
0
0
VERTEX
10
567.039
20
358.596
30
5.46905
8
0
0
VERTEX
10
568.309
20
358.483
30
6.08525
8
0
0
VERTEX
10
569.262
20
359.447
30
7.56115
8
0
0
VERTEX
10
569.743
20
359.932
30
8.30043
8
0
0
VERTEX
10
570.212
20
360.406
30
9.03356
8
0
0
VERTEX
10
572.436
20
361.259
30
11.1194
8
0
0
VERTEX
10
572.908
20
361.737
30
11.8507
8
0
0
VERTEX
10
573.39
20
362.221
30
12.5915
8
0
0
VERTEX
10
573.865
20
362.697
30
13.3284
8
0
0
VERTEX
10
575.132
20
362.585
30
13.9394
8
0
0
VERTEX
10
575.606
20
363.065
30
14.6735
8
0
0
VERTEX
10
576.084
20
363.548
30
15.4138
8
0
0
VERTEX
10
576.084
20
363.548
30
15.4138
8
0
0
VERTEX
10
577.355
20
363.432
30
16.0246
8
0
0
VERTEX
10
578.307
20
364.397
30
17.4961
8
0
0
VERTEX
10
580.051
20
364.765
30
18.8492
8
0
0
VERTEX
10
580.525
20
365.244
30
19.5788
8
0
0
VERTEX
10
580.525
20
365.244
30
19.5788
8
0
0
VERTEX
10
580.525
20
365.244
30
19.5788
8
0
0
VERTEX
10
582.59
20
364.535
30
20.0706
8
0
0
SEQEND
0
POLYLINE
8
1
62
252
66
1
40
1
41
1
70
8
0
VERTEX
10
510.659
20
203.91
30
-185.688
8
0
0
VERTEX
10
510.659
20
203.91
30
-185.688
8
0
0
VERTEX
10
509.868
20
204.503
30
-185.565
8
0
0
VERTEX
10
509.074
20
205.097
30
-185.44
8
0
0
VERTEX
10
507.482
20
206.289
30
-185.19
8
0
0
VERTEX
10
506.688
20
206.883
30
-185.066
8
0
0
VERTEX
10
505.1
20
208.07
30
-184.818
8
0
0
VERTEX
10
503.832
20
208.189
30
-185.427
8
0
0
VERTEX
10
501.768
20
208.896
30
-185.917
8
0
0
VERTEX
10
500.971
20
209.49
30
-185.791
8
0
0
VERTEX
10
499.703
20
209.604
30
-186.405
8
0
0
VERTEX
10
497.636
20
210.314
30
-186.892
8
0
0
VERTEX
10
496.844
20
210.909
30
-186.766
8
0
0
VERTEX
10
495.575
20
211.022
30
-187.378
8
0
0
VERTEX
10
494.304
20
211.138
30
-187.991
8
0
0
VERTEX
10
492.716
20
212.327
30
-187.741
8
0
0
VERTEX
10
491.445
20
212.44
30
-188.354
8
0
0
VERTEX
10
489.381
20
213.15
30
-188.843
8
0
0
VERTEX
10
488.112
20
213.261
30
-189.457
8
0
0
VERTEX
10
486.843
20
213.376
30
-190.066
8
0
0
VERTEX
10
485.574
20
213.489
30
-190.677
8
0
0
VERTEX
10
484.78
20
214.083
30
-190.552
8
0
0
VERTEX
10
483.512
20
214.2
30
-191.166
8
0
0
VERTEX
10
482.717
20
214.793
30
-191.039
8
0
0
VERTEX
10
482.717
20
214.793
30
-191.039
8
0
0
VERTEX
10
482.717
20
214.793
30
-191.039
8
0
0
VERTEX
10
482.717
20
214.793
30
-191.039
8
0
0
VERTEX
10
482.717
20
214.793
30
-191.039
8
0
0
VERTEX
10
482.717
20
214.793
30
-191.039
8
0
0
VERTEX
10
482.717
20
214.793
30
-191.039
8
0
0
VERTEX
10
482.717
20
214.793
30
-191.039
8
0
0
VERTEX
10
482.717
20
214.793
30
-191.039
8
0
0
VERTEX
10
482.717
20
214.793
30
-191.039
8
0
0
VERTEX
10
482.717
20
214.793
30
-191.039
8
0
0
VERTEX
10
482.717
20
214.793
30
-191.039
8
0
0
VERTEX
10
482.717
20
214.793
30
-191.039
8
0
0
VERTEX
10
482.717
20
214.793
30
-191.039
8
0
0
VERTEX
10
482.717
20
214.793
30
-191.039
8
0
0
VERTEX
10
482.717
20
214.793
30
-191.039
8
0
0
VERTEX
10
481.922
20
215.39
30
-190.918
8
0
0
VERTEX
10
480.013
20
217.653
30
-189.808
8
0
0
VERTEX
10
478.9
20
219.322
30
-188.822
8
0
0
VERTEX
10
477.789
20
220.995
30
-187.835
8
0
0
VERTEX
10
476.197
20
222.186
30
-187.585
8
0
0
VERTEX
10
475.086
20
223.856
30
-186.6
8
0
0
VERTEX
10
473.654
20
226.6
30
-184.755
8
0
0
VERTEX
10
472.543
20
228.273
30
-183.769
8
0
0
VERTEX
10
471.744
20
228.865
30
-183.647
8
0
0
VERTEX
10
471.107
20
231.02
30
-181.923
8
0
0
VERTEX
10
470.791
20
232.095
30
-181.062
8
0
0
VERTEX
10
469.679
20
233.768
30
-180.077
8
0
0
VERTEX
10
468.563
20
235.437
30
-179.095
8
0
0
VERTEX
10
468.244
20
236.51
30
-178.234
8
0
0
VERTEX
10
468.72
20
236.99
30
-177.495
8
0
0
VERTEX
10
467.928
20
237.584
30
-177.369
8
0
0
VERTEX
10
467.928
20
237.584
30
-177.369
8
0
0
VERTEX
10
467.928
20
237.584
30
-177.369
8
0
0
VERTEX
10
467.928
20
237.584
30
-177.369
8
0
0
VERTEX
10
467.928
20
237.584
30
-177.369
8
0
0
SEQEND
0
POLYLINE
8
1
62
252
66
1
40
1
41
1
70
8
0
VERTEX
10
581.509
20
365.766
30
18.7696
8
0
0
VERTEX
10
582.326
20
366.202
30
19.1479
8
0
0
VERTEX
10
583.141
20
366.636
30
19.5272
8
0
0
VERTEX
10
583.141
20
366.636
30
19.5272
8
0
0
VERTEX
10
583.957
20
367.072
30
19.9089
8
0
0
VERTEX
10
584.776
20
367.505
30
20.2869
8
0
0
VERTEX
10
585.593
20
367.938
30
20.6661
8
0
0
VERTEX
10
586.408
20
368.373
30
21.0452
8
0
0
VERTEX
10
587.224
20
368.805
30
21.4255
8
0
0
VERTEX
10
588.043
20
369.241
30
21.8069
8
0
0
VERTEX
10
589.454
20
370.957
30
22.0787
8
0
0
VERTEX
10
590.268
20
371.393
30
22.4577
8
0
0
VERTEX
10
591.682
20
373.107
30
22.7325
8
0
0
VERTEX
10
594.135
20
374.415
30
23.8722
8
0
0
VERTEX
10
595.77
20
375.283
30
24.6322
8
0
0
VERTEX
10
596.584
20
375.717
30
25.011
8
0
0
VERTEX
10
597.4
20
376.151
30
25.3883
8
0
0
VERTEX
10
599.029
20
377.017
30
26.1462
8
0
0
VERTEX
10
599.847
20
377.454
30
26.5291
8
0
0
VERTEX
10
600.666
20
377.886
30
26.909
8
0
0
VERTEX
10
602.298
20
378.757
30
27.6679
8
0
0
VERTEX
10
602.298
20
378.757
30
27.6679
8
0
0
VERTEX
10
604.747
20
380.062
30
28.8074
8
0
0
VERTEX
10
606.38
20
380.928
30
29.5655
8
0
0
VERTEX
10
608.013
20
381.797
30
30.3265
8
0
0
VERTEX
10
610.467
20
383.103
30
31.4642
8
0
0
VERTEX
10
612.1
20
383.972
30
32.2254
8
0
0
VERTEX
10
612.918
20
384.405
30
32.6027
8
0
0
VERTEX
10
614.553
20
385.277
30
33.3642
8
0
0
VERTEX
10
616.186
20
386.143
30
34.1234
8
0
0
VERTEX
10
617.002
20
386.577
30
34.5008
8
0
0
VERTEX
10
618.632
20
387.449
30
35.2608
8
0
0
VERTEX
10
620.268
20
388.318
30
36.0203
8
0
0
VERTEX
10
621.088
20
388.749
30
36.4009
8
0
0
VERTEX
10
621.902
20
389.186
30
36.7811
8
0
0
VERTEX
10
623.533
20
390.055
30
37.539
8
0
0
VERTEX
10
625.171
20
390.926
30
38.3006
8
0
0
VERTEX
10
627.618
20
392.228
30
39.4407
8
0
0
VERTEX
10
630.068
20
393.531
30
40.5784
8
0
0
VERTEX
10
633.337
20
395.27
30
42.0979
8
0
0
VERTEX
10
634.155
20
395.705
30
42.4772
8
0
0
VERTEX
10
634.155
20
395.705
30
42.4772
8
0
0
VERTEX
10
635.787
20
396.573
30
43.2353
8
0
0
VERTEX
10
638.234
20
397.876
30
44.3744
8
0
0
VERTEX
10
639.867
20
398.741
30
45.1343
8
0
0
VERTEX
10
641.5
20
399.612
30
45.8926
8
0
0
VERTEX
10
643.355
20
399.635
30
47.138
8
0
0
VERTEX
10
644.988
20
400.505
30
47.8989
8
0
0
VERTEX
10
647.439
20
401.808
30
49.0388
8
0
0
VERTEX
10
649.295
20
401.837
30
50.2858
8
0
0
VERTEX
10
651.746
20
403.137
30
51.4233
8
0
0
VERTEX
10
653.605
20
403.164
30
52.6725
8
0
0
VERTEX
10
655.236
20
404.034
30
53.4302
8
0
0
VERTEX
10
656.869
20
404.903
30
54.1882
8
0
0
VERTEX
10
656.869
20
404.903
30
54.1882
8
0
0
VERTEX
10
658.731
20
404.927
30
55.4371
8
0
0
VERTEX
10
659.544
20
405.36
30
55.8155
8
0
0
VERTEX
10
661.176
20
406.226
30
56.5732
8
0
0
VERTEX
10
663.632
20
407.533
30
57.714
8
0
0
VERTEX
10
664.447
20
407.969
30
58.0954
8
0
0
VERTEX
10
666.078
20
408.838
30
58.8557
8
0
0
VERTEX
10
666.897
20
409.27
30
59.234
8
0
0
VERTEX
10
668.528
20
410.14
30
59.9943
8
0
0
VERTEX
10
670.392
20
410.166
30
61.2415
8
0
0
VERTEX
10
670.392
20
410.166
30
61.2415
8
0
0
VERTEX
10
671.206
20
410.6
30
61.6185
8
0
0
VERTEX
10
672.839
20
411.466
30
62.378
8
0
0
VERTEX
10
674.469
20
412.334
30
63.1366
8
0
0
VERTEX
10
675.287
20
412.771
30
63.5176
8
0
0
VERTEX
10
676.105
20
413.205
30
63.8942
8
0
0
VERTEX
10
676.105
20
413.205
30
63.8942
8
0
0
VERTEX
10
676.105
20
413.205
30
63.8942
8
0
0
VERTEX
10
676.105
20
413.205
30
63.8942
8
0
0
VERTEX
10
676.105
20
413.205
30
63.8942
8
0
0
VERTEX
10
676.105
20
413.205
30
63.8942
8
0
0
VERTEX
10
676.105
20
413.205
30
63.8942
8
0
0
VERTEX
10
676.105
20
413.205
30
63.8942
8
0
0
VERTEX
10
676.105
20
413.205
30
63.8942
8
0
0
SEQEND
0
POLYLINE
8
1
62
252
66
1
40
1
41
1
70
8
0
VERTEX
10
651.361
20
311.86
30
6.22388
8
0
0
VERTEX
10
651.361
20
311.86
30
6.22388
8
0
0
VERTEX
10
651.897
20
312.97
30
6.92159
8
0
0
VERTEX
10
652.432
20
314.079
30
7.61631
8
0
0
VERTEX
10
652.045
20
314.888
30
8.06236
8
0
0
VERTEX
10
652.192
20
316.802
30
9.20049
8
0
0
VERTEX
10
652.73
20
317.914
30
9.89567
8
0
0
VERTEX
10
652.345
20
318.722
30
10.3438
8
0
0
VERTEX
10
652.878
20
319.831
30
11.0381
8
0
0
VERTEX
10
652.49
20
320.642
30
11.4836
8
0
0
VERTEX
10
652.634
20
322.557
30
12.6241
8
0
0
VERTEX
10
652.248
20
323.362
30
13.0707
8
0
0
VERTEX
10
652.933
20
326.388
30
14.9036
8
0
0
VERTEX
10
652.549
20
327.2
30
15.3521
8
0
0
VERTEX
10
652.7
20
329.12
30
16.4954
8
0
0
VERTEX
10
653.231
20
330.226
30
17.1859
8
0
0
VERTEX
10
654.301
20
332.445
30
18.578
8
0
0
VERTEX
10
654.843
20
333.557
30
19.2753
8
0
0
VERTEX
10
654.99
20
335.474
30
20.4161
8
0
0
VERTEX
10
654.601
20
336.284
30
20.86
8
0
0
VERTEX
10
655.136
20
337.389
30
21.5553
8
0
0
VERTEX
10
656.203
20
339.609
30
22.9465
8
0
0
VERTEX
10
656.887
20
342.637
30
24.7791
8
0
0
VERTEX
10
657.039
20
344.559
30
25.9251
8
0
0
VERTEX
10
659.028
20
347.078
30
27.5646
8
0
0
VERTEX
10
659.562
20
348.191
30
28.2574
8
0
0
VERTEX
10
659.712
20
350.107
30
29.3994
8
0
0
VERTEX
10
660.779
20
352.321
30
30.7895
8
0
0
VERTEX
10
660.928
20
354.24
30
31.9302
8
0
0
VERTEX
10
661.462
20
355.351
30
32.6256
8
0
0
VERTEX
10
661.607
20
357.268
30
33.7667
8
0
0
VERTEX
10
661.223
20
358.076
30
34.2107
8
0
0
VERTEX
10
661.223
20
358.076
30
34.2107
8
0
0
VERTEX
10
661.367
20
359.995
30
35.3529
8
0
0
VERTEX
10
661.515
20
361.909
30
36.4936
8
0
0
VERTEX
10
661.28
20
364.639
30
38.082
8
0
0
VERTEX
10
661.43
20
366.552
30
39.2189
8
0
0
VERTEX
10
661.578
20
368.472
30
40.3604
8
0
0
VERTEX
10
662.11
20
369.58
30
41.0541
8
0
0
VERTEX
10
662.262
20
371.497
30
42.1977
8
0
0
VERTEX
10
662.8
20
372.607
30
42.8948
8
0
0
VERTEX
10
662.413
20
373.415
30
43.3377
8
0
0
VERTEX
10
662.945
20
374.525
30
44.0357
8
0
0
VERTEX
10
663.483
20
375.639
30
44.7278
8
0
0
VERTEX
10
663.628
20
377.55
30
45.871
8
0
0
VERTEX
10
665.087
20
378.965
30
46.8138
8
0
0
VERTEX
10
665.623
20
380.074
30
47.5105
8
0
0
VERTEX
10
666.688
20
382.292
30
48.9004
8
0
0
VERTEX
10
667.224
20
383.399
30
49.5936
8
0
0
VERTEX
10
667.371
20
385.319
30
50.7367
8
0
0
VERTEX
10
666.988
20
386.126
30
51.1821
8
0
0
VERTEX
10
667.671
20
389.153
30
53.0182
8
0
0
VERTEX
10
668.738
20
391.374
30
54.4098
8
0
0
VERTEX
10
669.273
20
392.482
30
55.104
8
0
0
VERTEX
10
668.5
20
394.098
30
55.9951
8
0
0
VERTEX
10
668.656
20
396.016
30
57.1373
8
0
0
VERTEX
10
669.189
20
397.126
30
57.8301
8
0
0
VERTEX
10
668.804
20
397.934
30
58.2774
8
0
0
VERTEX
10
669.337
20
399.045
30
58.9735
8
0
0
VERTEX
10
669.485
20
400.961
30
60.1138
8
0
0
VERTEX
10
668.716
20
402.578
30
61.0062
8
0
0
VERTEX
10
668.716
20
402.578
30
61.0062
8
0
0
VERTEX
10
668.863
20
404.496
30
62.1472
8
0
0
VERTEX
10
669.396
20
405.606
30
62.8404
8
0
0
VERTEX
10
669.547
20
407.523
30
63.9797
8
0
0
VERTEX
10
669.547
20
407.523
30
63.9797
8
0
0
VERTEX
10
670.082
20
408.634
30
64.6774
8
0
0
VERTEX
10
670.082
20
408.634
30
64.6774
8
0
0
VERTEX
10
670.616
20
409.74
30
65.3738
8
0
0
VERTEX
10
671.151
20
410.853
30
66.0664
8
0
0
VERTEX
10
671.686
20
411.962
30
66.7646
8
0
0
VERTEX
10
672.606
20
412.259
30
67.0115
8
0
0
VERTEX
10
672.606
20
412.259
30
67.0115
8
0
0
VERTEX
10
672.606
20
412.259
30
67.0115
8
0
0
VERTEX
10
672.606
20
412.259
30
67.0115
8
0
0
SEQEND
0
POLYLINE
8
1
62
252
66
1
40
1
41
1
70
8
0
VERTEX
10
571.336
20
361.146
30
9.43825
8
0
0
VERTEX
10
571.336
20
361.146
30
9.43825
8
0
0
VERTEX
10
571.336
20
361.146
30
9.43825
8
0
0
VERTEX
10
571.728
20
360.223
30
9.39575
8
0
0
VERTEX
10
571.728
20
360.223
30
9.39575
8
0
0
VERTEX
10
572.119
20
359.302
30
9.35328
8
0
0
VERTEX
10
572.119
20
359.302
30
9.35328
8
0
0
VERTEX
10
572.904
20
357.465
30
9.26785
8
0
0
VERTEX
10
573.683
20
355.625
30
9.18417
8
0
0
VERTEX
10
574.463
20
353.787
30
9.09942
8
0
0
VERTEX
10
575.245
20
351.946
30
9.01381
8
0
0
VERTEX
10
576.027
20
350.11
30
8.92815
8
0
0
VERTEX
10
576.809
20
348.268
30
8.84389
8
0
0
VERTEX
10
577.592
20
346.427
30
8.76137
8
0
0
VERTEX
10
578.369
20
344.59
30
8.6751
8
0
0
VERTEX
10
579.543
20
341.829
30
8.5478
8
0
0
VERTEX
10
579.932
20
340.911
30
8.50671
8
0
0
VERTEX
10
581.104
20
338.15
30
8.37866
8
0
0
VERTEX
10
581.885
20
336.312
30
8.29628
8
0
0
VERTEX
10
582.666
20
334.473
30
8.21133
8
0
0
VERTEX
10
583.446
20
332.637
30
8.12567
8
0
0
VERTEX
10
584.225
20
330.793
30
8.03987
8
0
0
VERTEX
10
585.007
20
328.955
30
7.95754
8
0
0
VERTEX
10
586.178
20
326.194
30
7.82639
8
0
0
VERTEX
10
586.961
20
324.357
30
7.74499
8
0
0
VERTEX
10
587.741
20
322.516
30
7.65682
8
0
0
VERTEX
10
588.526
20
320.679
30
7.57726
8
0
0
VERTEX
10
589.694
20
317.914
30
7.44687
8
0
0
VERTEX
10
590.476
20
316.077
30
7.36157
8
0
0
VERTEX
10
591.258
20
314.236
30
7.27793
8
0
0
VERTEX
10
591.647
20
313.318
30
7.23562
8
0
0
VERTEX
10
592.429
20
311.48
30
7.1511
8
0
0
VERTEX
10
593.601
20
308.719
30
7.02526
8
0
0
VERTEX
10
594.911
20
308.193
30
6.9366
8
0
0
VERTEX
10
594.911
20
308.193
30
6.9366
8
0
0
VERTEX
10
595.3
20
307.273
30
6.89474
8
0
0
VERTEX
10
595.3
20
307.273
30
6.89474
8
0
0
SEQEND
0
POLYLINE
8
1
62
252
66
1
40
1
41
1
70
8
0
VERTEX
10
596.218
20
307.665
30
6.84939
8
0
0
VERTEX
10
599.366
20
307.923
30
6.67403
8
0
0
VERTEX
10
602.124
20
309.101
30
6.53728
8
0
0
VERTEX
10
604.352
20
308.963
30
6.40712
8
0
0
VERTEX
10
606.19
20
309.749
30
6.31554
8
0
0
VERTEX
10
608.416
20
309.616
30
6.18497
8
0
0
VERTEX
10
610.645
20
309.48
30
6.05179
8
0
0
VERTEX
10
613.793
20
309.736
30
5.87291
8
0
0
VERTEX
10
616.022
20
309.598
30
5.74307
8
0
0
VERTEX
10
617.859
20
310.386
30
5.65368
8
0
0
VERTEX
10
620.085
20
310.252
30
5.52086
8
0
0
VERTEX
10
621.007
20
310.645
30
5.47475
8
0
0
VERTEX
10
623.236
20
310.506
30
5.34363
8
0
0
VERTEX
10
625.069
20
311.291
30
5.25382
8
0
0
VERTEX
10
626.384
20
310.766
30
5.16791
8
0
0
VERTEX
10
628.219
20
311.547
30
5.07535
8
0
0
VERTEX
10
629.531
20
311.023
30
4.98964
8
0
0
VERTEX
10
631.759
20
310.887
30
4.85792
8
0
0
VERTEX
10
633.598
20
311.67
30
4.76946
8
0
0
VERTEX
10
634.906
20
311.142
30
4.68157
8
0
0
VERTEX
10
637.132
20
311.009
30
4.54738
8
0
0
VERTEX
10
639.356
20
310.873
30
4.41529
8
0
0
VERTEX
10
640.668
20
310.344
30
4.32884
8
0
0
VERTEX
10
641.979
20
309.819
30
4.24257
8
0
0
VERTEX
10
642.895
20
310.211
30
4.197
8
0
0
VERTEX
10
645.123
20
310.076
30
4.06471
8
0
0
VERTEX
10
646.044
20
310.469
30
4.02058
8
0
0
VERTEX
10
647.353
20
309.944
30
3.9327
8
0
0
VERTEX
10
647.353
20
309.944
30
3.9327
8
0
0
VERTEX
10
647.353
20
309.944
30
3.9327
8
0
0
VERTEX
10
647.353
20
309.944
30
3.9327
8
0
0
VERTEX
10
648.272
20
310.334
30
3.88965
8
0
0
VERTEX
10
648.272
20
310.334
30
3.88965
8
0
0
SEQEND
0
POLYLINE
8
1
62
252
66
1
40
1
41
1
70
8
0
VERTEX
10
639.162
20
370.002
30
33.2766
8
0
0
VERTEX
10
639.162
20
370.002
30
33.2766
8
0
0
VERTEX
10
639.162
20
370.002
30
33.2766
8
0
0
VERTEX
10
639.162
20
370.002
30
33.2766
8
0
0
VERTEX
10
639.162
20
370.002
30
33.2766
8
0
0
VERTEX
10
639.162
20
370.002
30
33.2766
8
0
0
VERTEX
10
639.162
20
370.002
30
33.2766
8
0
0
VERTEX
10
639.162
20
370.002
30
33.2766
8
0
0
VERTEX
10
639.162
20
370.002
30
33.2766
8
0
0
VERTEX
10
639.162
20
370.002
30
33.2766
8
0
0
VERTEX
10
639.162
20
370.002
30
33.2766
8
0
0
VERTEX
10
639.162
20
370.002
30
33.2766
8
0
0
VERTEX
10
639.162
20
370.002
30
33.2766
8
0
0
SEQEND
0
POLYLINE
8
1
62
252
66
1
40
1
41
1
70
8
0
VERTEX
10
636.961
20
370.098
30
32.9018
8
0
0
VERTEX
10
636.961
20
370.098
30
32.9018
8
0
0
VERTEX
10
636.961
20
370.098
30
32.9018
8
0
0
SEQEND
0
POLYLINE
8
1
62
252
66
1
40
1
41
1
70
8
0
VERTEX
10
638.719
20
370.882
30
33.4456
8
0
0
VERTEX
10
638.719
20
370.882
30
33.4456
8
0
0
VERTEX
10
638.719
20
370.882
30
33.4456
8
0
0
VERTEX
10
638.719
20
370.882
30
33.4456
8
0
0
VERTEX
10
638.719
20
370.882
30
33.4456
8
0
0
VERTEX
10
638.276
20
371.762
30
33.6161
8
0
0
VERTEX
10
638.276
20
371.762
30
33.6161
8
0
0
VERTEX
10
638.276
20
371.762
30
33.6161
8
0
0
VERTEX
10
638.276
20
371.762
30
33.6161
8
0
0
VERTEX
10
638.719
20
370.882
30
33.4456
8
0
0
VERTEX
10
638.719
20
370.882
30
33.4456
8
0
0
VERTEX
10
638.719
20
370.882
30
33.4456
8
0
0
VERTEX
10
638.719
20
370.882
30
33.4456
8
0
0
VERTEX
10
638.719
20
370.882
30
33.4456
8
0
0
VERTEX
10
638.719
20
370.882
30
33.4456
8
0
0
VERTEX
10
638.719
20
370.882
30
33.4456
8
0
0
VERTEX
10
638.719
20
370.882
30
33.4456
8
0
0
VERTEX
10
638.719
20
370.882
30
33.4456
8
0
0
VERTEX
10
638.719
20
370.882
30
33.4456
8
0
0
VERTEX
10
638.719
20
370.882
30
33.4456
8
0
0
VERTEX
10
638.719
20
370.882
30
33.4456
8
0
0
VERTEX
10
638.719
20
370.882
30
33.4456
8
0
0
VERTEX
10
638.719
20
370.882
30
33.4456
8
0
0
VERTEX
10
638.719
20
370.882
30
33.4456
8
0
0
VERTEX
10
638.719
20
370.882
30
33.4456
8
0
0
VERTEX
10
638.719
20
370.882
30
33.4456
8
0
0
VERTEX
10
638.719
20
370.882
30
33.4456
8
0
0
VERTEX
10
638.719
20
370.882
30
33.4456
8
0
0
VERTEX
10
637.832
20
372.643
30
33.7824
8
0
0
VERTEX
10
636.511
20
373.133
30
33.6817
8
0
0
VERTEX
10
636.511
20
373.133
30
33.6817
8
0
0
VERTEX
10
636.518
20
370.979
30
33.0739
8
0
0
VERTEX
10
637.403
20
369.218
30
32.7341
8
0
0
VERTEX
10
637.846
20
368.339
30
32.567
8
0
0
VERTEX
10
637.846
20
368.339
30
32.567
8
0
0
VERTEX
10
637.846
20
368.339
30
32.567
8
0
0
VERTEX
10
637.841
20
370.492
30
33.1765
8
0
0
VERTEX
10
637.841
20
370.492
30
33.1765
8
0
0
VERTEX
10
637.841
20
370.492
30
33.1765
8
0
0
VERTEX
10
636.083
20
369.707
30
32.6334
8
0
0
VERTEX
10
635.201
20
369.316
30
32.3592
8
0
0
VERTEX
10
635.201
20
369.316
30
32.3592
8
0
0
VERTEX
10
635.201
20
369.316
30
32.3592
8
0
0
VERTEX
10
635.201
20
369.316
30
32.3592
8
0
0
VERTEX
10
636.518
20
370.979
30
33.0739
8
0
0
VERTEX
10
636.518
20
370.979
30
33.0739
8
0
0
VERTEX
10
635.639
20
370.587
30
32.7997
8
0
0
SEQEND
0
POLYLINE
8
1
62
252
66
1
40
1
41
1
70
8
0
VERTEX
10
571.965
20
361.544
30
10.5836
8
0
0
VERTEX
10
572.816
20
361.884
30
10.9792
8
0
0
VERTEX
10
574.992
20
361.739
30
11.472
8
0
0
VERTEX
10
577.551
20
362.765
30
12.6563
8
0
0
VERTEX
10
579.257
20
363.452
30
13.4483
8
0
0
VERTEX
10
580.582
20
362.966
30
13.5413
8
0
0
VERTEX
10
582.286
20
363.65
30
14.3305
8
0
0
VERTEX
10
584.464
20
363.506
30
14.8232
8
0
0
VERTEX
10
586.641
20
363.36
30
15.3135
8
0
0
VERTEX
10
588.348
20
364.047
30
16.1059
8
0
0
VERTEX
10
590.047
20
364.732
30
16.8927
8
0
0
VERTEX
10
593.079
20
364.929
30
17.7814
8
0
0
VERTEX
10
595.256
20
364.784
30
18.2722
8
0
0
VERTEX
10
596.109
20
365.128
30
18.6669
8
0
0
VERTEX
10
597.814
20
365.814
30
19.4582
8
0
0
VERTEX
10
598.665
20
366.157
30
19.8528
8
0
0
VERTEX
10
600.372
20
366.837
30
20.6393
8
0
0
VERTEX
10
602.548
20
366.697
30
21.1332
8
0
0
VERTEX
10
603.4
20
367.039
30
21.528
8
0
0
VERTEX
10
605.107
20
367.724
30
22.319
8
0
0
VERTEX
10
607.28
20
367.579
30
22.8094
8
0
0
VERTEX
10
607.28
20
367.579
30
22.8094
8
0
0
VERTEX
10
608.135
20
367.923
30
23.2058
8
0
0
VERTEX
10
608.989
20
368.267
30
23.6005
8
0
0
VERTEX
10
609.842
20
368.607
30
23.9951
8
0
0
VERTEX
10
610.69
20
368.949
30
24.3887
8
0
0
VERTEX
10
611.545
20
369.292
30
24.785
8
0
0
VERTEX
10
612.396
20
369.635
30
25.1796
8
0
0
VERTEX
10
613.249
20
369.979
30
25.5743
8
0
0
VERTEX
10
614.102
20
370.321
30
25.9682
8
0
0
VERTEX
10
615.809
20
371.006
30
26.7585
8
0
0
VERTEX
10
616.659
20
371.349
30
27.1541
8
0
0
VERTEX
10
617.513
20
371.692
30
27.5489
8
0
0
VERTEX
10
618.366
20
372.035
30
27.9435
8
0
0
VERTEX
10
620.543
20
371.889
30
28.4346
8
0
0
VERTEX
10
622.246
20
372.575
30
29.2249
8
0
0
VERTEX
10
623.1
20
372.918
30
29.6178
8
0
0
VERTEX
10
624.802
20
373.603
30
30.4079
8
0
0
VERTEX
10
627.362
20
374.632
30
31.5941
8
0
0
VERTEX
10
627.362
20
374.632
30
31.5941
8
0
0
VERTEX
10
628.216
20
374.971
30
31.9879
8
0
0
VERTEX
10
628.216
20
374.971
30
31.9879
8
0
0
VERTEX
10
629.065
20
375.315
30
32.3825
8
0
0
VERTEX
10
630.392
20
374.829
30
32.4803
8
0
0
VERTEX
10
630.392
20
374.829
30
32.4803
8
0
0
VERTEX
10
631.244
20
375.172
30
32.8774
8
0
0
VERTEX
10
632.097
20
375.513
30
33.2698
8
0
0
VERTEX
10
632.567
20
374.681
30
32.9718
8
0
0
VERTEX
10
632.567
20
374.681
30
32.9718
8
0
0
VERTEX
10
633.421
20
375.026
30
33.367
8
0
0
VERTEX
10
633.893
20
374.194
30
33.0697
8
0
0
VERTEX
10
633.893
20
374.194
30
33.0697
8
0
0
VERTEX
10
633.893
20
374.194
30
33.0697
8
0
0
VERTEX
10
633.893
20
374.194
30
33.0697
8
0
0
VERTEX
10
634.745
20
374.54
30
33.4636
8
0
0
VERTEX
10
634.745
20
374.54
30
33.4636
8
0
0
VERTEX
10
634.745
20
374.54
30
33.4636
8
0
0
VERTEX
10
634.745
20
374.54
30
33.4636
8
0
0
VERTEX
10
634.745
20
374.54
30
33.4636
8
0
0
VERTEX
10
634.745
20
374.54
30
33.4636
8
0
0
VERTEX
10
634.745
20
374.54
30
33.4636
8
0
0
VERTEX
10
634.745
20
374.54
30
33.4636
8
0
0
VERTEX
10
635.688
20
372.878
30
32.8665
8
0
0
VERTEX
10
636.158
20
372.048
30
32.5671
8
0
0
VERTEX
10
636.633
20
371.219
30
32.2699
8
0
0
VERTEX
10
637.106
20
370.387
30
31.9722
8
0
0
VERTEX
10
637.573
20
369.559
30
31.674
8
0
0
VERTEX
10
638.518
20
367.899
30
31.0786
8
0
0
VERTEX
10
638.605
20
365.896
30
30.0875
8
0
0
VERTEX
10
639.551
20
364.234
30
29.4893
8
0
0
VERTEX
10
639.17
20
363.062
30
28.7974
8
0
0
VERTEX
10
640.113
20
361.403
30
28.2013
8
0
0
VERTEX
10
639.733
20
360.229
30
27.5066
8
0
0
VERTEX
10
640.203
20
359.402
30
27.2088
8
0
0
VERTEX
10
639.822
20
358.228
30
26.515
8
0
0
VERTEX
10
640.294
20
357.4
30
26.2196
8
0
0
VERTEX
10
640.765
20
356.569
30
25.9203
8
0
0
VERTEX
10
640.389
20
355.395
30
25.2285
8
0
0
VERTEX
10
640.858
20
354.564
30
24.929
8
0
0
VERTEX
10
641.798
20
352.907
30
24.3328
8
0
0
VERTEX
10
642.272
20
352.076
30
24.0356
8
0
0
VERTEX
10
642.745
20
351.248
30
23.7372
8
0
0
VERTEX
10
642.365
20
350.074
30
23.0446
8
0
0
VERTEX
10
643.307
20
348.413
30
22.4463
8
0
0
VERTEX
10
644.248
20
346.754
30
21.8506
8
0
0
VERTEX
10
643.868
20
345.58
30
21.1587
8
0
0
VERTEX
10
644.339
20
344.751
30
20.8604
8
0
0
VERTEX
10
644.811
20
343.922
30
20.5636
8
0
0
VERTEX
10
645.757
20
342.261
30
19.9691
8
0
0
VERTEX
10
645.373
20
341.088
30
19.2734
8
0
0
VERTEX
10
645.846
20
340.258
30
18.975
8
0
0
VERTEX
10
646.316
20
339.428
30
18.6761
8
0
0
VERTEX
10
646.406
20
337.426
30
17.6853
8
0
0
VERTEX
10
646.497
20
335.424
30
16.6944
8
0
0
VERTEX
10
646.971
20
334.591
30
16.397
8
0
0
VERTEX
10
647.444
20
333.762
30
16.0981
8
0
0
VERTEX
10
647.534
20
331.76
30
15.1079
8
0
0
VERTEX
10
648.006
20
330.929
30
14.8071
8
0
0
VERTEX
10
648.478
20
330.101
30
14.5117
8
0
0
VERTEX
10
648.569
20
328.098
30
13.5205
8
0
0
VERTEX
10
649.037
20
327.266
30
13.2219
8
0
0
VERTEX
10
649.51
20
326.437
30
12.9235
8
0
0
VERTEX
10
649.6
20
324.437
30
11.934
8
0
0
VERTEX
10
649.688
20
322.434
30
10.9414
8
0
0
VERTEX
10
650.161
20
321.605
30
10.6439
8
0
0
VERTEX
10
650.253
20
319.599
30
9.65222
8
0
0
VERTEX
10
650.723
20
318.77
30
9.35304
8
0
0
VERTEX
10
650.344
20
317.597
30
8.66135
8
0
0
VERTEX
10
649.963
20
316.425
30
7.96997
8
0
0
VERTEX
10
650.434
20
315.599
30
7.67179
8
0
0
VERTEX
10
650.053
20
314.422
30
6.978
8
0
0
VERTEX
10
650.053
20
314.422
30
6.978
8
0
0
VERTEX
10
650.526
20
313.591
30
6.67877
8
0
0
VERTEX
10
650.143
20
312.422
30
5.98618
8
0
0
VERTEX
10
650.143
20
312.422
30
5.98618
8
0
0
VERTEX
10
650.617
20
311.59
30
5.68828
8
0
0
VERTEX
10
650.617
20
311.59
30
5.68828
8
0
0
VERTEX
10
650.234
20
310.42
30
4.99298
8
0
0
VERTEX
10
650.234
20
310.42
30
4.99298
8
0
0
VERTEX
10
650.234
20
310.42
30
4.99298
8
0
0
VERTEX
10
650.323
20
308.416
30
4.00331
8
0
0
SEQEND
0
POLYLINE
8
1
62
252
66
1
40
1
41
1
70
8
0
VERTEX
10
507.604
20
201.368
30
-234.175
8
0
0
VERTEX
10
507.958
20
201.963
30
-233.455
8
0
0
VERTEX
10
508.312
20
202.558
30
-232.735
8
0
0
VERTEX
10
509.021
20
203.745
30
-231.289
8
0
0
VERTEX
10
509.372
20
204.339
30
-230.57
8
0
0
VERTEX
10
510.086
20
205.529
30
-229.123
8
0
0
VERTEX
10
511.295
20
205.609
30
-228.402
8
0
0
VERTEX
10
511.651
20
206.205
30
-227.678
8
0
0
VERTEX
10
512.004
20
206.799
30
-226.957
8
0
0
VERTEX
10
512.36
20
207.393
30
-226.235
8
0
0
VERTEX
10
513.068
20
208.58
30
-224.79
8
0
0
VERTEX
10
513.423
20
209.175
30
-224.069
8
0
0
VERTEX
10
514.13
20
210.363
30
-222.626
8
0
0
VERTEX
10
514.838
20
211.552
30
-221.18
8
0
0
VERTEX
10
516.055
20
211.634
30
-220.457
8
0
0
VERTEX
10
516.408
20
212.227
30
-219.735
8
0
0
VERTEX
10
517.116
20
213.415
30
-218.291
8
0
0
VERTEX
10
517.471
20
214.009
30
-217.567
8
0
0
VERTEX
10
517.471
20
214.009
30
-217.567
8
0
0
VERTEX
10
517.825
20
214.604
30
-216.846
8
0
0
VERTEX
10
517.825
20
214.604
30
-216.846
8
0
0
VERTEX
10
518.178
20
215.2
30
-216.124
8
0
0
VERTEX
10
518.535
20
215.793
30
-215.401
8
0
0
VERTEX
10
518.535
20
215.793
30
-215.401
8
0
0
VERTEX
10
518.888
20
216.387
30
-214.678
8
0
0
VERTEX
10
519.244
20
216.982
30
-213.956
8
0
0
VERTEX
10
519.244
20
216.982
30
-213.956
8
0
0
VERTEX
10
519.244
20
216.982
30
-213.956
8
0
0
VERTEX
10
519.244
20
216.982
30
-213.956
8
0
0
VERTEX
10
519.244
20
216.982
30
-213.956
8
0
0
VERTEX
10
519.244
20
216.982
30
-213.956
8
0
0
VERTEX
10
519.244
20
216.982
30
-213.956
8
0
0
VERTEX
10
519.595
20
217.575
30
-213.236
8
0
0
VERTEX
10
520.306
20
218.763
30
-211.79
8
0
0
VERTEX
10
520.663
20
219.359
30
-211.067
8
0
0
VERTEX
10
521.015
20
219.952
30
-210.346
8
0
0
VERTEX
10
521.015
20
219.952
30
-210.346
8
0
0
VERTEX
10
521.015
20
219.952
30
-210.346
8
0
0
VERTEX
10
521.873
20
219.438
30
-210.345
8
0
0
SEQEND
0
POLYLINE
8
1
62
252
66
1
40
1
41
1
70
8
0
VERTEX
10
475.769
20
253.429
30
-204.609
8
0
0
VERTEX
10
474.203
20
252.753
30
-206.054
8
0
0
VERTEX
10
473.14
20
250.969
30
-208.221
8
0
0
VERTEX
10
471.926
20
250.888
30
-208.946
8
0
0
VERTEX
10
470.864
20
249.104
30
-211.112
8
0
0
VERTEX
10
469.296
20
248.43
30
-212.556
8
0
0
VERTEX
10
467.73
20
247.754
30
-214.001
8
0
0
VERTEX
10
467.02
20
246.565
30
-215.448
8
0
0
VERTEX
10
465.809
20
246.484
30
-216.168
8
0
0
VERTEX
10
465.102
20
245.296
30
-217.609
8
0
0
VERTEX
10
464.393
20
244.107
30
-219.057
8
0
0
VERTEX
10
464.035
20
243.514
30
-219.778
8
0
0
VERTEX
10
463.329
20
242.324
30
-221.224
8
0
0
VERTEX
10
462.112
20
242.244
30
-221.947
8
0
0
VERTEX
10
461.406
20
241.053
30
-223.39
8
0
0
VERTEX
10
459.837
20
240.379
30
-224.837
8
0
0
VERTEX
10
459.481
20
239.784
30
-225.557
8
0
0
VERTEX
10
459.126
20
239.19
30
-226.278
8
0
0
VERTEX
10
458.417
20
238.002
30
-227.724
8
0
0
VERTEX
10
457.209
20
237.92
30
-228.445
8
0
0
VERTEX
10
456.854
20
237.325
30
-229.17
8
0
0
VERTEX
10
456.854
20
237.325
30
-229.17
8
0
0
VERTEX
10
456.854
20
237.325
30
-229.17
8
0
0
VERTEX
10
456.854
20
237.325
30
-229.17
8
0
0
SEQEND
0
POLYLINE
8
1
62
252
66
1
40
1
41
1
70
8
0
VERTEX
10
466.399
20
231.782
30
-177.454
8
0
0
VERTEX
10
466.399
20
231.782
30
-177.454
8
0
0
VERTEX
10
466.399
20
231.782
30
-177.454
8
0
0
VERTEX
10
466.399
20
231.782
30
-177.454
8
0
0
VERTEX
10
466.399
20
231.782
30
-177.454
8
0
0
VERTEX
10
466.399
20
231.782
30
-177.454
8
0
0
VERTEX
10
466.399
20
231.782
30
-177.454
8
0
0
VERTEX
10
466.399
20
231.782
30
-177.454
8
0
0
VERTEX
10
466.399
20
231.782
30
-177.454
8
0
0
VERTEX
10
466.399
20
231.782
30
-177.454
8
0
0
VERTEX
10
465.734
20
232.4
30
-177.874
8
0
0
VERTEX
10
466.014
20
232.084
30
-178.779
8
0
0
VERTEX
10
465.629
20
232.387
30
-180.106
8
0
0
VERTEX
10
465.138
20
232.675
30
-183.664
8
0
0
VERTEX
10
464.751
20
232.977
30
-184.994
8
0
0
VERTEX
10
465.031
20
232.66
30
-185.899
8
0
0
VERTEX
10
464.646
20
232.963
30
-187.227
8
0
0
VERTEX
10
464.262
20
233.265
30
-188.55
8
0
0
VERTEX
10
464.82
20
232.631
30
-190.367
8
0
0
VERTEX
10
464.436
20
232.934
30
-191.691
8
0
0
VERTEX
10
464.05
20
233.235
30
-193.021
8
0
0
VERTEX
10
464.328
20
232.918
30
-193.928
8
0
0
VERTEX
10
463.944
20
233.222
30
-195.254
8
0
0
VERTEX
10
463.557
20
233.523
30
-196.581
8
0
0
VERTEX
10
463.837
20
233.209
30
-197.487
8
0
0
VERTEX
10
463.068
20
233.81
30
-200.14
8
0
0
VERTEX
10
462.682
20
234.113
30
-201.469
8
0
0
VERTEX
10
462.299
20
234.413
30
-202.796
8
0
0
VERTEX
10
461.913
20
234.714
30
-204.124
8
0
0
VERTEX
10
461.144
20
235.317
30
-206.777
8
0
0
VERTEX
10
460.089
20
236.238
30
-208.527
8
0
0
VERTEX
10
459.985
20
236.223
30
-210.759
8
0
0
VERTEX
10
459.323
20
236.842
30
-211.178
8
0
0
VERTEX
10
459.601
20
236.526
30
-212.086
8
0
0
VERTEX
10
458.555
20
237.442
30
-213.833
8
0
0
VERTEX
10
458.168
20
237.745
30
-215.159
8
0
0
VERTEX
10
457.781
20
238.048
30
-216.488
8
0
0
VERTEX
10
457.398
20
238.349
30
-217.812
8
0
0
VERTEX
10
457.012
20
238.65
30
-219.14
8
0
0
VERTEX
10
456.625
20
238.953
30
-220.469
8
0
0
VERTEX
10
456.239
20
239.255
30
-221.794
8
0
0
VERTEX
10
455.854
20
239.556
30
-223.122
8
0
0
VERTEX
10
456.135
20
239.24
30
-224.028
8
0
0
VERTEX
10
455.752
20
239.539
30
-225.351
8
0
0
VERTEX
10
455.085
20
240.162
30
-225.774
8
0
0
VERTEX
10
454.702
20
240.46
30
-227.101
8
0
0
VERTEX
10
454.702
20
240.46
30
-227.101
8
0
0
VERTEX
10
454.982
20
240.146
30
-228.008
8
0
0
VERTEX
10
455.26
20
239.831
30
-228.914
8
0
0
VERTEX
10
455.26
20
239.831
30
-228.914
8
0
0
VERTEX
10
455.26
20
239.831
30
-228.914
8
0
0
VERTEX
10
455.26
20
239.831
30
-228.914
8
0
0
VERTEX
10
455.26
20
239.831
30
-228.914
8
0
0
VERTEX
10
455.26
20
239.831
30
-228.914
8
0
0
VERTEX
10
455.26
20
239.831
30
-228.914
8
0
0
VERTEX
10
455.26
20
239.831
30
-228.914
8
0
0
SEQEND
0
POLYLINE
8
1
62
252
66
1
40
1
41
1
70
8
0
VERTEX
10
512.339
20
199.622
30
-182.815
8
0
0
VERTEX
10
511.956
20
199.942
30
-184.14
8
0
0
VERTEX
10
511.186
20
200.579
30
-186.788
8
0
0
VERTEX
10
511.153
20
200.678
30
-189.021
8
0
0
VERTEX
10
511.502
20
200.459
30
-189.929
8
0
0
VERTEX
10
511.121
20
200.777
30
-191.252
8
0
0
VERTEX
10
511.085
20
200.875
30
-193.489
8
0
0
VERTEX
10
511.4
20
200.754
30
-196.631
8
0
0
VERTEX
10
511.02
20
201.073
30
-197.952
8
0
0
VERTEX
10
510.985
20
201.171
30
-200.188
8
0
0
VERTEX
10
511.332
20
200.951
30
-201.097
8
0
0
VERTEX
10
510.948
20
201.271
30
-202.42
8
0
0
VERTEX
10
510.911
20
201.368
30
-204.655
8
0
0
VERTEX
10
510.53
20
201.687
30
-205.978
8
0
0
VERTEX
10
510.497
20
201.785
30
-208.214
8
0
0
VERTEX
10
510.462
20
201.882
30
-210.447
8
0
0
VERTEX
10
509.694
20
202.521
30
-213.093
8
0
0
VERTEX
10
509.658
20
202.62
30
-215.327
8
0
0
VERTEX
10
509.623
20
202.718
30
-217.562
8
0
0
VERTEX
10
509.24
20
203.036
30
-218.884
8
0
0
VERTEX
10
508.858
20
203.357
30
-220.207
8
0
0
VERTEX
10
508.822
20
203.455
30
-222.442
8
0
0
VERTEX
10
508.054
20
204.091
30
-225.089
8
0
0
VERTEX
10
507.67
20
204.41
30
-226.413
8
0
0
VERTEX
10
508.018
20
204.191
30
-227.323
8
0
0
VERTEX
10
507.635
20
204.511
30
-228.645
8
0
0
VERTEX
10
507.251
20
204.829
30
-229.968
8
0
0
VERTEX
10
507.599
20
204.608
30
-230.878
8
0
0
VERTEX
10
506.866
20
205.15
30
-231.291
8
0
0
VERTEX
10
506.866
20
205.15
30
-231.291
8
0
0
VERTEX
10
506.866
20
205.15
30
-231.291
8
0
0
VERTEX
10
506.866
20
205.15
30
-231.291
8
0
0
SEQEND
0
POLYLINE
8
1
62
252
66
1
40
1
41
1
70
8
0
VERTEX
10
483.262
20
205.002
30
-160.371
8
0
0
VERTEX
10
482.658
20
205.469
30
-161.564
8
0
0
VERTEX
10
482.055
20
205.935
30
-162.752
8
0
0
VERTEX
10
481.753
20
206.964
30
-164.716
8
0
0
VERTEX
10
481.15
20
207.428
30
-165.909
8
0
0
VERTEX
10
481.749
20
208.553
30
-167.451
8
0
0
VERTEX
10
481.449
20
209.58
30
-169.412
8
0
0
VERTEX
10
480.844
20
210.044
30
-170.607
8
0
0
VERTEX
10
481.146
20
210.606
30
-171.376
8
0
0
VERTEX
10
480.84
20
211.636
30
-173.34
8
0
0
VERTEX
10
480.537
20
212.661
30
-175.303
8
0
0
VERTEX
10
481.14
20
213.785
30
-176.843
8
0
0
VERTEX
10
480.535
20
214.251
30
-178.038
8
0
0
VERTEX
10
480.232
20
215.279
30
-180
8
0
0
VERTEX
10
479.929
20
216.304
30
-181.965
8
0
0
VERTEX
10
480.228
20
216.868
30
-182.732
8
0
0
VERTEX
10
479.626
20
217.333
30
-183.925
8
0
0
VERTEX
10
479.322
20
218.363
30
-185.887
8
0
0
VERTEX
10
478.719
20
218.828
30
-187.079
8
0
0
VERTEX
10
479.02
20
219.39
30
-187.85
8
0
0
VERTEX
10
478.418
20
219.856
30
-189.042
8
0
0
VERTEX
10
478.717
20
220.418
30
-189.812
8
0
0
VERTEX
10
478.116
20
220.884
30
-191.003
8
0
0
VERTEX
10
477.813
20
221.912
30
-192.967
8
0
0
VERTEX
10
477.209
20
222.377
30
-194.159
8
0
0
VERTEX
10
477.209
20
222.377
30
-194.159
8
0
0
VERTEX
10
477.209
20
222.377
30
-194.159
8
0
0
VERTEX
10
477.209
20
222.377
30
-194.159
8
0
0
VERTEX
10
477.209
20
222.377
30
-194.159
8
0
0
VERTEX
10
477.209
20
222.377
30
-194.159
8
0
0
VERTEX
10
477.209
20
222.377
30
-194.159
8
0
0
VERTEX
10
477.209
20
222.377
30
-194.159
8
0
0
SEQEND
0
POLYLINE
8
1
62
252
66
1
40
1
41
1
70
8
0
VERTEX
10
659.377
20
275.029
30
-49.7899
8
0
0
VERTEX
10
659.377
20
275.029
30
-49.7899
8
0
0
VERTEX
10
659.377
20
275.029
30
-49.7899
8
0
0
VERTEX
10
659.816
20
275.503
30
-49.028
8
0
0
VERTEX
10
659.816
20
275.503
30
-49.028
8
0
0
VERTEX
10
659.816
20
275.503
30
-49.028
8
0
0
VERTEX
10
659.816
20
275.503
30
-49.028
8
0
0
VERTEX
10
659.816
20
275.503
30
-49.028
8
0
0
VERTEX
10
659.816
20
275.503
30
-49.028
8
0
0
VERTEX
10
659.816
20
275.503
30
-49.028
8
0
0
VERTEX
10
659.816
20
275.503
30
-49.028
8
0
0
VERTEX
10
658.216
20
276.691
30
-48.8447
8
0
0
VERTEX
10
658.216
20
276.691
30
-48.8447
8
0
0
VERTEX
10
656.615
20
277.878
30
-48.6616
8
0
0
VERTEX
10
655.817
20
278.472
30
-48.5694
8
0
0
VERTEX
10
654.216
20
279.656
30
-48.3879
8
0
0
VERTEX
10
653.418
20
280.251
30
-48.2953
8
0
0
VERTEX
10
652.256
20
281.912
30
-47.3507
8
0
0
VERTEX
10
651.456
20
282.505
30
-47.2605
8
0
0
VERTEX
10
650.656
20
283.099
30
-47.1696
8
0
0
VERTEX
10
649.495
20
284.76
30
-46.2229
8
0
0
VERTEX
10
649.495
20
284.76
30
-46.2229
8
0
0
VERTEX
10
647.896
20
285.945
30
-46.0411
8
0
0
VERTEX
10
647.096
20
286.539
30
-45.9488
8
0
0
VERTEX
10
646.296
20
287.134
30
-45.8565
8
0
0
VERTEX
10
644.697
20
288.32
30
-45.6741
8
0
0
VERTEX
10
644.697
20
288.32
30
-45.6741
8
0
0
VERTEX
10
643.894
20
288.914
30
-45.5827
8
0
0
VERTEX
10
642.299
20
290.099
30
-45.4007
8
0
0
VERTEX
10
640.696
20
291.284
30
-45.2178
8
0
0
VERTEX
10
639.898
20
291.879
30
-45.1267
8
0
0
VERTEX
10
639.097
20
292.472
30
-45.0356
8
0
0
VERTEX
10
639.536
20
292.948
30
-44.2705
8
0
0
VERTEX
10
639.536
20
292.948
30
-44.2705
8
0
0
VERTEX
10
639.536
20
292.948
30
-44.2705
8
0
0
VERTEX
10
639.536
20
292.948
30
-44.2705
8
0
0
VERTEX
10
639.536
20
292.948
30
-44.2705
8
0
0
VERTEX
10
639.536
20
292.948
30
-44.2705
8
0
0
VERTEX
10
639.536
20
292.948
30
-44.2705
8
0
0
VERTEX
10
639.536
20
292.948
30
-44.2705
8
0
0
VERTEX
10
639.536
20
292.948
30
-44.2705
8
0
0
VERTEX
10
639.536
20
292.948
30
-44.2705
8
0
0
VERTEX
10
639.536
20
292.948
30
-44.2705
8
0
0
VERTEX
10
639.536
20
292.948
30
-44.2705
8
0
0
VERTEX
10
639.536
20
292.948
30
-44.2705
8
0
0
VERTEX
10
639.536
20
292.948
30
-44.2705
8
0
0
VERTEX
10
639.536
20
292.948
30
-44.2705
8
0
0
VERTEX
10
639.536
20
292.948
30
-44.2705
8
0
0
VERTEX
10
639.536
20
292.948
30
-44.2705
8
0
0
VERTEX
10
639.097
20
292.472
30
-45.0356
8
0
0
VERTEX
10
637.781
20
291.048
30
-47.3252
8
0
0
VERTEX
10
636.903
20
290.1
30
-48.8509
8
0
0
VERTEX
10
636.464
20
289.626
30
-49.6142
8
0
0
VERTEX
10
635.584
20
288.676
30
-51.1423
8
0
0
VERTEX
10
634.707
20
287.728
30
-52.6663
8
0
0
VERTEX
10
634.269
20
287.25
30
-53.4298
8
0
0
VERTEX
10
633.392
20
286.303
30
-54.9562
8
0
0
VERTEX
10
632.511
20
285.354
30
-56.4809
8
0
0
VERTEX
10
631.634
20
284.406
30
-58.0092
8
0
0
VERTEX
10
631.195
20
283.931
30
-58.7712
8
0
0
VERTEX
10
629.517
20
283.577
30
-60.2048
8
0
0
VERTEX
10
628.641
20
282.627
30
-61.7307
8
0
0
VERTEX
10
628.197
20
282.152
30
-62.4953
8
0
0
VERTEX
10
627.76
20
281.678
30
-63.2589
8
0
0
VERTEX
10
627.323
20
281.202
30
-64.0203
8
0
0
VERTEX
10
626.445
20
280.254
30
-65.5477
8
0
0
VERTEX
10
624.767
20
279.9
30
-66.9821
8
0
0
VERTEX
10
623.89
20
278.95
30
-68.5082
8
0
0
VERTEX
10
623.012
20
278.001
30
-70.0353
8
0
0
VERTEX
10
622.134
20
277.052
30
-71.5597
8
0
0
VERTEX
10
621.255
20
276.102
30
-73.0864
8
0
0
VERTEX
10
620.375
20
275.153
30
-74.6139
8
0
0
VERTEX
10
618.699
20
274.797
30
-76.0484
8
0
0
VERTEX
10
617.822
20
273.848
30
-77.5735
8
0
0
VERTEX
10
616.942
20
272.901
30
-79.1
8
0
0
VERTEX
10
616.064
20
271.953
30
-80.6248
8
0
0
VERTEX
10
615.186
20
271.002
30
-82.1521
8
0
0
VERTEX
10
614.747
20
270.529
30
-82.9152
8
0
0
VERTEX
10
613.432
20
269.105
30
-85.2021
8
0
0
VERTEX
10
611.751
20
268.75
30
-86.6379
8
0
0
VERTEX
10
610.875
20
267.802
30
-88.1638
8
0
0
VERTEX
10
609.12
20
265.904
30
-91.2177
8
0
0
VERTEX
10
607.441
20
265.548
30
-92.652
8
0
0
VERTEX
10
606.563
20
264.598
30
-94.1779
8
0
0
VERTEX
10
605.246
20
263.176
30
-96.4668
8
0
0
VERTEX
10
604.807
20
262.701
30
-97.2296
8
0
0
VERTEX
10
603.929
20
261.752
30
-98.7551
8
0
0
VERTEX
10
603.052
20
260.805
30
-100.28
8
0
0
VERTEX
10
602.17
20
259.855
30
-101.809
8
0
0
VERTEX
10
600.853
20
258.433
30
-104.097
8
0
0
VERTEX
10
599.978
20
257.481
30
-105.622
8
0
0
VERTEX
10
599.099
20
256.533
30
-107.149
8
0
0
VERTEX
10
597.781
20
255.109
30
-109.439
8
0
0
VERTEX
10
596.904
20
254.162
30
-110.964
8
0
0
VERTEX
10
595.586
20
252.737
30
-113.255
8
0
0
VERTEX
10
594.271
20
251.313
30
-115.544
8
0
0
VERTEX
10
593.833
20
250.841
30
-116.305
8
0
0
VERTEX
10
592.954
20
249.89
30
-117.831
8
0
0
VERTEX
10
592.076
20
248.941
30
-119.358
8
0
0
VERTEX
10
591.196
20
247.994
30
-120.885
8
0
0
VERTEX
10
590.319
20
247.044
30
-122.412
8
0
0
VERTEX
10
589.002
20
245.621
30
-124.7
8
0
0
VERTEX
10
587.685
20
244.198
30
-126.989
8
0
0
VERTEX
10
586.808
20
243.249
30
-128.516
8
0
0
VERTEX
10
585.49
20
241.825
30
-130.804
8
0
0
VERTEX
10
584.612
20
240.876
30
-132.33
8
0
0
VERTEX
10
584.174
20
240.403
30
-133.093
8
0
0
VERTEX
10
584.174
20
240.403
30
-133.093
8
0
0
VERTEX
10
583.736
20
239.927
30
-133.857
8
0
0
VERTEX
10
583.736
20
239.927
30
-133.857
8
0
0
VERTEX
10
583.736
20
239.927
30
-133.857
8
0
0
VERTEX
10
582.855
20
238.98
30
-135.382
8
0
0
VERTEX
10
582.855
20
238.98
30
-135.382
8
0
0
VERTEX
10
582.417
20
238.504
30
-136.145
8
0
0
VERTEX
10
581.54
20
237.555
30
-137.672
8
0
0
VERTEX
10
581.54
20
237.555
30
-137.672
8
0
0
VERTEX
10
580.662
20
236.606
30
-139.199
8
0
0
VERTEX
10
580.662
20
236.606
30
-139.199
8
0
0
VERTEX
10
580.662
20
236.606
30
-139.199
8
0
0
VERTEX
10
580.662
20
236.606
30
-139.199
8
0
0
VERTEX
10
580.662
20
236.606
30
-139.199
8
0
0
VERTEX
10
580.223
20
236.133
30
-139.96
8
0
0
VERTEX
10
580.223
20
236.133
30
-139.96
8
0
0
VERTEX
10
580.223
20
236.133
30
-139.96
8
0
0
VERTEX
10
580.223
20
236.133
30
-139.96
8
0
0
VERTEX
10
580.223
20
236.133
30
-139.96
8
0
0
VERTEX
10
580.223
20
236.133
30
-139.96
8
0
0
VERTEX
10
581.825
20
234.945
30
-140.145
8
0
0
VERTEX
10
582.981
20
233.284
30
-141.091
8
0
0
VERTEX
10
584.144
20
231.624
30
-142.034
8
0
0
VERTEX
10
586.545
20
229.843
30
-142.309
8
0
0
VERTEX
10
588.143
20
228.656
30
-142.493
8
0
0
VERTEX
10
590.466
20
225.333
30
-144.383
8
0
0
VERTEX
10
592.865
20
223.555
30
-144.658
8
0
0
VERTEX
10
594.826
20
221.3
30
-145.693
8
0
0
VERTEX
10
595.987
20
219.64
30
-146.638
8
0
0
VERTEX
10
597.146
20
217.981
30
-147.584
8
0
0
VERTEX
10
598.747
20
216.792
30
-147.768
8
0
0
VERTEX
10
599.547
20
216.199
30
-147.858
8
0
0
VERTEX
10
601.145
20
215.013
30
-148.042
8
0
0
VERTEX
10
602.746
20
213.827
30
-148.225
8
0
0
VERTEX
10
605.144
20
212.047
30
-148.497
8
0
0
VERTEX
10
606.747
20
210.86
30
-148.68
8
0
0
VERTEX
10
608.345
20
209.674
30
-148.863
8
0
0
VERTEX
10
610.744
20
207.895
30
-149.137
8
0
0
VERTEX
10
612.345
20
206.708
30
-149.319
8
0
0
VERTEX
10
614.743
20
204.927
30
-149.595
8
0
0
VERTEX
10
616.343
20
203.742
30
-149.777
8
0
0
VERTEX
10
616.704
20
202.675
30
-150.63
8
0
0
VERTEX
10
617.504
20
202.079
30
-150.722
8
0
0
VERTEX
10
617.504
20
202.079
30
-150.722
8
0
0
VERTEX
10
617.504
20
202.079
30
-150.722
8
0
0
VERTEX
10
617.504
20
202.079
30
-150.722
8
0
0
VERTEX
10
619.103
20
200.894
30
-150.904
8
0
0
VERTEX
10
619.103
20
200.894
30
-150.904
8
0
0
VERTEX
10
619.103
20
200.894
30
-150.904
8
0
0
VERTEX
10
620.704
20
199.708
30
-151.088
8
0
0
VERTEX
10
621.504
20
199.114
30
-151.177
8
0
0
VERTEX
10
622.303
20
198.521
30
-151.271
8
0
0
VERTEX
10
624.341
20
197.809
30
-150.691
8
0
0
VERTEX
10
625.942
20
196.623
30
-150.872
8
0
0
VERTEX
10
625.942
20
196.623
30
-150.872
8
0
0
VERTEX
10
625.942
20
196.623
30
-150.872
8
0
0
VERTEX
10
625.942
20
196.623
30
-150.872
8
0
0
VERTEX
10
625.942
20
196.623
30
-150.872
8
0
0
VERTEX
10
626.381
20
197.097
30
-150.108
8
0
0
VERTEX
10
627.259
20
198.046
30
-148.583
8
0
0
VERTEX
10
629.814
20
199.349
30
-145.622
8
0
0
VERTEX
10
633.249
20
201.604
30
-141.135
8
0
0
VERTEX
10
634.127
20
202.552
30
-139.609
8
0
0
VERTEX
10
635.444
20
203.975
30
-137.321
8
0
0
VERTEX
10
637.121
20
204.332
30
-135.884
8
0
0
VERTEX
10
639.317
20
206.704
30
-132.069
8
0
0
VERTEX
10
640.993
20
207.06
30
-130.635
8
0
0
VERTEX
10
642.31
20
208.483
30
-128.345
8
0
0
VERTEX
10
643.189
20
209.432
30
-126.82
8
0
0
VERTEX
10
644.945
20
211.33
30
-123.768
8
0
0
VERTEX
10
646.183
20
211.209
30
-123.096
8
0
0
VERTEX
10
647.5
20
212.633
30
-120.806
8
0
0
VERTEX
10
649.178
20
212.989
30
-119.372
8
0
0
VERTEX
10
650.056
20
213.938
30
-117.845
8
0
0
VERTEX
10
650.934
20
214.887
30
-116.319
8
0
0
VERTEX
10
651.374
20
215.362
30
-115.556
8
0
0
VERTEX
10
652.689
20
216.786
30
-113.267
8
0
0
VERTEX
10
652.689
20
216.786
30
-113.267
8
0
0
VERTEX
10
653.93
20
216.666
30
-112.595
8
0
0
VERTEX
10
655.246
20
218.09
30
-110.306
8
0
0
VERTEX
10
656.124
20
219.038
30
-108.781
8
0
0
VERTEX
10
656.564
20
219.513
30
-108.017
8
0
0
VERTEX
10
657.441
20
220.46
30
-106.49
8
0
0
VERTEX
10
658.319
20
221.41
30
-104.965
8
0
0
VERTEX
10
659.119
20
220.818
30
-105.055
8
0
0
VERTEX
10
659.119
20
220.818
30
-105.055
8
0
0
VERTEX
10
659.119
20
220.818
30
-105.055
8
0
0
VERTEX
10
659.119
20
220.818
30
-105.055
8
0
0
VERTEX
10
659.119
20
220.818
30
-105.055
8
0
0
VERTEX
10
659.119
20
220.818
30
-105.055
8
0
0
VERTEX
10
659.119
20
220.818
30
-105.055
8
0
0
VERTEX
10
659.197
20
222.359
30
-103.437
8
0
0
VERTEX
10
659.635
20
222.834
30
-102.676
8
0
0
VERTEX
10
659.277
20
223.901
30
-101.821
8
0
0
VERTEX
10
659.354
20
225.443
30
-100.203
8
0
0
VERTEX
10
658.994
20
226.511
30
-99.3477
8
0
0
VERTEX
10
658.632
20
227.578
30
-98.4955
8
0
0
VERTEX
10
658.71
20
229.123
30
-96.8785
8
0
0
VERTEX
10
658.349
20
230.189
30
-96.023
8
0
0
VERTEX
10
658.79
20
230.663
30
-95.2596
8
0
0
VERTEX
10
658.867
20
232.206
30
-93.6423
8
0
0
VERTEX
10
657.705
20
233.867
30
-92.6964
8
0
0
VERTEX
10
658.583
20
234.817
30
-91.1708
8
0
0
VERTEX
10
658.223
20
235.883
30
-90.3167
8
0
0
VERTEX
10
658.819
20
239.442
30
-86.3183
8
0
0
VERTEX
10
658.896
20
240.983
30
-84.7017
8
0
0
VERTEX
10
658.535
20
242.049
30
-83.8471
8
0
0
VERTEX
10
658.614
20
243.593
30
-82.2292
8
0
0
VERTEX
10
658.328
20
246.204
30
-79.7586
8
0
0
VERTEX
10
658.409
20
247.745
30
-78.1415
8
0
0
VERTEX
10
658.927
20
249.762
30
-75.7594
8
0
0
VERTEX
10
659.804
20
250.712
30
-74.2331
8
0
0
VERTEX
10
659.004
20
251.304
30
-74.1429
8
0
0
VERTEX
10
659.884
20
252.253
30
-72.6164
8
0
0
VERTEX
10
659.6
20
254.864
30
-70.1435
8
0
0
VERTEX
10
659.239
20
255.929
30
-69.2902
8
0
0
VERTEX
10
659.756
20
257.947
30
-66.9104
8
0
0
VERTEX
10
659.47
20
260.556
30
-64.439
8
0
0
VERTEX
10
659.992
20
262.574
30
-62.0582
8
0
0
VERTEX
10
660.068
20
264.118
30
-60.4408
8
0
0
VERTEX
10
660.147
20
265.659
30
-58.8229
8
0
0
VERTEX
10
660.224
20
267.201
30
-57.2056
8
0
0
VERTEX
10
660.303
20
268.744
30
-55.5877
8
0
0
VERTEX
10
660.02
20
271.35
30
-53.1164
8
0
0
VERTEX
10
659.299
20
273.488
30
-51.4065
8
0
0
VERTEX
10
660.614
20
274.911
30
-49.1184
8
0
0
VERTEX
10
660.695
20
276.453
30
-47.5027
8
0
0
VERTEX
10
660.333
20
277.521
30
-46.6461
8
0
0
VERTEX
10
660.333
20
277.521
30
-46.6461
8
0
0
VERTEX
10
660.333
20
277.521
30
-46.6461
8
0
0
VERTEX
10
660.411
20
279.062
30
-45.0301
8
0
0
VERTEX
10
660.411
20
279.062
30
-45.0301
8
0
0
VERTEX
10
660.411
20
279.062
30
-45.0301
8
0
0
VERTEX
10
660.411
20
279.062
30
-45.0301
8
0
0
SEQEND
0
POLYLINE
8
1
62
252
66
1
40
1
41
1
70
8
0
VERTEX
10
551.773
20
372.339
30
-34.7001
8
0
0
VERTEX
10
551.004
20
372.969
30
-34.5788
8
0
0
VERTEX
10
550.233
20
373.596
30
-34.4575
8
0
0
VERTEX
10
549.466
20
374.223
30
-34.3364
8
0
0
VERTEX
10
547.929
20
375.48
30
-34.0928
8
0
0
VERTEX
10
547.162
20
376.11
30
-33.9702
8
0
0
VERTEX
10
545.624
20
377.366
30
-33.726
8
0
0
VERTEX
10
544.855
20
377.992
30
-33.6051
8
0
0
VERTEX
10
544.087
20
378.62
30
-33.4817
8
0
0
VERTEX
10
543.318
20
379.25
30
-33.3608
8
0
0
VERTEX
10
542.55
20
379.877
30
-33.2385
8
0
0
VERTEX
10
541.779
20
380.506
30
-33.1174
8
0
0
VERTEX
10
540.242
20
381.762
30
-32.8748
8
0
0
VERTEX
10
538.706
20
383.015
30
-32.6296
8
0
0
VERTEX
10
537.936
20
383.647
30
-32.51
8
0
0
VERTEX
10
536.399
20
384.902
30
-32.2644
8
0
0
VERTEX
10
535.629
20
385.529
30
-32.1426
8
0
0
VERTEX
10
534.095
20
386.788
30
-31.8977
8
0
0
VERTEX
10
534.095
20
386.788
30
-31.8977
8
0
0
VERTEX
10
534.095
20
386.788
30
-31.8977
8
0
0
VERTEX
10
533.326
20
387.413
30
-31.777
8
0
0
VERTEX
10
533.326
20
387.413
30
-31.777
8
0
0
VERTEX
10
533.326
20
387.413
30
-31.777
8
0
0
VERTEX
10
533.326
20
387.413
30
-31.777
8
0
0
VERTEX
10
533.326
20
387.413
30
-31.777
8
0
0
VERTEX
10
533.326
20
387.413
30
-31.777
8
0
0
VERTEX
10
533.326
20
387.413
30
-31.777
8
0
0
VERTEX
10
532.555
20
388.043
30
-31.6564
8
0
0
VERTEX
10
530.068
20
388.434
30
-32.9408
8
0
0
VERTEX
10
528.348
20
388.193
30
-34.3495
8
0
0
VERTEX
10
526.629
20
387.95
30
-35.7586
8
0
0
VERTEX
10
524.139
20
388.338
30
-37.0449
8
0
0
VERTEX
10
522.419
20
388.101
30
-38.4539
8
0
0
VERTEX
10
520.698
20
387.863
30
-39.8619
8
0
0
VERTEX
10
519.454
20
388.056
30
-40.5065
8
0
0
VERTEX
10
517.734
20
387.815
30
-41.9158
8
0
0
VERTEX
10
516.492
20
388.01
30
-42.5566
8
0
0
VERTEX
10
513.524
20
387.965
30
-44.61
8
0
0
VERTEX
10
512.283
20
388.158
30
-45.2531
8
0
0
VERTEX
10
510.558
20
387.92
30
-46.6623
8
0
0
VERTEX
10
508.839
20
387.68
30
-48.0705
8
0
0
VERTEX
10
507.121
20
387.44
30
-49.4795
8
0
0
VERTEX
10
505.875
20
387.635
30
-50.1216
8
0
0
VERTEX
10
505.399
20
387.202
30
-50.8876
8
0
0
VERTEX
10
503.679
20
386.961
30
-52.2968
8
0
0
VERTEX
10
501.959
20
386.72
30
-53.7049
8
0
0
VERTEX
10
500.24
20
386.481
30
-55.1136
8
0
0
VERTEX
10
498.52
20
386.241
30
-56.5237
8
0
0
VERTEX
10
496.327
20
385.569
30
-58.6944
8
0
0
VERTEX
10
495.08
20
385.763
30
-59.3387
8
0
0
VERTEX
10
495.08
20
385.763
30
-59.3387
8
0
0
VERTEX
10
495.08
20
385.763
30
-59.3387
8
0
0
VERTEX
10
493.36
20
385.523
30
-60.7467
8
0
0
VERTEX
10
493.36
20
385.523
30
-60.7467
8
0
0
VERTEX
10
493.36
20
385.523
30
-60.7467
8
0
0
VERTEX
10
493.36
20
385.523
30
-60.7467
8
0
0
VERTEX
10
493.36
20
385.523
30
-60.7467
8
0
0
VERTEX
10
493.36
20
385.523
30
-60.7467
8
0
0
VERTEX
10
492.409
20
384.657
30
-62.2781
8
0
0
VERTEX
10
491.457
20
383.788
30
-63.8078
8
0
0
VERTEX
10
489.261
20
383.116
30
-65.9818
8
0
0
VERTEX
10
488.31
20
382.248
30
-67.5135
8
0
0
VERTEX
10
486.59
20
382.007
30
-68.9208
8
0
0
VERTEX
10
485.638
20
381.139
30
-70.4506
8
0
0
VERTEX
10
484.211
20
379.838
30
-72.7468
8
0
0
VERTEX
10
482.781
20
378.538
30
-75.0417
8
0
0
VERTEX
10
480.88
20
376.801
30
-78.1015
8
0
0
VERTEX
10
478.208
20
375.694
30
-81.0417
8
0
0
VERTEX
10
477.258
20
374.827
30
-82.5712
8
0
0
VERTEX
10
476.305
20
373.96
30
-84.1028
8
0
0
VERTEX
10
474.402
20
372.225
30
-87.1631
8
0
0
VERTEX
10
472.498
20
370.488
30
-90.2251
8
0
0
VERTEX
10
471.071
20
369.187
30
-92.5213
8
0
0
VERTEX
10
470.12
20
368.319
30
-94.0499
8
0
0
VERTEX
10
468.874
20
368.513
30
-94.6947
8
0
0
VERTEX
10
467.922
20
367.647
30
-96.2235
8
0
0
VERTEX
10
465.545
20
365.476
30
-100.05
8
0
0
VERTEX
10
463.349
20
364.804
30
-102.224
8
0
0
VERTEX
10
462.873
20
364.371
30
-102.988
8
0
0
VERTEX
10
461.923
20
363.502
30
-104.519
8
0
0
VERTEX
10
460.97
20
362.636
30
-106.053
8
0
0
VERTEX
10
460.495
20
362.2
30
-106.816
8
0
0
VERTEX
10
458.773
20
361.963
30
-108.225
8
0
0
VERTEX
10
457.822
20
361.094
30
-109.754
8
0
0
VERTEX
10
456.871
20
360.227
30
-111.285
8
0
0
VERTEX
10
456.396
20
359.793
30
-112.05
8
0
0
VERTEX
10
455.919
20
359.359
30
-112.814
8
0
0
VERTEX
10
454.968
20
358.493
30
-114.345
8
0
0
VERTEX
10
452.296
20
357.384
30
-117.285
8
0
0
VERTEX
10
451.82
20
356.95
30
-118.05
8
0
0
VERTEX
10
451.82
20
356.95
30
-118.05
8
0
0
VERTEX
10
451.345
20
356.518
30
-118.814
8
0
0
VERTEX
10
450.393
20
355.65
30
-120.345
8
0
0
VERTEX
10
449.917
20
355.216
30
-121.111
8
0
0
VERTEX
10
449.917
20
355.216
30
-121.111
8
0
0
VERTEX
10
449.442
20
354.782
30
-121.875
8
0
0
VERTEX
10
448.49
20
353.914
30
-123.406
8
0
0
VERTEX
10
448.49
20
353.914
30
-123.406
8
0
0
VERTEX
10
448.49
20
353.914
30
-123.406
8
0
0
VERTEX
10
448.49
20
353.914
30
-123.406
8
0
0
VERTEX
10
448.49
20
353.914
30
-123.406
8
0
0
VERTEX
10
449.259
20
353.288
30
-123.528
8
0
0
VERTEX
10
450.797
20
352.028
30
-123.772
8
0
0
VERTEX
10
452.334
20
350.774
30
-124.014
8
0
0
VERTEX
10
456.176
20
347.633
30
-124.624
8
0
0
VERTEX
10
459.25
20
345.121
30
-125.111
8
0
0
VERTEX
10
460.785
20
343.864
30
-125.355
8
0
0
VERTEX
10
463.095
20
341.981
30
-125.719
8
0
0
VERTEX
10
465.398
20
340.097
30
-126.085
8
0
0
VERTEX
10
466.934
20
338.842
30
-126.329
8
0
0
VERTEX
10
468.472
20
337.584
30
-126.573
8
0
0
VERTEX
10
470.013
20
336.328
30
-126.816
8
0
0
VERTEX
10
472.318
20
334.441
30
-127.182
8
0
0
VERTEX
10
473.855
20
333.187
30
-127.426
8
0
0
VERTEX
10
475.392
20
331.934
30
-127.669
8
0
0
VERTEX
10
477.698
20
330.048
30
-128.034
8
0
0
VERTEX
10
479.234
20
328.792
30
-128.278
8
0
0
VERTEX
10
480.772
20
327.534
30
-128.523
8
0
0
VERTEX
10
482.308
20
326.278
30
-128.765
8
0
0
VERTEX
10
483.846
20
325.022
30
-129.009
8
0
0
VERTEX
10
485.381
20
323.766
30
-129.252
8
0
0
VERTEX
10
487.69
20
321.882
30
-129.618
8
0
0
VERTEX
10
489.228
20
320.627
30
-129.86
8
0
0
VERTEX
10
489.995
20
319.998
30
-129.985
8
0
0
VERTEX
10
490.763
20
319.372
30
-130.103
8
0
0
VERTEX
10
491.532
20
318.743
30
-130.228
8
0
0
VERTEX
10
491.532
20
318.743
30
-130.228
8
0
0
VERTEX
10
491.532
20
318.743
30
-130.228
8
0
0
VERTEX
10
491.532
20
318.743
30
-130.228
8
0
0
VERTEX
10
491.532
20
318.743
30
-130.228
8
0
0
VERTEX
10
491.532
20
318.743
30
-130.228
8
0
0
VERTEX
10
491.532
20
318.743
30
-130.228
8
0
0
VERTEX
10
492.008
20
319.174
30
-129.463
8
0
0
VERTEX
10
492.958
20
320.042
30
-127.933
8
0
0
VERTEX
10
494.387
20
321.345
30
-125.637
8
0
0
VERTEX
10
495.339
20
322.212
30
-124.105
8
0
0
VERTEX
10
496.763
20
323.515
30
-121.812
8
0
0
VERTEX
10
498.964
20
324.186
30
-119.636
8
0
0
VERTEX
10
499.913
20
325.054
30
-118.107
8
0
0
VERTEX
10
500.863
20
325.922
30
-116.577
8
0
0
VERTEX
10
502.108
20
325.726
30
-115.934
8
0
0
VERTEX
10
503.536
20
327.029
30
-113.637
8
0
0
VERTEX
10
504.965
20
328.331
30
-111.342
8
0
0
VERTEX
10
506.208
20
328.136
30
-110.7
8
0
0
VERTEX
10
507.158
20
329.005
30
-109.168
8
0
0
VERTEX
10
508.11
20
329.872
30
-107.637
8
0
0
VERTEX
10
509.538
20
331.174
30
-105.342
8
0
0
VERTEX
10
511.441
20
332.909
30
-102.281
8
0
0
VERTEX
10
512.392
20
333.777
30
-100.75
8
0
0
VERTEX
10
512.868
20
334.211
30
-99.9848
8
0
0
VERTEX
10
514.296
20
335.51
30
-97.6888
8
0
0
VERTEX
10
514.478
20
337.008
30
-96.0379
8
0
0
VERTEX
10
515.43
20
337.875
30
-94.5076
8
0
0
VERTEX
10
516.381
20
338.742
30
-92.9783
8
0
0
VERTEX
10
517.041
20
340.671
30
-90.5594
8
0
0
VERTEX
10
517.516
20
341.104
30
-89.7948
8
0
0
VERTEX
10
517.701
20
342.601
30
-88.1425
8
0
0
VERTEX
10
518.652
20
343.47
30
-86.6116
8
0
0
VERTEX
10
519.604
20
344.337
30
-85.0816
8
0
0
VERTEX
10
519.785
20
345.831
30
-83.4288
8
0
0
VERTEX
10
521.212
20
347.132
30
-81.1341
8
0
0
VERTEX
10
522.166
20
347.999
30
-79.6022
8
0
0
VERTEX
10
523.117
20
348.868
30
-78.0724
8
0
0
VERTEX
10
524.542
20
350.17
30
-75.7772
8
0
0
VERTEX
10
525.972
20
351.471
30
-73.4816
8
0
0
VERTEX
10
526.629
20
353.402
30
-71.0629
8
0
0
VERTEX
10
528.057
20
354.703
30
-68.7682
8
0
0
VERTEX
10
529.484
20
356.005
30
-66.4727
8
0
0
VERTEX
10
530.435
20
356.872
30
-64.9433
8
0
0
VERTEX
10
530.911
20
357.305
30
-64.1775
8
0
0
VERTEX
10
531.862
20
358.174
30
-62.6474
8
0
0
VERTEX
10
533.289
20
359.474
30
-60.3518
8
0
0
VERTEX
10
534.241
20
360.341
30
-58.8214
8
0
0
VERTEX
10
535.193
20
361.21
30
-57.2912
8
0
0
VERTEX
10
535.668
20
361.643
30
-56.5251
8
0
0
VERTEX
10
537.096
20
362.945
30
-54.2287
8
0
0
VERTEX
10
538.048
20
363.813
30
-52.7
8
0
0
VERTEX
10
539.476
20
365.113
30
-50.4045
8
0
0
VERTEX
10
540.427
20
365.983
30
-48.8743
8
0
0
VERTEX
10
541.855
20
367.282
30
-46.5786
8
0
0
VERTEX
10
542.805
20
368.152
30
-45.0478
8
0
0
VERTEX
10
543.283
20
368.585
30
-44.2832
8
0
0
VERTEX
10
545.001
20
368.826
30
-42.8741
8
0
0
VERTEX
10
546.43
20
370.126
30
-40.5793
8
0
0
VERTEX
10
546.906
20
370.561
30
-39.813
8
0
0
VERTEX
10
548.333
20
371.862
30
-37.5169
8
0
0
VERTEX
10
548.807
20
372.295
30
-36.7526
8
0
0
VERTEX
10
549.578
20
371.666
30
-36.8737
8
0
0
VERTEX
10
549.578
20
371.666
30
-36.8737
8
0
0
VERTEX
10
549.578
20
371.666
30
-36.8737
8
0
0
VERTEX
10
549.578
20
371.666
30
-36.8737
8
0
0
VERTEX
10
549.578
20
371.666
30
-36.8737
8
0
0
VERTEX
10
549.578
20
371.666
30
-36.8737
8
0
0
VERTEX
10
550.345
20
371.04
30
-36.9956
8
0
0
VERTEX
10
551.881
20
369.783
30
-37.2392
8
0
0
SEQEND
0
POLYLINE
8
1
62
252
66
1
40
1
41
1
70
8
0
VERTEX
10
632.759
20
174.006
30
-179.425
8
0
0
VERTEX
10
632.759
20
174.006
30
-179.425
8
0
0
VERTEX
10
632.759
20
174.006
30
-179.425
8
0
0
VERTEX
10
631.965
20
174.604
30
-179.315
8
0
0
VERTEX
10
630.756
20
174.801
30
-180.023
8
0
0
VERTEX
10
629.547
20
174.997
30
-180.73
8
0
0
VERTEX
10
627.543
20
175.791
30
-181.33
8
0
0
VERTEX
10
626.336
20
175.99
30
-182.035
8
0
0
VERTEX
10
625.127
20
176.186
30
-182.742
8
0
0
VERTEX
10
624.333
20
176.785
30
-182.633
8
0
0
VERTEX
10
622.329
20
177.581
30
-183.23
8
0
0
VERTEX
10
621.121
20
177.776
30
-183.937
8
0
0
VERTEX
10
620.326
20
178.374
30
-183.828
8
0
0
VERTEX
10
619.117
20
178.57
30
-184.536
8
0
0
VERTEX
10
617.908
20
178.767
30
-185.243
8
0
0
VERTEX
10
617.115
20
179.365
30
-185.135
8
0
0
VERTEX
10
615.906
20
179.56
30
-185.841
8
0
0
VERTEX
10
613.906
20
180.359
30
-186.438
8
0
0
VERTEX
10
613.49
20
179.956
30
-187.257
8
0
0
VERTEX
10
611.486
20
180.751
30
-187.854
8
0
0
VERTEX
10
609.482
20
181.545
30
-188.452
8
0
0
VERTEX
10
607.066
20
181.94
30
-189.866
8
0
0
VERTEX
10
605.858
20
182.135
30
-190.571
8
0
0
VERTEX
10
603.855
20
182.931
30
-191.171
8
0
0
VERTEX
10
602.646
20
183.127
30
-191.879
8
0
0
VERTEX
10
600.642
20
183.922
30
-192.475
8
0
0
VERTEX
10
598.64
20
184.717
30
-193.074
8
0
0
VERTEX
10
596.223
20
185.111
30
-194.489
8
0
0
VERTEX
10
594.22
20
185.905
30
-195.086
8
0
0
VERTEX
10
593.01
20
186.102
30
-195.795
8
0
0
VERTEX
10
591.008
20
186.897
30
-196.392
8
0
0
VERTEX
10
589.8
20
187.092
30
-197.099
8
0
0
VERTEX
10
587.798
20
187.889
30
-197.698
8
0
0
VERTEX
10
585.378
20
188.281
30
-199.11
8
0
0
VERTEX
10
582.167
20
189.273
30
-200.415
8
0
0
VERTEX
10
580.165
20
190.068
30
-201.015
8
0
0
VERTEX
10
578.956
20
190.265
30
-201.72
8
0
0
VERTEX
10
576.954
20
191.06
30
-202.319
8
0
0
VERTEX
10
574.95
20
191.853
30
-202.918
8
0
0
VERTEX
10
571.323
20
192.443
30
-205.039
8
0
0
VERTEX
10
569.321
20
193.238
30
-205.636
8
0
0
VERTEX
10
567.318
20
194.033
30
-206.235
8
0
0
VERTEX
10
564.901
20
194.427
30
-207.648
8
0
0
VERTEX
10
562.898
20
195.221
30
-208.245
8
0
0
VERTEX
10
560.894
20
196.017
30
-208.847
8
0
0
VERTEX
10
557.684
20
197.008
30
-210.15
8
0
0
VERTEX
10
554.472
20
198.001
30
-211.453
8
0
0
VERTEX
10
553.263
20
198.197
30
-212.164
8
0
0
VERTEX
10
551.261
20
198.992
30
-212.759
8
0
0
VERTEX
10
550.052
20
199.188
30
-213.466
8
0
0
VERTEX
10
547.67
20
200.982
30
-213.139
8
0
0
VERTEX
10
545.668
20
201.778
30
-213.739
8
0
0
VERTEX
10
543.25
20
202.171
30
-215.152
8
0
0
VERTEX
10
542.04
20
202.367
30
-215.859
8
0
0
VERTEX
10
540.037
20
203.163
30
-216.458
8
0
0
VERTEX
10
539.244
20
203.761
30
-216.349
8
0
0
VERTEX
10
538.034
20
203.958
30
-217.056
8
0
0
VERTEX
10
536.826
20
204.154
30
-217.762
8
0
0
VERTEX
10
535.618
20
204.352
30
-218.468
8
0
0
VERTEX
10
535.618
20
204.352
30
-218.468
8
0
0
VERTEX
10
534.823
20
204.95
30
-218.362
8
0
0
VERTEX
10
534.823
20
204.95
30
-218.362
8
0
0
VERTEX
10
534.823
20
204.95
30
-218.362
8
0
0
VERTEX
10
534.823
20
204.95
30
-218.362
8
0
0
VERTEX
10
534.823
20
204.95
30
-218.362
8
0
0
VERTEX
10
534.823
20
204.95
30
-218.362
8
0
0
VERTEX
10
533.613
20
205.146
30
-219.068
8
0
0
VERTEX
10
533.613
20
205.146
30
-219.068
8
0
0
VERTEX
10
533.613
20
205.146
30
-219.068
8
0
0
VERTEX
10
533.613
20
205.146
30
-219.068
8
0
0
VERTEX
10
533.613
20
205.146
30
-219.068
8
0
0
VERTEX
10
533.613
20
205.146
30
-219.068
8
0
0
VERTEX
10
533.613
20
205.146
30
-219.068
8
0
0
VERTEX
10
533.613
20
205.146
30
-219.068
8
0
0
VERTEX
10
533.613
20
205.146
30
-219.068
8
0
0
VERTEX
10
533.613
20
205.146
30
-219.068
8
0
0
VERTEX
10
533.613
20
205.146
30
-219.068
8
0
0
VERTEX
10
533.613
20
205.146
30
-219.068
8
0
0
VERTEX
10
533.613
20
205.146
30
-219.068
8
0
0
VERTEX
10
533.613
20
205.146
30
-219.068
8
0
0
VERTEX
10
532.821
20
205.744
30
-218.958
8
0
0
VERTEX
10
531.612
20
205.94
30
-219.666
8
0
0
VERTEX
10
531.612
20
205.94
30
-219.666
8
0
0
VERTEX
10
531.612
20
205.94
30
-219.666
8
0
0
VERTEX
10
531.612
20
205.94
30
-219.666
8
0
0
VERTEX
10
531.198
20
205.54
30
-220.483
8
0
0
VERTEX
10
530.404
20
206.138
30
-220.372
8
0
0
VERTEX
10
530.404
20
206.138
30
-220.372
8
0
0
VERTEX
10
530.404
20
206.138
30
-220.372
8
0
0
VERTEX
10
529.194
20
206.334
30
-221.081
8
0
0
VERTEX
10
529.194
20
206.334
30
-221.081
8
0
0
VERTEX
10
529.194
20
206.334
30
-221.081
8
0
0
VERTEX
10
529.194
20
206.334
30
-221.081
8
0
0
VERTEX
10
529.194
20
206.334
30
-221.081
8
0
0
VERTEX
10
529.194
20
206.334
30
-221.081
8
0
0
VERTEX
10
529.194
20
206.334
30
-221.081
8
0
0
VERTEX
10
529.609
20
206.736
30
-220.263
8
0
0
VERTEX
10
530.441
20
207.54
30
-218.63
8
0
0
VERTEX
10
530.441
20
207.54
30
-218.63
8
0
0
VERTEX
10
531.27
20
208.343
30
-216.998
8
0
0
VERTEX
10
532.099
20
209.145
30
-215.366
8
0
0
VERTEX
10
531.721
20
210.145
30
-214.439
8
0
0
VERTEX
10
532.136
20
210.546
30
-213.625
8
0
0
VERTEX
10
532.551
20
210.949
30
-212.807
8
0
0
VERTEX
10
533.382
20
211.753
30
-211.175
8
0
0
VERTEX
10
534.213
20
212.557
30
-209.541
8
0
0
VERTEX
10
535.042
20
213.36
30
-207.909
8
0
0
VERTEX
10
535.872
20
214.163
30
-206.276
8
0
0
VERTEX
10
536.288
20
214.564
30
-205.461
8
0
0
VERTEX
10
537.118
20
215.369
30
-203.828
8
0
0
VERTEX
10
537.947
20
216.172
30
-202.195
8
0
0
VERTEX
10
538.362
20
216.574
30
-201.379
8
0
0
VERTEX
10
538.779
20
216.976
30
-200.56
8
0
0
VERTEX
10
539.192
20
217.377
30
-199.745
8
0
0
VERTEX
10
539.192
20
217.377
30
-199.745
8
0
0
VERTEX
10
539.192
20
217.377
30
-199.745
8
0
0
VERTEX
10
539.192
20
217.377
30
-199.745
8
0
0
VERTEX
10
539.192
20
217.377
30
-199.745
8
0
0
VERTEX
10
539.192
20
217.377
30
-199.745
8
0
0
VERTEX
10
539.192
20
217.377
30
-199.745
8
0
0
VERTEX
10
539.192
20
217.377
30
-199.745
8
0
0
VERTEX
10
539.192
20
217.377
30
-199.745
8
0
0
VERTEX
10
539.192
20
217.377
30
-199.745
8
0
0
VERTEX
10
539.607
20
217.78
30
-198.928
8
0
0
VERTEX
10
541.611
20
216.984
30
-198.331
8
0
0
VERTEX
10
542.818
20
216.787
30
-197.625
8
0
0
VERTEX
10
544.028
20
216.59
30
-196.917
8
0
0
VERTEX
10
546.029
20
215.796
30
-196.318
8
0
0
VERTEX
10
547.238
20
215.6
30
-195.611
8
0
0
VERTEX
10
550.035
20
214.205
30
-195.123
8
0
0
VERTEX
10
552.038
20
213.411
30
-194.527
8
0
0
VERTEX
10
553.247
20
213.215
30
-193.819
8
0
0
VERTEX
10
555.251
20
212.42
30
-193.221
8
0
0
VERTEX
10
557.253
20
211.626
30
-192.622
8
0
0
VERTEX
10
558.461
20
211.427
30
-191.916
8
0
0
VERTEX
10
560.465
20
210.633
30
-191.319
8
0
0
VERTEX
10
561.673
20
210.436
30
-190.609
8
0
0
VERTEX
10
562.882
20
210.238
30
-189.901
8
0
0
VERTEX
10
564.469
20
209.042
30
-190.121
8
0
0
VERTEX
10
567.304
20
209.051
30
-187.889
8
0
0
VERTEX
10
568.89
20
207.854
30
-188.108
8
0
0
VERTEX
10
570.1
20
207.658
30
-187.403
8
0
0
VERTEX
10
571.308
20
207.461
30
-186.695
8
0
0
VERTEX
10
573.312
20
206.667
30
-186.097
8
0
0
VERTEX
10
574.519
20
206.472
30
-185.391
8
0
0
VERTEX
10
576.145
20
206.675
30
-183.865
8
0
0
VERTEX
10
578.147
20
205.881
30
-183.266
8
0
0
VERTEX
10
580.147
20
205.085
30
-182.672
8
0
0
VERTEX
10
581.773
20
205.29
30
-181.146
8
0
0
VERTEX
10
583.775
20
204.495
30
-180.548
8
0
0
VERTEX
10
585.4
20
204.7
30
-179.024
8
0
0
VERTEX
10
587.401
20
203.905
30
-178.427
8
0
0
VERTEX
10
589.819
20
203.512
30
-177.013
8
0
0
VERTEX
10
593.031
20
202.521
30
-175.709
8
0
0
VERTEX
10
594.24
20
202.324
30
-175.001
8
0
0
VERTEX
10
596.243
20
201.528
30
-174.402
8
0
0
VERTEX
10
598.661
20
201.135
30
-172.988
8
0
0
VERTEX
10
600.664
20
200.341
30
-172.39
8
0
0
VERTEX
10
603.081
20
199.948
30
-170.974
8
0
0
VERTEX
10
605.5
20
199.555
30
-169.562
8
0
0
VERTEX
10
607.5
20
198.76
30
-168.964
8
0
0
VERTEX
10
609.125
20
198.965
30
-167.439
8
0
0
VERTEX
10
611.128
20
198.169
30
-166.842
8
0
0
VERTEX
10
612.753
20
198.375
30
-165.319
8
0
0
VERTEX
10
614.754
20
197.579
30
-164.722
8
0
0
VERTEX
10
617.587
20
197.589
30
-162.489
8
0
0
VERTEX
10
619.589
20
196.792
30
-161.893
8
0
0
VERTEX
10
620.799
20
196.596
30
-161.184
8
0
0
VERTEX
10
622.007
20
196.4
30
-160.477
8
0
0
VERTEX
10
624.426
20
196.007
30
-159.065
8
0
0
VERTEX
10
626.43
20
195.212
30
-158.465
8
0
0
VERTEX
10
627.638
20
195.017
30
-157.758
8
0
0
VERTEX
10
628.431
20
194.417
30
-157.869
8
0
0
VERTEX
10
629.638
20
194.22
30
-157.16
8
0
0
VERTEX
10
629.638
20
194.22
30
-157.16
8
0
0
VERTEX
10
630.434
20
193.621
30
-157.27
8
0
0
VERTEX
10
631.642
20
193.427
30
-156.562
8
0
0
VERTEX
10
631.642
20
193.427
30
-156.562
8
0
0
VERTEX
10
632.437
20
192.828
30
-156.671
8
0
0
VERTEX
10
632.437
20
192.828
30
-156.671
8
0
0
VERTEX
10
632.437
20
192.828
30
-156.671
8
0
0
VERTEX
10
632.437
20
192.828
30
-156.671
8
0
0
VERTEX
10
632.437
20
192.828
30
-156.671
8
0
0
VERTEX
10
633.646
20
192.63
30
-155.964
8
0
0
VERTEX
10
634.438
20
192.033
30
-156.073
8
0
0
VERTEX
10
636.441
20
191.238
30
-155.477
8
0
0
VERTEX
10
637.236
20
190.638
30
-155.585
8
0
0
VERTEX
10
637.236
20
190.638
30
-155.585
8
0
0
VERTEX
10
638.03
20
190.042
30
-155.693
8
0
0
VERTEX
10
639.239
20
189.844
30
-154.986
8
0
0
VERTEX
10
640.032
20
189.245
30
-155.096
8
0
0
VERTEX
10
640.448
20
189.647
30
-154.28
8
0
0
VERTEX
10
641.241
20
189.049
30
-154.389
8
0
0
VERTEX
10
642.035
20
188.451
30
-154.497
8
0
0
VERTEX
10
642.035
20
188.451
30
-154.497
8
0
0
VERTEX
10
642.035
20
188.451
30
-154.497
8
0
0
VERTEX
10
642.035
20
188.451
30
-154.497
8
0
0
VERTEX
10
642.035
20
188.451
30
-154.497
8
0
0
VERTEX
10
641.206
20
187.649
30
-156.13
8
0
0
VERTEX
10
639.96
20
186.444
30
-158.579
8
0
0
VERTEX
10
639.129
20
185.639
30
-160.212
8
0
0
VERTEX
10
638.301
20
184.837
30
-161.844
8
0
0
VERTEX
10
637.884
20
184.434
30
-162.661
8
0
0
VERTEX
10
637.054
20
183.631
30
-164.293
8
0
0
VERTEX
10
635.393
20
182.024
30
-167.56
8
0
0
VERTEX
10
634.979
20
181.622
30
-168.375
8
0
0
VERTEX
10
633.319
20
180.015
30
-171.642
8
0
0
VERTEX
10
632.488
20
179.211
30
-173.274
8
0
0
VERTEX
10
631.245
20
178.008
30
-175.723
8
0
0
VERTEX
10
630.829
20
177.605
30
-176.539
8
0
0
VERTEX
10
630.414
20
177.203
30
-177.356
8
0
0
VERTEX
10
630.414
20
177.203
30
-177.356
8
0
0
VERTEX
10
629.584
20
176.4
30
-178.991
8
0
0
VERTEX
10
628.752
20
175.595
30
-180.621
8
0
0
VERTEX
10
627.921
20
174.793
30
-182.253
8
0
0
VERTEX
10
627.506
20
174.391
30
-183.07
8
0
0
VERTEX
10
627.506
20
174.391
30
-183.07
8
0
0
SEQEND
0
POLYLINE
8
1
62
252
66
1
40
1
41
1
70
8
0
VERTEX
10
456.163
20
261.378
30
-211.036
8
0
0
VERTEX
10
456.993
20
262.183
30
-209.402
8
0
0
VERTEX
10
457.824
20
262.986
30
-207.769
8
0
0
VERTEX
10
459.448
20
263.191
30
-206.245
8
0
0
VERTEX
10
460.694
20
264.397
30
-203.797
8
0
0
VERTEX
10
461.938
20
265.601
30
-201.348
8
0
0
VERTEX
10
463.148
20
265.405
30
-200.641
8
0
0
VERTEX
10
463.977
20
266.208
30
-199.009
8
0
0
VERTEX
10
464.808
20
267.012
30
-197.373
8
0
0
VERTEX
10
465.223
20
267.414
30
-196.559
8
0
0
VERTEX
10
465.223
20
267.414
30
-196.559
8
0
0
VERTEX
10
465.223
20
267.414
30
-196.559
8
0
0
VERTEX
10
465.223
20
267.414
30
-196.559
8
0
0
VERTEX
10
465.223
20
267.414
30
-196.559
8
0
0
VERTEX
10
465.223
20
267.414
30
-196.559
8
0
0
VERTEX
10
465.223
20
267.414
30
-196.559
8
0
0
VERTEX
10
465.223
20
267.414
30
-196.559
8
0
0
VERTEX
10
465.637
20
267.816
30
-195.742
8
0
0
VERTEX
10
466.052
20
268.217
30
-194.926
8
0
0
VERTEX
10
465.673
20
269.217
30
-194.001
8
0
0
VERTEX
10
465.71
20
270.618
30
-192.258
8
0
0
VERTEX
10
464.916
20
271.218
30
-192.151
8
0
0
VERTEX
10
464.916
20
271.218
30
-192.151
8
0
0
VERTEX
10
464.537
20
272.218
30
-191.224
8
0
0
VERTEX
10
463.364
20
273.816
30
-190.189
8
0
0
VERTEX
10
462.227
20
276.817
30
-187.411
8
0
0
VERTEX
10
461.056
20
278.415
30
-186.379
8
0
0
VERTEX
10
459.883
20
280.013
30
-185.343
8
0
0
VERTEX
10
459.503
20
281.013
30
-184.418
8
0
0
VERTEX
10
458.747
20
283.013
30
-182.568
8
0
0
VERTEX
10
457.989
20
285.012
30
-180.715
8
0
0
VERTEX
10
456.817
20
286.611
30
-179.681
8
0
0
VERTEX
10
456.438
20
287.611
30
-178.756
8
0
0
VERTEX
10
456.059
20
288.611
30
-177.831
8
0
0
VERTEX
10
455.265
20
289.21
30
-177.72
8
0
0
VERTEX
10
454.507
20
291.209
30
-175.87
8
0
0
VERTEX
10
453.751
20
293.209
30
-174.018
8
0
0
VERTEX
10
452.992
20
295.209
30
-172.169
8
0
0
VERTEX
10
452.2
20
295.807
30
-172.058
8
0
0
VERTEX
10
452.237
20
297.21
30
-170.317
8
0
0
VERTEX
10
450.684
20
299.806
30
-168.357
8
0
0
VERTEX
10
449.925
20
301.809
30
-166.506
8
0
0
VERTEX
10
449.547
20
302.808
30
-165.582
8
0
0
VERTEX
10
448.788
20
304.807
30
-163.731
8
0
0
VERTEX
10
448.033
20
306.807
30
-161.876
8
0
0
VERTEX
10
446.862
20
308.405
30
-160.844
8
0
0
VERTEX
10
445.722
20
311.405
30
-158.067
8
0
0
VERTEX
10
445.345
20
312.407
30
-157.142
8
0
0
VERTEX
10
443.794
20
315.004
30
-155.18
8
0
0
VERTEX
10
443.036
20
317.005
30
-153.331
8
0
0
VERTEX
10
442.658
20
318.005
30
-152.405
8
0
0
VERTEX
10
441.864
20
318.603
30
-152.295
8
0
0
VERTEX
10
441.104
20
320.604
30
-150.445
8
0
0
VERTEX
10
440.348
20
322.603
30
-148.594
8
0
0
VERTEX
10
439.175
20
324.202
30
-147.558
8
0
0
VERTEX
10
438.797
20
325.201
30
-146.633
8
0
0
VERTEX
10
439.211
20
325.604
30
-145.816
8
0
0
VERTEX
10
438.039
20
327.202
30
-144.781
8
0
0
VERTEX
10
437.281
20
329.202
30
-142.932
8
0
0
VERTEX
10
435.766
20
333.203
30
-139.228
8
0
0
VERTEX
10
435.803
20
334.602
30
-137.487
8
0
0
VERTEX
10
435.426
20
335.602
30
-136.56
8
0
0
VERTEX
10
434.632
20
336.202
30
-136.452
8
0
0
VERTEX
10
434.632
20
336.202
30
-136.452
8
0
0
VERTEX
10
434.632
20
336.202
30
-136.452
8
0
0
VERTEX
10
434.252
20
337.203
30
-135.526
8
0
0
VERTEX
10
434.667
20
337.604
30
-134.709
8
0
0
VERTEX
10
433.874
20
338.202
30
-134.6
8
0
0
VERTEX
10
433.115
20
340.202
30
-132.749
8
0
0
VERTEX
10
433.53
20
340.603
30
-131.935
8
0
0
VERTEX
10
432.737
20
341.202
30
-131.824
8
0
0
VERTEX
10
433.152
20
341.604
30
-131.007
8
0
0
VERTEX
10
432.358
20
342.201
30
-130.899
8
0
0
VERTEX
10
431.981
20
343.201
30
-129.973
8
0
0
VERTEX
10
432.395
20
343.603
30
-129.156
8
0
0
VERTEX
10
432.015
20
344.604
30
-128.232
8
0
0
VERTEX
10
432.43
20
345.006
30
-127.414
8
0
0
VERTEX
10
432.43
20
345.006
30
-127.414
8
0
0
VERTEX
10
431.639
20
345.604
30
-127.305
8
0
0
VERTEX
10
431.639
20
345.604
30
-127.305
8
0
0
VERTEX
10
431.639
20
345.604
30
-127.305
8
0
0
VERTEX
10
431.639
20
345.604
30
-127.305
8
0
0
VERTEX
10
431.639
20
345.604
30
-127.305
8
0
0
VERTEX
10
431.639
20
345.604
30
-127.305
8
0
0
VERTEX
10
431.639
20
345.604
30
-127.305
8
0
0
VERTEX
10
431.639
20
345.604
30
-127.305
8
0
0
VERTEX
10
431.639
20
345.604
30
-127.305
8
0
0
VERTEX
10
431.221
20
345.202
30
-128.122
8
0
0
VERTEX
10
430.807
20
344.8
30
-128.939
8
0
0
VERTEX
10
427.56
20
344.39
30
-131.986
8
0
0
VERTEX
10
426.73
20
343.587
30
-133.618
8
0
0
VERTEX
10
425.104
20
343.382
30
-135.143
8
0
0
VERTEX
10
422.65
20
342.374
30
-138.297
8
0
0
VERTEX
10
420.612
20
341.766
30
-140.638
8
0
0
VERTEX
10
419.782
20
340.963
30
-142.271
8
0
0
VERTEX
10
418.572
20
341.16
30
-142.979
8
0
0
VERTEX
10
416.949
20
340.955
30
-144.501
8
0
0
VERTEX
10
416.12
20
340.152
30
-146.133
8
0
0
VERTEX
10
415.704
20
339.75
30
-146.95
8
0
0
VERTEX
10
414.873
20
338.947
30
-148.583
8
0
0
VERTEX
10
413.25
20
338.741
30
-150.107
8
0
0
VERTEX
10
412.421
20
337.938
30
-151.739
8
0
0
VERTEX
10
411.588
20
337.133
30
-153.371
8
0
0
VERTEX
10
411.175
20
336.732
30
-154.189
8
0
0
VERTEX
10
409.551
20
336.527
30
-155.711
8
0
0
VERTEX
10
409.136
20
336.127
30
-156.527
8
0
0
VERTEX
10
409.136
20
336.127
30
-156.527
8
0
0
VERTEX
10
409.136
20
336.127
30
-156.527
8
0
0
VERTEX
10
409.136
20
336.127
30
-156.527
8
0
0
VERTEX
10
409.136
20
336.127
30
-156.527
8
0
0
VERTEX
10
409.136
20
336.127
30
-156.527
8
0
0
VERTEX
10
409.136
20
336.127
30
-156.527
8
0
0
VERTEX
10
409.136
20
336.127
30
-156.527
8
0
0
VERTEX
10
409.136
20
336.127
30
-156.527
8
0
0
VERTEX
10
409.136
20
336.127
30
-156.527
8
0
0
VERTEX
10
409.895
20
334.127
30
-158.379
8
0
0
VERTEX
10
411.064
20
332.528
30
-159.415
8
0
0
VERTEX
10
411.823
20
330.527
30
-161.265
8
0
0
VERTEX
10
413.41
20
329.332
30
-161.483
8
0
0
VERTEX
10
413.791
20
328.329
30
-162.408
8
0
0
VERTEX
10
414.961
20
326.731
30
-163.444
8
0
0
VERTEX
10
416.135
20
325.134
30
-164.478
8
0
0
VERTEX
10
417.685
20
322.536
30
-166.438
8
0
0
VERTEX
10
418.858
20
320.937
30
-167.473
8
0
0
VERTEX
10
420.033
20
319.339
30
-168.506
8
0
0
VERTEX
10
420.409
20
318.34
30
-169.432
8
0
0
VERTEX
10
422.376
20
316.141
30
-170.577
8
0
0
VERTEX
10
423.55
20
314.543
30
-171.612
8
0
0
VERTEX
10
425.138
20
313.347
30
-171.83
8
0
0
VERTEX
10
426.308
20
311.749
30
-172.866
8
0
0
VERTEX
10
427.861
20
309.15
30
-174.826
8
0
0
VERTEX
10
429.412
20
306.553
30
-176.786
8
0
0
VERTEX
10
431.758
20
303.356
30
-178.856
8
0
0
VERTEX
10
432.929
20
301.757
30
-179.89
8
0
0
VERTEX
10
434.101
20
300.16
30
-180.925
8
0
0
VERTEX
10
435.275
20
298.56
30
-181.96
8
0
0
VERTEX
10
436.033
20
296.561
30
-183.81
8
0
0
VERTEX
10
437.205
20
294.962
30
-184.844
8
0
0
VERTEX
10
437.964
20
292.962
30
-186.695
8
0
0
VERTEX
10
439.135
20
291.364
30
-187.729
8
0
0
VERTEX
10
440.308
20
289.765
30
-188.766
8
0
0
VERTEX
10
440.687
20
288.764
30
-189.691
8
0
0
VERTEX
10
441.444
20
286.767
30
-191.541
8
0
0
VERTEX
10
443.751
20
282.168
30
-195.355
8
0
0
VERTEX
10
444.925
20
280.569
30
-196.387
8
0
0
VERTEX
10
445.304
20
279.568
30
-197.314
8
0
0
VERTEX
10
446.477
20
277.97
30
-198.349
8
0
0
VERTEX
10
448.027
20
275.372
30
-200.308
8
0
0
VERTEX
10
449.2
20
273.773
30
-201.343
8
0
0
VERTEX
10
451.13
20
270.176
30
-204.229
8
0
0
VERTEX
10
451.511
20
269.175
30
-205.156
8
0
0
VERTEX
10
453.06
20
266.577
30
-207.114
8
0
0
VERTEX
10
453.819
20
264.576
30
-208.965
8
0
0
VERTEX
10
454.613
20
263.979
30
-209.074
8
0
0
VERTEX
10
454.613
20
263.979
30
-209.074
8
0
0
VERTEX
10
455.406
20
263.38
30
-209.186
8
0
0
VERTEX
10
454.992
20
262.979
30
-210
8
0
0
VERTEX
10
454.992
20
262.979
30
-210
8
0
0
VERTEX
10
454.992
20
262.979
30
-210
8
0
0
VERTEX
10
455.785
20
262.381
30
-210.11
8
0
0
VERTEX
10
455.785
20
262.381
30
-210.11
8
0
0
VERTEX
10
455.37
20
261.978
30
-210.926
8
0
0
VERTEX
10
455.37
20
261.978
30
-210.926
8
0
0
VERTEX
10
455.37
20
261.978
30
-210.926
8
0
0
VERTEX
10
455.747
20
260.979
30
-211.852
8
0
0
SEQEND
0
POLYLINE
8
1
62
252
66
1
40
1
41
1
70
8
0
VERTEX
10
738.322
20
68.8151
30
-237.076
8
0
0
VERTEX
10
738.766
20
69.2625
30
-236.303
8
0
0
VERTEX
10
739.658
20
70.1612
30
-234.752
8
0
0
VERTEX
10
740.995
20
71.5077
30
-232.427
8
0
0
VERTEX
10
741.885
20
72.4039
30
-230.878
8
0
0
VERTEX
10
742.776
20
73.3026
30
-229.328
8
0
0
VERTEX
10
744.465
20
73.6083
30
-227.895
8
0
0
VERTEX
10
746.247
20
75.4028
30
-224.798
8
0
0
VERTEX
10
747.138
20
76.3011
30
-223.248
8
0
0
VERTEX
10
748.03
20
77.1981
30
-221.699
8
0
0
VERTEX
10
749.367
20
78.5461
30
-219.376
8
0
0
VERTEX
10
750.259
20
79.4438
30
-217.825
8
0
0
VERTEX
10
751.594
20
80.7889
30
-215.501
8
0
0
VERTEX
10
752.487
20
81.6866
30
-213.952
8
0
0
VERTEX
10
753.823
20
83.0338
30
-211.628
8
0
0
VERTEX
10
753.823
20
83.0338
30
-211.628
8
0
0
VERTEX
10
753.823
20
83.0338
30
-211.628
8
0
0
VERTEX
10
753.823
20
83.0338
30
-211.628
8
0
0
VERTEX
10
753.823
20
83.0338
30
-211.628
8
0
0
VERTEX
10
753.823
20
83.0338
30
-211.628
8
0
0
VERTEX
10
753.823
20
83.0338
30
-211.628
8
0
0
VERTEX
10
753.823
20
83.0338
30
-211.628
8
0
0
VERTEX
10
753.823
20
83.0338
30
-211.628
8
0
0
VERTEX
10
753.823
20
83.0338
30
-211.628
8
0
0
VERTEX
10
753.823
20
83.0338
30
-211.628
8
0
0
VERTEX
10
753.119
20
85.115
30
-209.849
8
0
0
VERTEX
10
753.214
20
86.606
30
-208.185
8
0
0
VERTEX
10
752.064
20
88.241
30
-207.179
8
0
0
VERTEX
10
752.159
20
89.7315
30
-205.514
8
0
0
VERTEX
10
751.009
20
91.3649
30
-204.51
8
0
0
VERTEX
10
751.103
20
92.8547
30
-202.844
8
0
0
VERTEX
10
750.752
20
93.8963
30
-201.955
8
0
0
VERTEX
10
749.603
20
95.5306
30
-200.949
8
0
0
VERTEX
10
748.547
20
98.6547
30
-198.281
8
0
0
VERTEX
10
747.4
20
100.29
30
-197.274
8
0
0
VERTEX
10
746.249
20
101.922
30
-196.272
8
0
0
VERTEX
10
745.101
20
103.557
30
-195.267
8
0
0
VERTEX
10
744.398
20
105.64
30
-193.485
8
0
0
VERTEX
10
743.247
20
107.274
30
-192.482
8
0
0
VERTEX
10
741.747
20
109.949
30
-190.586
8
0
0
VERTEX
10
739.801
20
112.176
30
-189.466
8
0
0
VERTEX
10
738.747
20
115.3
30
-186.796
8
0
0
VERTEX
10
736.802
20
117.527
30
-185.675
8
0
0
VERTEX
10
735.652
20
119.162
30
-184.67
8
0
0
VERTEX
10
733.355
20
122.43
30
-182.661
8
0
0
VERTEX
10
731.855
20
125.106
30
-180.766
8
0
0
VERTEX
10
730.355
20
127.782
30
-178.873
8
0
0
VERTEX
10
728.854
20
130.458
30
-176.976
8
0
0
VERTEX
10
727.705
20
132.091
30
-175.971
8
0
0
VERTEX
10
726.204
20
134.767
30
-174.077
8
0
0
VERTEX
10
725.501
20
136.85
30
-172.296
8
0
0
VERTEX
10
723.907
20
138.035
30
-172.065
8
0
0
VERTEX
10
723.203
20
140.118
30
-170.286
8
0
0
VERTEX
10
721.703
20
142.794
30
-168.392
8
0
0
VERTEX
10
721
20
144.876
30
-166.612
8
0
0
VERTEX
10
719.851
20
146.51
30
-165.606
8
0
0
VERTEX
10
718.257
20
147.697
30
-165.376
8
0
0
VERTEX
10
717.107
20
149.33
30
-164.371
8
0
0
VERTEX
10
715.958
20
150.964
30
-163.366
8
0
0
VERTEX
10
715.607
20
152.006
30
-162.476
8
0
0
VERTEX
10
714.809
20
152.598
30
-162.362
8
0
0
VERTEX
10
713.659
20
154.231
30
-161.357
8
0
0
VERTEX
10
712.513
20
155.866
30
-160.352
8
0
0
VERTEX
10
711.809
20
157.949
30
-158.573
8
0
0
VERTEX
10
710.66
20
159.584
30
-157.566
8
0
0
VERTEX
10
709.862
20
160.176
30
-157.453
8
0
0
VERTEX
10
708.363
20
162.852
30
-155.558
8
0
0
VERTEX
10
707.565
20
163.445
30
-155.441
8
0
0
VERTEX
10
707.565
20
163.445
30
-155.441
8
0
0
VERTEX
10
707.565
20
163.445
30
-155.441
8
0
0
VERTEX
10
707.565
20
163.445
30
-155.441
8
0
0
VERTEX
10
707.565
20
163.445
30
-155.441
8
0
0
VERTEX
10
707.565
20
163.445
30
-155.441
8
0
0
VERTEX
10
707.565
20
163.445
30
-155.441
8
0
0
VERTEX
10
707.565
20
163.445
30
-155.441
8
0
0
VERTEX
10
707.565
20
163.445
30
-155.441
8
0
0
VERTEX
10
707.565
20
163.445
30
-155.441
8
0
0
VERTEX
10
707.565
20
163.445
30
-155.441
8
0
0
VERTEX
10
707.565
20
163.445
30
-155.441
8
0
0
VERTEX
10
707.565
20
163.445
30
-155.441
8
0
0
VERTEX
10
707.565
20
163.445
30
-155.441
8
0
0
VERTEX
10
707.565
20
163.445
30
-155.441
8
0
0
VERTEX
10
707.565
20
163.445
30
-155.441
8
0
0
VERTEX
10
707.119
20
162.995
30
-156.217
8
0
0
VERTEX
10
706.675
20
162.547
30
-156.992
8
0
0
VERTEX
10
705.782
20
161.649
30
-158.54
8
0
0
VERTEX
10
704.891
20
160.752
30
-160.089
8
0
0
VERTEX
10
703.555
20
159.407
30
-162.414
8
0
0
VERTEX
10
701.326
20
157.162
30
-166.287
8
0
0
VERTEX
10
699.544
20
155.365
30
-169.385
8
0
0
VERTEX
10
697.761
20
153.569
30
-172.483
8
0
0
VERTEX
10
696.871
20
152.672
30
-174.035
8
0
0
VERTEX
10
695.534
20
151.326
30
-176.357
8
0
0
VERTEX
10
694.199
20
149.979
30
-178.679
8
0
0
VERTEX
10
693.306
20
149.081
30
-180.231
8
0
0
VERTEX
10
691.525
20
147.288
30
-183.329
8
0
0
VERTEX
10
690.634
20
146.389
30
-184.877
8
0
0
VERTEX
10
690.634
20
146.389
30
-184.877
8
0
0
VERTEX
10
690.634
20
146.389
30
-184.877
8
0
0
VERTEX
10
690.634
20
146.389
30
-184.877
8
0
0
VERTEX
10
690.634
20
146.389
30
-184.877
8
0
0
VERTEX
10
690.634
20
146.389
30
-184.877
8
0
0
VERTEX
10
690.634
20
146.389
30
-184.877
8
0
0
VERTEX
10
690.634
20
146.389
30
-184.877
8
0
0
VERTEX
10
690.634
20
146.389
30
-184.877
8
0
0
VERTEX
10
691.431
20
145.797
30
-184.994
8
0
0
VERTEX
10
692.929
20
143.12
30
-186.888
8
0
0
VERTEX
10
693.985
20
139.996
30
-189.557
8
0
0
VERTEX
10
695.135
20
138.362
30
-190.562
8
0
0
VERTEX
10
695.837
20
136.279
30
-192.343
8
0
0
VERTEX
10
697.785
20
134.055
30
-193.461
8
0
0
VERTEX
10
697.691
20
132.563
30
-195.127
8
0
0
VERTEX
10
698.839
20
130.929
30
-196.133
8
0
0
VERTEX
10
699.542
20
128.847
30
-197.912
8
0
0
VERTEX
10
701.839
20
125.576
30
-199.921
8
0
0
VERTEX
10
702.895
20
122.453
30
-202.592
8
0
0
VERTEX
10
704.042
20
120.819
30
-203.597
8
0
0
VERTEX
10
705.545
20
118.142
30
-205.489
8
0
0
VERTEX
10
706.693
20
116.507
30
-206.497
8
0
0
VERTEX
10
707.841
20
114.874
30
-207.502
8
0
0
VERTEX
10
708.545
20
112.791
30
-209.282
8
0
0
VERTEX
10
710.045
20
110.116
30
-211.176
8
0
0
VERTEX
10
711.545
20
107.44
30
-213.07
8
0
0
VERTEX
10
712.695
20
105.808
30
-214.075
8
0
0
VERTEX
10
713.844
20
104.172
30
-215.081
8
0
0
VERTEX
10
714.195
20
103.131
30
-215.971
8
0
0
VERTEX
10
715.343
20
101.496
30
-216.975
8
0
0
VERTEX
10
716.493
20
99.8623
30
-217.982
8
0
0
VERTEX
10
717.642
20
98.2274
30
-218.985
8
0
0
VERTEX
10
718.791
20
96.5942
30
-219.991
8
0
0
VERTEX
10
719.94
20
94.9604
30
-220.995
8
0
0
VERTEX
10
721.439
20
92.2847
30
-222.892
8
0
0
VERTEX
10
722.589
20
90.6508
30
-223.895
8
0
0
VERTEX
10
723.386
20
90.0575
30
-224.01
8
0
0
VERTEX
10
724.535
20
88.4224
30
-225.016
8
0
0
VERTEX
10
726.036
20
85.7486
30
-226.912
8
0
0
VERTEX
10
727.183
20
84.1144
30
-227.916
8
0
0
VERTEX
10
728.331
20
82.4794
30
-228.921
8
0
0
VERTEX
10
729.481
20
80.8458
30
-229.924
8
0
0
VERTEX
10
730.631
20
79.212
30
-230.93
8
0
0
VERTEX
10
731.778
20
77.5767
30
-231.936
8
0
0
VERTEX
10
732.929
20
75.9433
30
-232.941
8
0
0
VERTEX
10
734.077
20
74.3098
30
-233.945
8
0
0
VERTEX
10
735.226
20
72.6747
30
-234.952
8
0
0
VERTEX
10
736.375
20
71.0407
30
-235.956
8
0
0
VERTEX
10
738.322
20
68.8151
30
-237.076
8
0
0
VERTEX
10
738.674
20
67.7732
30
-237.966
8
0
0
VERTEX
10
739.47
20
67.1817
30
-238.082
8
0
0
VERTEX
10
739.47
20
67.1817
30
-238.082
8
0
0
VERTEX
10
739.821
20
66.1398
30
-238.972
8
0
0
VERTEX
10
739.821
20
66.1398
30
-238.972
8
0
0
VERTEX
10
739.821
20
66.1398
30
-238.972
8
0
0
SEQEND
0
POLYLINE
8
1
62
252
66
1
40
1
41
1
70
8
0
VERTEX
10
280.768
20
422.998
30
-155.862
8
0
0
VERTEX
10
281.212
20
423.448
30
-155.088
8
0
0
VERTEX
10
282.106
20
424.343
30
-153.537
8
0
0
VERTEX
10
282.997
20
425.243
30
-151.989
8
0
0
VERTEX
10
285.128
20
425.997
30
-149.781
8
0
0
VERTEX
10
286.911
20
427.791
30
-146.682
8
0
0
VERTEX
10
288.247
20
429.136
30
-144.359
8
0
0
VERTEX
10
290.381
20
429.892
30
-142.149
8
0
0
VERTEX
10
291.719
20
431.238
30
-139.824
8
0
0
VERTEX
10
293.056
20
432.585
30
-137.502
8
0
0
VERTEX
10
293.947
20
433.483
30
-135.951
8
0
0
VERTEX
10
294.392
20
433.931
30
-135.176
8
0
0
VERTEX
10
295.188
20
433.34
30
-135.293
8
0
0
VERTEX
10
295.638
20
433.786
30
-134.517
8
0
0
VERTEX
10
295.638
20
433.786
30
-134.517
8
0
0
VERTEX
10
295.638
20
433.786
30
-134.517
8
0
0
VERTEX
10
296.081
20
434.234
30
-133.744
8
0
0
VERTEX
10
296.528
20
434.686
30
-132.968
8
0
0
VERTEX
10
296.528
20
434.686
30
-132.968
8
0
0
VERTEX
10
296.528
20
434.686
30
-132.968
8
0
0
VERTEX
10
296.528
20
434.686
30
-132.968
8
0
0
VERTEX
10
297.77
20
434.543
30
-132.307
8
0
0
VERTEX
10
298.565
20
433.95
30
-132.424
8
0
0
VERTEX
10
300.254
20
434.254
30
-130.989
8
0
0
VERTEX
10
301.495
20
434.111
30
-130.33
8
0
0
VERTEX
10
302.739
20
433.965
30
-129.67
8
0
0
VERTEX
10
304.779
20
433.23
30
-129.126
8
0
0
VERTEX
10
306.022
20
433.085
30
-128.466
8
0
0
VERTEX
10
308.508
20
432.799
30
-127.147
8
0
0
VERTEX
10
310.548
20
432.063
30
-126.604
8
0
0
VERTEX
10
311.791
20
431.917
30
-125.944
8
0
0
VERTEX
10
314.276
20
431.63
30
-124.625
8
0
0
VERTEX
10
316.315
20
430.893
30
-124.083
8
0
0
VERTEX
10
318.802
20
430.605
30
-122.765
8
0
0
VERTEX
10
320.842
20
429.868
30
-122.218
8
0
0
VERTEX
10
322.087
20
429.722
30
-121.559
8
0
0
VERTEX
10
324.123
20
428.989
30
-121.014
8
0
0
VERTEX
10
326.963
20
427.66
30
-120.585
8
0
0
VERTEX
10
328.203
20
427.517
30
-119.927
8
0
0
VERTEX
10
330.242
20
426.78
30
-119.382
8
0
0
VERTEX
10
332.284
20
426.043
30
-118.837
8
0
0
VERTEX
10
334.325
20
425.305
30
-118.294
8
0
0
VERTEX
10
336.367
20
424.568
30
-117.749
8
0
0
VERTEX
10
338.407
20
423.833
30
-117.205
8
0
0
VERTEX
10
341.243
20
422.503
30
-116.775
8
0
0
VERTEX
10
342.039
20
421.913
30
-116.891
8
0
0
VERTEX
10
344.078
20
421.176
30
-116.348
8
0
0
VERTEX
10
346.118
20
420.442
30
-115.801
8
0
0
VERTEX
10
348.158
20
419.704
30
-115.258
8
0
0
VERTEX
10
351.792
20
417.781
30
-114.944
8
0
0
VERTEX
10
353.834
20
417.044
30
-114.4
8
0
0
VERTEX
10
355.429
20
415.858
30
-114.631
8
0
0
VERTEX
10
357.469
20
415.123
30
-114.085
8
0
0
VERTEX
10
359.506
20
414.387
30
-113.543
8
0
0
VERTEX
10
363.143
20
412.463
30
-113.227
8
0
0
VERTEX
10
365.182
20
411.729
30
-112.684
8
0
0
VERTEX
10
368.816
20
409.807
30
-112.37
8
0
0
VERTEX
10
372.452
20
407.884
30
-112.056
8
0
0
VERTEX
10
374.493
20
407.146
30
-111.512
8
0
0
VERTEX
10
376.085
20
405.964
30
-111.743
8
0
0
VERTEX
10
377.328
20
405.82
30
-111.082
8
0
0
VERTEX
10
379.37
20
405.081
30
-110.538
8
0
0
VERTEX
10
381.407
20
404.346
30
-109.995
8
0
0
VERTEX
10
383.448
20
403.609
30
-109.452
8
0
0
VERTEX
10
387.529
20
402.135
30
-108.362
8
0
0
VERTEX
10
389.123
20
400.953
30
-108.59
8
0
0
VERTEX
10
390.367
20
400.808
30
-107.931
8
0
0
VERTEX
10
390.367
20
400.808
30
-107.931
8
0
0
VERTEX
10
390.367
20
400.808
30
-107.931
8
0
0
VERTEX
10
390.367
20
400.808
30
-107.931
8
0
0
VERTEX
10
390.367
20
400.808
30
-107.931
8
0
0
VERTEX
10
390.367
20
400.808
30
-107.931
8
0
0
VERTEX
10
390.367
20
400.808
30
-107.931
8
0
0
VERTEX
10
390.367
20
400.808
30
-107.931
8
0
0
VERTEX
10
389.922
20
400.359
30
-108.709
8
0
0
VERTEX
10
389.382
20
398.419
30
-111.146
8
0
0
VERTEX
10
388.84
20
396.481
30
-113.586
8
0
0
VERTEX
10
387.504
20
395.134
30
-115.909
8
0
0
VERTEX
10
387.412
20
393.645
30
-117.573
8
0
0
VERTEX
10
386.52
20
392.745
30
-119.122
8
0
0
VERTEX
10
385.184
20
391.399
30
-121.446
8
0
0
VERTEX
10
384.291
20
390.502
30
-122.996
8
0
0
VERTEX
10
384.644
20
389.459
30
-123.886
8
0
0
VERTEX
10
383.752
20
388.563
30
-125.436
8
0
0
VERTEX
10
383.306
20
388.113
30
-126.21
8
0
0
VERTEX
10
383.306
20
388.113
30
-126.21
8
0
0
VERTEX
10
382.414
20
387.216
30
-127.759
8
0
0
VERTEX
10
382.414
20
387.216
30
-127.759
8
0
0
VERTEX
10
381.969
20
386.768
30
-128.534
8
0
0
VERTEX
10
381.877
20
385.276
30
-130.199
8
0
0
VERTEX
10
381.877
20
385.276
30
-130.199
8
0
0
VERTEX
10
381.877
20
385.276
30
-130.199
8
0
0
VERTEX
10
380.985
20
384.38
30
-131.748
8
0
0
VERTEX
10
380.539
20
383.931
30
-132.522
8
0
0
VERTEX
10
380.539
20
383.931
30
-132.522
8
0
0
VERTEX
10
380.539
20
383.931
30
-132.522
8
0
0
VERTEX
10
380.539
20
383.931
30
-132.522
8
0
0
VERTEX
10
380.539
20
383.931
30
-132.522
8
0
0
VERTEX
10
380.091
20
383.483
30
-133.297
8
0
0
VERTEX
10
380.091
20
383.483
30
-133.297
8
0
0
VERTEX
10
378.851
20
383.626
30
-133.955
8
0
0
VERTEX
10
376.365
20
383.913
30
-135.274
8
0
0
VERTEX
10
374.325
20
384.651
30
-135.82
8
0
0
VERTEX
10
371.84
20
384.935
30
-137.139
8
0
0
VERTEX
10
368.111
20
385.37
30
-139.116
8
0
0
VERTEX
10
366.071
20
386.106
30
-139.659
8
0
0
VERTEX
10
363.585
20
386.394
30
-140.979
8
0
0
VERTEX
10
360.302
20
387.274
30
-142.182
8
0
0
VERTEX
10
358.263
20
388.011
30
-142.726
8
0
0
VERTEX
10
355.428
20
389.339
30
-143.154
8
0
0
VERTEX
10
351.697
20
389.771
30
-145.134
8
0
0
VERTEX
10
349.657
20
390.507
30
-145.68
8
0
0
VERTEX
10
346.82
20
391.835
30
-146.109
8
0
0
VERTEX
10
342.741
20
393.309
30
-147.196
8
0
0
VERTEX
10
340.701
20
394.044
30
-147.74
8
0
0
VERTEX
10
337.417
20
394.926
30
-148.945
8
0
0
VERTEX
10
333.782
20
396.848
30
-149.26
8
0
0
VERTEX
10
331.744
20
397.583
30
-149.803
8
0
0
VERTEX
10
329.704
20
398.321
30
-150.348
8
0
0
VERTEX
10
326.421
20
399.201
30
-151.553
8
0
0
VERTEX
10
324.825
20
400.386
30
-151.322
8
0
0
VERTEX
10
321.541
20
401.266
30
-152.525
8
0
0
VERTEX
10
319.503
20
402.004
30
-153.069
8
0
0
VERTEX
10
316.663
20
403.334
30
-153.499
8
0
0
VERTEX
10
313.828
20
404.662
30
-153.928
8
0
0
VERTEX
10
311.788
20
405.397
30
-154.471
8
0
0
VERTEX
10
308.153
20
407.321
30
-154.787
8
0
0
VERTEX
10
306.56
20
408.507
30
-154.553
8
0
0
VERTEX
10
303.278
20
409.385
30
-155.759
8
0
0
VERTEX
10
301.684
20
410.57
30
-155.527
8
0
0
VERTEX
10
299.642
20
411.308
30
-156.073
8
0
0
VERTEX
10
298.844
20
411.901
30
-155.958
8
0
0
VERTEX
10
296.805
20
412.636
30
-156.501
8
0
0
VERTEX
10
295.211
20
413.82
30
-156.27
8
0
0
VERTEX
10
292.726
20
414.109
30
-157.588
8
0
0
VERTEX
10
289.091
20
416.03
30
-157.904
8
0
0
VERTEX
10
287.052
20
416.768
30
-158.448
8
0
0
VERTEX
10
285.01
20
417.506
30
-158.993
8
0
0
VERTEX
10
284.215
20
418.097
30
-158.875
8
0
0
VERTEX
10
282.97
20
418.24
30
-159.538
8
0
0
VERTEX
10
282.173
20
418.834
30
-159.423
8
0
0
VERTEX
10
281.377
20
419.425
30
-159.308
8
0
0
VERTEX
10
279.337
20
420.161
30
-159.852
8
0
0
VERTEX
10
279.337
20
420.161
30
-159.852
8
0
0
VERTEX
10
279.337
20
420.161
30
-159.852
8
0
0
VERTEX
10
279.337
20
420.161
30
-159.852
8
0
0
VERTEX
10
278.539
20
420.755
30
-159.736
8
0
0
VERTEX
10
278.539
20
420.755
30
-159.736
8
0
0
VERTEX
10
278.539
20
420.755
30
-159.736
8
0
0
VERTEX
10
278.539
20
420.755
30
-159.736
8
0
0
SEQEND
0
POLYLINE
8
1
62
252
66
1
40
1
41
1
70
8
0
VERTEX
10
501.921
20
248.234
30
-221.497
8
0
0
VERTEX
10
501.138
20
247.116
30
-221.864
8
0
0
VERTEX
10
499.527
20
245.349
30
-223.935
8
0
0
VERTEX
10
497.549
20
242.785
30
-225.521
8
0
0
VERTEX
10
496.72
20
242.137
30
-227.223
8
0
0
VERTEX
10
494.787
20
239.105
30
-227.478
8
0
0
VERTEX
10
494.006
20
237.985
30
-227.845
8
0
0
VERTEX
10
493.222
20
236.867
30
-228.214
8
0
0
VERTEX
10
491.245
20
234.304
30
-229.801
8
0
0
VERTEX
10
490.462
20
233.185
30
-230.171
8
0
0
VERTEX
10
488.85
20
231.417
30
-232.239
8
0
0
VERTEX
10
486.872
20
228.855
30
-233.825
8
0
0
VERTEX
10
485.675
20
227.411
30
-235.043
8
0
0
VERTEX
10
484.479
20
225.969
30
-236.264
8
0
0
VERTEX
10
482.5
20
223.407
30
-237.85
8
0
0
VERTEX
10
480.107
20
220.519
30
-240.288
8
0
0
VERTEX
10
478.957
20
218.606
30
-240.174
8
0
0
VERTEX
10
478.129
20
217.958
30
-241.876
8
0
0
VERTEX
10
477.346
20
216.84
30
-242.244
8
0
0
VERTEX
10
475.781
20
214.601
30
-242.98
8
0
0
VERTEX
10
473.802
20
212.038
30
-244.567
8
0
0
VERTEX
10
472.605
20
210.594
30
-245.786
8
0
0
VERTEX
10
470.627
20
208.033
30
-247.373
8
0
0
VERTEX
10
470.212
20
207.708
30
-248.224
8
0
0
VERTEX
10
469.799
20
207.386
30
-249.074
8
0
0
VERTEX
10
469.799
20
207.386
30
-249.074
8
0
0
VERTEX
10
469.43
20
206.59
30
-248.592
8
0
0
SEQEND
0
POLYLINE
8
1
62
252
66
1
40
1
41
1
70
8
0
VERTEX
10
671.47
20
415.244
30
64.2234
8
0
0
VERTEX
10
671.47
20
415.244
30
64.2234
8
0
0
VERTEX
10
671.268
20
415.158
30
62.2358
8
0
0
VERTEX
10
671.064
20
415.073
30
60.2475
8
0
0
VERTEX
10
670.859
20
414.987
30
58.2606
8
0
0
VERTEX
10
670.755
20
414.944
30
57.2661
8
0
0
VERTEX
10
669.752
20
414.109
30
54.3863
8
0
0
VERTEX
10
669.546
20
414.023
30
52.3989
8
0
0
VERTEX
10
669.342
20
413.938
30
50.4117
8
0
0
VERTEX
10
668.44
20
413.143
30
48.526
8
0
0
VERTEX
10
668.236
20
413.059
30
46.5393
8
0
0
VERTEX
10
667.333
20
412.264
30
44.6536
8
0
0
VERTEX
10
667.129
20
412.179
30
42.6669
8
0
0
VERTEX
10
666.924
20
412.093
30
40.6782
8
0
0
VERTEX
10
666.124
20
411.341
30
39.7864
8
0
0
VERTEX
10
665.919
20
411.257
30
37.799
8
0
0
VERTEX
10
665.017
20
410.463
30
35.9137
8
0
0
VERTEX
10
664.81
20
410.377
30
33.9253
8
0
0
VERTEX
10
664.607
20
410.292
30
31.9364
8
0
0
VERTEX
10
663.602
20
409.455
30
29.0573
8
0
0
VERTEX
10
663.501
20
409.412
30
28.0655
8
0
0
VERTEX
10
663.295
20
409.328
30
26.076
8
0
0
VERTEX
10
663.091
20
409.242
30
24.0898
8
0
0
VERTEX
10
662.988
20
409.199
30
23.095
8
0
0
VERTEX
10
662.784
20
409.113
30
21.1082
8
0
0
VERTEX
10
661.882
20
408.319
30
19.2218
8
0
0
VERTEX
10
661.78
20
408.277
30
18.2269
8
0
0
VERTEX
10
661.78
20
408.277
30
18.2269
8
0
0
SEQEND
0
POLYLINE
8
1
62
252
66
1
40
1
41
1
70
8
0
VERTEX
10
644.895
20
222.945
30
-166.754
8
0
0
VERTEX
10
646.715
20
220.492
30
-167.573
8
0
0
VERTEX
10
648.157
20
219.105
30
-167.541
8
0
0
VERTEX
10
649.977
20
216.652
30
-168.359
8
0
0
VERTEX
10
651.419
20
215.264
30
-168.328
8
0
0
VERTEX
10
651.799
20
214.198
30
-169.176
8
0
0
VERTEX
10
653.239
20
212.812
30
-169.146
8
0
0
VERTEX
10
655.781
20
209.666
30
-169.948
8
0
0
VERTEX
10
657.221
20
208.279
30
-169.916
8
0
0
VERTEX
10
658.322
20
206.519
30
-170.749
8
0
0
VERTEX
10
659.765
20
205.132
30
-170.717
8
0
0
VERTEX
10
661.585
20
202.68
30
-171.535
8
0
0
VERTEX
10
663.025
20
201.293
30
-171.505
8
0
0
VERTEX
10
664.125
20
199.533
30
-172.337
8
0
0
VERTEX
10
665.225
20
197.774
30
-173.17
8
0
0
VERTEX
10
667.769
20
194.628
30
-173.971
8
0
0
VERTEX
10
668.869
20
192.869
30
-174.804
8
0
0
VERTEX
10
671.409
20
189.722
30
-175.606
8
0
0
VERTEX
10
672.51
20
187.963
30
-176.439
8
0
0
VERTEX
10
672.51
20
187.963
30
-176.439
8
0
0
VERTEX
10
672.891
20
186.896
30
-177.286
8
0
0
VERTEX
10
674.711
20
184.443
30
-178.105
8
0
0
VERTEX
10
676.533
20
181.991
30
-178.921
8
0
0
VERTEX
10
678.734
20
178.473
30
-180.587
8
0
0
VERTEX
10
680.555
20
176.02
30
-181.404
8
0
0
VERTEX
10
681.654
20
174.26
30
-182.238
8
0
0
VERTEX
10
682.377
20
173.567
30
-182.222
8
0
0
VERTEX
10
683.477
20
171.808
30
-183.053
8
0
0
VERTEX
10
685.678
20
168.289
30
-184.719
8
0
0
VERTEX
10
687.499
20
165.836
30
-185.537
8
0
0
VERTEX
10
688.6
20
164.077
30
-186.37
8
0
0
VERTEX
10
689.701
20
162.318
30
-187.202
8
0
0
VERTEX
10
691.521
20
159.865
30
-188.02
8
0
0
VERTEX
10
693.003
20
157.04
30
-189.701
8
0
0
VERTEX
10
694.104
20
155.279
30
-190.533
8
0
0
VERTEX
10
695.584
20
152.455
30
-192.214
8
0
0
VERTEX
10
696.685
20
150.696
30
-193.046
8
0
0
VERTEX
10
697.065
20
149.63
30
-193.895
8
0
0
VERTEX
10
699.267
20
146.111
30
-195.561
8
0
0
VERTEX
10
700.367
20
144.352
30
-196.393
8
0
0
VERTEX
10
701.848
20
141.526
30
-198.074
8
0
0
VERTEX
10
702.949
20
139.768
30
-198.906
8
0
0
VERTEX
10
704.77
20
137.315
30
-199.724
8
0
0
VERTEX
10
705.531
20
135.182
30
-201.42
8
0
0
VERTEX
10
706.632
20
133.425
30
-202.253
8
0
0
VERTEX
10
707.734
20
131.664
30
-203.085
8
0
0
VERTEX
10
708.113
20
130.597
30
-203.933
8
0
0
VERTEX
10
709.214
20
128.839
30
-204.766
8
0
0
VERTEX
10
710.695
20
126.014
30
-206.447
8
0
0
VERTEX
10
712.135
20
124.627
30
-206.417
8
0
0
VERTEX
10
713.617
20
121.801
30
-208.096
8
0
0
VERTEX
10
716.199
20
117.217
30
-210.61
8
0
0
VERTEX
10
717.3
20
115.458
30
-211.443
8
0
0
VERTEX
10
719.501
20
111.939
30
-213.109
8
0
0
VERTEX
10
721.701
20
108.419
30
-214.773
8
0
0
VERTEX
10
723.183
20
105.596
30
-216.455
8
0
0
VERTEX
10
725.724
20
102.449
30
-217.257
8
0
0
VERTEX
10
726.107
20
101.384
30
-218.104
8
0
0
VERTEX
10
727.586
20
98.5575
30
-219.786
8
0
0
VERTEX
10
729.407
20
96.1043
30
-220.602
8
0
0
VERTEX
10
730.508
20
94.3459
30
-221.436
8
0
0
VERTEX
10
731.609
20
92.5865
30
-222.269
8
0
0
VERTEX
10
732.709
20
90.8273
30
-223.101
8
0
0
VERTEX
10
733.81
20
89.067
30
-223.933
8
0
0
VERTEX
10
734.91
20
87.3082
30
-224.766
8
0
0
VERTEX
10
736.731
20
84.8551
30
-225.583
8
0
0
VERTEX
10
738.552
20
82.4016
30
-226.4
8
0
0
VERTEX
10
739.653
20
80.6443
30
-227.233
8
0
0
VERTEX
10
740.034
20
79.577
30
-228.08
8
0
0
VERTEX
10
742.576
20
76.4325
30
-228.883
8
0
0
VERTEX
10
743.676
20
74.6718
30
-229.715
8
0
0
VERTEX
10
744.776
20
72.9124
30
-230.548
8
0
0
VERTEX
10
746.258
20
70.0869
30
-232.229
8
0
0
VERTEX
10
747.359
20
68.3279
30
-233.061
8
0
0
VERTEX
10
749.179
20
65.8751
30
-233.88
8
0
0
VERTEX
10
750.66
20
63.0501
30
-235.56
8
0
0
VERTEX
10
751.381
20
62.3561
30
-235.545
8
0
0
VERTEX
10
752.481
20
60.5961
30
-236.377
8
0
0
VERTEX
10
753.583
20
58.8378
30
-237.21
8
0
0
VERTEX
10
754.682
20
57.0781
30
-238.043
8
0
0
VERTEX
10
756.124
20
55.6918
30
-238.012
8
0
0
VERTEX
10
757.224
20
53.9324
30
-238.845
8
0
0
VERTEX
10
758.324
20
52.1727
30
-239.677
8
0
0
VERTEX
10
759.425
20
50.4138
30
-240.51
8
0
0
VERTEX
10
760.866
20
49.0269
30
-240.478
8
0
0
VERTEX
10
761.248
20
47.9612
30
-241.327
8
0
0
VERTEX
10
763.067
20
45.5087
30
-242.145
8
0
0
VERTEX
10
763.067
20
45.5087
30
-242.145
8
0
0
VERTEX
10
764.509
20
44.1222
30
-242.114
8
0
0
VERTEX
10
765.609
20
42.3619
30
-242.946
8
0
0
VERTEX
10
766.71
20
40.602
30
-243.779
8
0
0
VERTEX
10
767.43
20
39.9084
30
-243.763
8
0
0
VERTEX
10
768.15
20
39.2155
30
-243.748
8
0
0
VERTEX
10
767.811
20
38.8434
30
-244.611
8
0
0
VERTEX
10
767.811
20
38.8434
30
-244.611
8
0
0
VERTEX
10
768.532
20
38.1498
30
-244.595
8
0
0
VERTEX
10
768.532
20
38.1498
30
-244.595
8
0
0
VERTEX
10
768.532
20
38.1498
30
-244.595
8
0
0
VERTEX
10
768.532
20
38.1498
30
-244.595
8
0
0
VERTEX
10
768.532
20
38.1498
30
-244.595
8
0
0
SEQEND
0
POLYLINE
8
1
62
252
66
1
40
1
41
1
70
8
0
VERTEX
10
444.028
20
374.871
30
-132.649
8
0
0
VERTEX
10
443.116
20
375.244
30
-132.48
8
0
0
VERTEX
10
441.935
20
375.387
30
-133.249
8
0
0
VERTEX
10
441.023
20
375.762
30
-133.079
8
0
0
VERTEX
10
439.843
20
375.908
30
-133.845
8
0
0
VERTEX
10
438.933
20
376.282
30
-133.675
8
0
0
VERTEX
10
435.928
20
377.172
30
-134.105
8
0
0
VERTEX
10
433.836
20
377.69
30
-134.703
8
0
0
VERTEX
10
432.013
20
378.438
30
-134.365
8
0
0
VERTEX
10
430.832
20
378.583
30
-135.131
8
0
0
VERTEX
10
429.922
20
378.955
30
-134.963
8
0
0
VERTEX
10
428.74
20
379.099
30
-135.729
8
0
0
VERTEX
10
426.919
20
379.847
30
-135.39
8
0
0
VERTEX
10
424.826
20
380.367
30
-135.988
8
0
0
VERTEX
10
421.823
20
381.256
30
-136.418
8
0
0
VERTEX
10
419.73
20
381.775
30
-137.015
8
0
0
VERTEX
10
416.995
20
382.896
30
-136.508
8
0
0
VERTEX
10
414.903
20
383.413
30
-137.106
8
0
0
VERTEX
10
411.9
20
384.305
30
-137.535
8
0
0
VERTEX
10
409.808
20
384.822
30
-138.132
8
0
0
VERTEX
10
407.986
20
385.57
30
-137.794
8
0
0
VERTEX
10
406.162
20
386.318
30
-137.456
8
0
0
VERTEX
10
404.98
20
386.463
30
-138.222
8
0
0
VERTEX
10
403.156
20
387.21
30
-137.885
8
0
0
VERTEX
10
402.245
20
387.582
30
-137.717
8
0
0
VERTEX
10
401.066
20
387.728
30
-138.483
8
0
0
VERTEX
10
398.974
20
388.246
30
-139.08
8
0
0
VERTEX
10
396.881
20
388.763
30
-139.679
8
0
0
VERTEX
10
395.059
20
389.51
30
-139.34
8
0
0
VERTEX
10
392.966
20
390.027
30
-139.939
8
0
0
VERTEX
10
389.963
20
390.92
30
-140.368
8
0
0
VERTEX
10
387.226
20
392.042
30
-139.861
8
0
0
VERTEX
10
385.134
20
392.559
30
-140.459
8
0
0
VERTEX
10
383.31
20
393.308
30
-140.12
8
0
0
VERTEX
10
381.219
20
393.826
30
-140.717
8
0
0
VERTEX
10
379.395
20
394.573
30
-140.379
8
0
0
VERTEX
10
377.305
20
395.09
30
-140.977
8
0
0
VERTEX
10
375.48
20
395.84
30
-140.64
8
0
0
VERTEX
10
373.655
20
396.588
30
-140.302
8
0
0
VERTEX
10
371.564
20
397.103
30
-140.899
8
0
0
VERTEX
10
369.741
20
397.851
30
-140.561
8
0
0
VERTEX
10
367.915
20
398.6
30
-140.224
8
0
0
VERTEX
10
365.824
20
399.118
30
-140.821
8
0
0
VERTEX
10
363.087
20
400.24
30
-140.315
8
0
0
VERTEX
10
361.265
20
400.986
30
-139.975
8
0
0
VERTEX
10
360.084
20
401.13
30
-140.744
8
0
0
VERTEX
10
357.347
20
402.253
30
-140.236
8
0
0
VERTEX
10
355.257
20
402.77
30
-140.834
8
0
0
VERTEX
10
352.254
20
403.662
30
-141.262
8
0
0
VERTEX
10
350.429
20
404.41
30
-140.924
8
0
0
VERTEX
10
348.338
20
404.927
30
-141.522
8
0
0
VERTEX
10
346.246
20
405.446
30
-142.119
8
0
0
VERTEX
10
345.067
20
405.589
30
-142.886
8
0
0
VERTEX
10
343.242
20
406.338
30
-142.548
8
0
0
VERTEX
10
341.149
20
406.856
30
-143.148
8
0
0
VERTEX
10
338.147
20
407.747
30
-143.575
8
0
0
VERTEX
10
336.322
20
408.495
30
-143.238
8
0
0
VERTEX
10
334.233
20
409.011
30
-143.834
8
0
0
VERTEX
10
331.229
20
409.904
30
-144.263
8
0
0
VERTEX
10
329.136
20
410.421
30
-144.862
8
0
0
VERTEX
10
327.046
20
410.939
30
-145.459
8
0
0
VERTEX
10
324.04
20
411.831
30
-145.887
8
0
0
VERTEX
10
321.039
20
412.722
30
-146.315
8
0
0
VERTEX
10
318.035
20
413.612
30
-146.745
8
0
0
VERTEX
10
315.942
20
414.131
30
-147.342
8
0
0
VERTEX
10
312.94
20
415.022
30
-147.77
8
0
0
VERTEX
10
309.936
20
415.913
30
-148.199
8
0
0
VERTEX
10
306.021
20
417.178
30
-148.459
8
0
0
VERTEX
10
304.839
20
417.324
30
-149.226
8
0
0
VERTEX
10
301.836
20
418.217
30
-149.655
8
0
0
VERTEX
10
300.011
20
418.963
30
-149.317
8
0
0
VERTEX
10
298.834
20
419.104
30
-150.083
8
0
0
VERTEX
10
294.918
20
420.372
30
-150.344
8
0
0
VERTEX
10
291.646
20
421.032
30
-151.708
8
0
0
VERTEX
10
289.823
20
421.78
30
-151.37
8
0
0
VERTEX
10
287.729
20
422.3
30
-151.968
8
0
0
VERTEX
10
285.638
20
422.818
30
-152.566
8
0
0
VERTEX
10
283.549
20
423.335
30
-153.162
8
0
0
VERTEX
10
280.545
20
424.225
30
-153.591
8
0
0
VERTEX
10
278.453
20
424.743
30
-154.188
8
0
0
VERTEX
10
276.361
20
425.26
30
-154.786
8
0
0
VERTEX
10
274.538
20
426.008
30
-154.448
8
0
0
VERTEX
10
271.533
20
426.901
30
-154.877
8
0
0
VERTEX
10
269.441
20
427.419
30
-155.476
8
0
0
VERTEX
10
268.53
20
427.792
30
-155.307
8
0
0
VERTEX
10
267.351
20
427.935
30
-156.072
8
0
0
VERTEX
10
264.348
20
428.827
30
-156.501
8
0
0
VERTEX
10
262.256
20
429.344
30
-157.099
8
0
0
VERTEX
10
260.163
20
429.864
30
-157.697
8
0
0
VERTEX
10
258.072
20
430.38
30
-158.294
8
0
0
VERTEX
10
255.978
20
430.898
30
-158.893
8
0
0
VERTEX
10
255.067
20
431.273
30
-158.724
8
0
0
VERTEX
10
253.889
20
431.415
30
-159.49
8
0
0
VERTEX
10
252.975
20
431.79
30
-159.321
8
0
0
VERTEX
10
252.975
20
431.79
30
-159.321
8
0
0
VERTEX
10
250.884
20
432.308
30
-159.918
8
0
0
VERTEX
10
247.881
20
433.199
30
-160.347
8
0
0
VERTEX
10
245.79
20
433.716
30
-160.944
8
0
0
VERTEX
10
243.698
20
434.235
30
-161.542
8
0
0
VERTEX
10
242.786
20
434.609
30
-161.373
8
0
0
VERTEX
10
238.869
20
435.874
30
-161.633
8
0
0
VERTEX
10
236.778
20
436.393
30
-162.231
8
0
0
VERTEX
10
234.954
20
437.141
30
-161.893
8
0
0
VERTEX
10
230.772
20
438.174
30
-163.088
8
0
0
VERTEX
10
229.86
20
438.549
30
-162.919
8
0
0
VERTEX
10
228.948
20
438.923
30
-162.751
8
0
0
VERTEX
10
228.948
20
438.923
30
-162.751
8
0
0
VERTEX
10
228.948
20
438.923
30
-162.751
8
0
0
VERTEX
10
228.948
20
438.923
30
-162.751
8
0
0
VERTEX
10
228.948
20
438.923
30
-162.751
8
0
0
VERTEX
10
228.948
20
438.923
30
-162.751
8
0
0
VERTEX
10
230.772
20
438.174
30
-163.088
8
0
0
SEQEND
0
POLYLINE
8
1
62
252
66
1
40
1
41
1
70
8
0
VERTEX
10
573.212
20
363.896
30
12.4308
8
0
0
VERTEX
10
573.971
20
363.248
30
12.3728
8
0
0
VERTEX
10
574.729
20
362.597
30
12.3155
8
0
0
VERTEX
10
575.487
20
361.949
30
12.2581
8
0
0
VERTEX
10
576.804
20
361.992
30
11.7414
8
0
0
VERTEX
10
577.562
20
361.342
30
11.6841
8
0
0
VERTEX
10
579.637
20
360.737
30
11.1115
8
0
0
VERTEX
10
580.395
20
360.087
30
11.0526
8
0
0
VERTEX
10
581.712
20
360.13
30
10.5382
8
0
0
VERTEX
10
583.027
20
360.174
30
10.0223
8
0
0
VERTEX
10
585.861
20
358.918
30
9.39174
8
0
0
VERTEX
10
587.178
20
358.961
30
8.87716
8
0
0
VERTEX
10
588.694
20
357.662
30
8.76072
8
0
0
VERTEX
10
590.01
20
357.704
30
8.24491
8
0
0
VERTEX
10
590.769
20
357.056
30
8.18752
8
0
0
VERTEX
10
592.085
20
357.098
30
7.67214
8
0
0
VERTEX
10
592.844
20
356.449
30
7.61479
8
0
0
VERTEX
10
595.676
20
355.193
30
6.9833
8
0
0
VERTEX
10
597.751
20
354.588
30
6.41055
8
0
0
VERTEX
10
599.067
20
354.631
30
5.89509
8
0
0
VERTEX
10
599.826
20
353.982
30
5.83788
8
0
0
VERTEX
10
599.826
20
353.982
30
5.83788
8
0
0
VERTEX
10
599.826
20
353.982
30
5.83788
8
0
0
VERTEX
10
601.141
20
354.024
30
5.32155
8
0
0
VERTEX
10
603.217
20
353.419
30
4.74932
8
0
0
VERTEX
10
606.048
20
352.162
30
4.11719
8
0
0
VERTEX
10
608.882
20
350.908
30
3.48692
8
0
0
VERTEX
10
610.199
20
350.949
30
2.97118
8
0
0
VERTEX
10
610.956
20
350.301
30
2.91363
8
0
0
VERTEX
10
612.273
20
350.345
30
2.39821
8
0
0
VERTEX
10
615.106
20
349.088
30
1.76705
8
0
0
VERTEX
10
617.18
20
348.483
30
1.1937
8
0
0
VERTEX
10
617.939
20
347.833
30
1.13559
8
0
0
VERTEX
10
619.256
20
347.876
30
0.620408
8
0
0
VERTEX
10
620.771
20
346.578
30
0.505765
8
0
0
VERTEX
10
620.771
20
346.578
30
0.505765
8
0
0
VERTEX
10
620.771
20
346.578
30
0.505765
8
0
0
VERTEX
10
620.771
20
346.578
30
0.505765
8
0
0
VERTEX
10
621.33
20
347.271
30
0.047757
8
0
0
VERTEX
10
623.404
20
346.663
30
-0.52623
8
0
0
VERTEX
10
624.163
20
346.014
30
-0.583374
8
0
0
VERTEX
10
624.163
20
346.014
30
-0.583374
8
0
0
VERTEX
10
624.163
20
346.014
30
-0.583374
8
0
0
VERTEX
10
624.163
20
346.014
30
-0.583374
8
0
0
VERTEX
10
624.163
20
346.014
30
-0.583374
8
0
0
VERTEX
10
624.163
20
346.014
30
-0.583374
8
0
0
VERTEX
10
624.922
20
345.365
30
-0.640531
8
0
0
VERTEX
10
626.438
20
344.067
30
-0.755469
8
0
0
VERTEX
10
627.398
20
342.077
30
-0.413088
8
0
0
VERTEX
10
628.914
20
340.778
30
-0.5287
8
0
0
VERTEX
10
629.874
20
338.786
30
-0.185399
8
0
0
VERTEX
10
631.391
20
337.487
30
-0.30051
8
0
0
VERTEX
10
632.149
20
336.838
30
-0.358524
8
0
0
VERTEX
10
633.107
20
334.848
30
-0.015079
8
0
0
VERTEX
10
633.866
20
334.199
30
-0.073062
8
0
0
VERTEX
10
635.382
20
332.901
30
-0.187969
8
0
0
VERTEX
10
636.341
20
330.909
30
0.154812
8
0
0
VERTEX
10
636.542
20
329.568
30
0.555181
8
0
0
VERTEX
10
638.059
20
328.269
30
0.439815
8
0
0
VERTEX
10
638.26
20
326.929
30
0.840646
8
0
0
VERTEX
10
639.977
20
324.289
30
1.12615
8
0
0
VERTEX
10
641.137
20
320.956
30
1.86961
8
0
0
VERTEX
10
641.338
20
319.615
30
2.26934
8
0
0
VERTEX
10
643.055
20
316.976
30
2.55505
8
0
0
VERTEX
10
643.256
20
315.635
30
2.95549
8
0
0
VERTEX
10
644.215
20
313.644
30
3.2983
8
0
0
VERTEX
10
644.617
20
310.96
30
4.09941
8
0
0
VERTEX
10
644.817
20
309.619
30
4.49896
8
0
0
VERTEX
10
645.576
20
308.97
30
4.44156
8
0
0
VERTEX
10
645.776
20
307.628
30
4.84207
8
0
0
VERTEX
10
646.535
20
306.979
30
4.78518
8
0
0
VERTEX
10
646.535
20
306.979
30
4.78518
8
0
0
VERTEX
10
646.535
20
306.979
30
4.78518
8
0
0
VERTEX
10
645.977
20
306.288
30
5.24374
8
0
0
SEQEND
0
POLYLINE
8
1
62
252
66
1
40
1
41
1
70
8
0
VERTEX
10
619.776
20
350.245
30
1.48129
8
0
0
VERTEX
10
620.922
20
350.921
30
2.97462
8
0
0
VERTEX
10
621.494
20
351.258
30
3.72124
8
0
0
VERTEX
10
622.641
20
351.935
30
5.21432
8
0
0
VERTEX
10
623.213
20
352.271
30
5.96104
8
0
0
VERTEX
10
623.213
20
352.271
30
5.96104
8
0
0
VERTEX
10
623.712
20
353.692
30
7.61497
8
0
0
VERTEX
10
624.284
20
354.03
30
8.36124
8
0
0
VERTEX
10
624.858
20
354.368
30
9.10819
8
0
0
VERTEX
10
625.43
20
354.706
30
9.85419
8
0
0
VERTEX
10
626.003
20
355.043
30
10.6012
8
0
0
VERTEX
10
626.502
20
356.464
30
12.2555
8
0
0
VERTEX
10
627.075
20
356.802
30
13.0022
8
0
0
VERTEX
10
626.999
20
357.885
30
13.9089
8
0
0
VERTEX
10
627.572
20
358.223
30
14.6557
8
0
0
VERTEX
10
628.07
20
359.643
30
16.3091
8
0
0
VERTEX
10
628.643
20
359.981
30
17.056
8
0
0
VERTEX
10
628.569
20
361.064
30
17.9628
8
0
0
VERTEX
10
629.714
20
361.739
30
19.4562
8
0
0
VERTEX
10
630.213
20
363.16
30
21.1099
8
0
0
VERTEX
10
630.786
20
363.499
30
21.8569
8
0
0
VERTEX
10
631.283
20
364.918
30
23.5099
8
0
0
VERTEX
10
632.429
20
365.594
30
25.0033
8
0
0
VERTEX
10
632.928
20
367.014
30
26.6571
8
0
0
VERTEX
10
632.853
20
368.097
30
27.5643
8
0
0
VERTEX
10
633.425
20
368.434
30
28.3106
8
0
0
VERTEX
10
633.923
20
369.855
30
29.9643
8
0
0
VERTEX
10
633.848
20
370.938
30
30.8709
8
0
0
VERTEX
10
634.347
20
372.357
30
32.5252
8
0
0
VERTEX
10
634.92
20
372.695
30
33.2711
8
0
0
VERTEX
10
635.418
20
374.115
30
34.9254
8
0
0
VERTEX
10
635.99
20
374.454
30
35.672
8
0
0
VERTEX
10
637.062
20
376.212
30
38.0726
8
0
0
VERTEX
10
636.986
20
377.294
30
38.9791
8
0
0
VERTEX
10
636.986
20
377.294
30
38.9791
8
0
0
VERTEX
10
636.986
20
377.294
30
38.9791
8
0
0
VERTEX
10
636.986
20
377.294
30
38.9791
8
0
0
VERTEX
10
636.986
20
377.294
30
38.9791
8
0
0
VERTEX
10
636.986
20
377.294
30
38.9791
8
0
0
SEQEND
0
ENDSEC
0
EOF
